<svg xmlns="http://www.w3.org/2000/svg" viewBox="0 0 284 348" width="284" height="348" role="img" aria-label="Whiteboard Diagram">
  <defs>
    <filter id="sh" x="-12%" y="-12%" width="124%" height="124%">
      <feDropShadow dx="0" dy="2" stdDeviation="2" flood-color="#0F172A" flood-opacity="0.1"/>
    </filter>
    <marker id="m-slate" viewBox="0 0 10 10" refX="9" refY="5" markerWidth="6" markerHeight="6" orient="auto">
      <path d="M1 2 L9 5 L1 8" fill="none" stroke="#475569" stroke-width="1.8" stroke-linecap="round"/>
    </marker>
  </defs>
  <rect width="284" height="348" fill="#F8FAFC"/>
  <text x="211" y="30" text-anchor="middle" font-family="Arial, Helvetica, sans-serif" font-size="11" font-weight="700" fill="#0F172A">Diagram</text>
  <rect x="165" y="44" width="92" height="33" rx="10" fill="#FFFFFF" stroke="#E2E8F0" stroke-width="1.8" filter="url(#sh)"/>
  <text x="211" y="66" text-anchor="middle" font-family="Arial, Helvetica, sans-serif" font-size="9" font-weight="600" fill="#0F172A">AWS</text>
  <line x1="211" y1="77" x2="211" y2="83" stroke="#475569" stroke-width="2" marker-end="url(#m-slate)"/>
  <line x1="122" y1="94" x2="301" y2="94" stroke="#475569" stroke-width="2"/>
  <line x1="164" y1="94" x2="164" y2="105" stroke="#475569" stroke-width="2"/>
  <rect x="122" y="105" width="84" height="33" rx="10" fill="#FFFFFF" stroke="#E2E8F0" stroke-width="1.8" filter="url(#sh)"/>
  <text x="164" y="127" text-anchor="middle" font-family="Arial, Helvetica, sans-serif" font-size="9" font-weight="600" fill="#0F172A">EC2</text>
  <line x1="259" y1="94" x2="259" y2="105" stroke="#475569" stroke-width="2"/>
  <rect x="217" y="105" width="84" height="33" rx="10" fill="#FFFFFF" stroke="#E2E8F0" stroke-width="1.8" filter="url(#sh)"/>
  <text x="259" y="127" text-anchor="middle" font-family="Arial, Helvetica, sans-serif" font-size="9" font-weight="600" fill="#0F172A">S3</text>
  <rect x="132" y="147" width="74" height="33" rx="10" fill="#ECFDF5" stroke="#86EFAC" stroke-width="1.8" filter="url(#sh)"/>
  <text x="169" y="169" text-anchor="middle" font-family="Arial, Helvetica, sans-serif" font-size="9" font-weight="600" fill="#0F172A">IAM</text>
  <rect x="217" y="147" width="74" height="33" rx="10" fill="#ECFDF5" stroke="#86EFAC" stroke-width="1.8" filter="url(#sh)"/>
  <text x="254" y="169" text-anchor="middle" font-family="Arial, Helvetica, sans-serif" font-size="9" font-weight="600" fill="#0F172A">RDS</text>
  <rect x="132" y="189" width="74" height="33" rx="10" fill="#EFF6FF" stroke="#93C5FD" stroke-width="1.8" filter="url(#sh)"/>
  <text x="169" y="211" text-anchor="middle" font-family="Arial, Helvetica, sans-serif" font-size="9" font-weight="600" fill="#0F172A">VPC</text>
  <rect x="217" y="189" width="74" height="33" rx="10" fill="#EFF6FF" stroke="#93C5FD" stroke-width="1.8" filter="url(#sh)"/>
  <text x="254" y="211" text-anchor="middle" font-family="Arial, Helvetica, sans-serif" font-size="9" font-weight="600" fill="#0F172A">Lambda</text>
  <line x1="211" y1="240" x2="211" y2="246" stroke="#475569" stroke-width="2" marker-end="url(#m-slate)"/>
  <rect x="165" y="252" width="92" height="33" rx="10" fill="#FFFFFF" stroke="#E2E8F0" stroke-width="1.8" filter="url(#sh)"/>
  <text x="211" y="274" text-anchor="middle" font-family="Arial, Helvetica, sans-serif" font-size="9" font-weight="600" fill="#0F172A">Applications</text>
  <line x1="211" y1="285" x2="211" y2="290" stroke="#475569" stroke-width="2" marker-end="url(#m-slate)"/>
  <rect x="165" y="296" width="92" height="33" rx="10" fill="#FFFFFF" stroke="#E2E8F0" stroke-width="1.8" filter="url(#sh)"/>
  <text x="211" y="318" text-anchor="middle" font-family="Arial, Helvetica, sans-serif" font-size="9" font-weight="600" fill="#0F172A">Users</text>
</svg>
