<svg xmlns="http://www.w3.org/2000/svg" viewBox="0 0 144 133" width="144" height="133" role="img" aria-label="How MFA Works">
  <defs>
    <filter id="sh" x="-12%" y="-12%" width="124%" height="124%">
      <feDropShadow dx="0" dy="2" stdDeviation="2" flood-color="#0F172A" flood-opacity="0.1"/>
    </filter>
    <marker id="m-slate" viewBox="0 0 10 10" refX="9" refY="5" markerWidth="6" markerHeight="6" orient="auto">
      <path d="M1 2 L9 5 L1 8" fill="none" stroke="#475569" stroke-width="1.8" stroke-linecap="round"/>
    </marker>
  </defs>
  <rect width="144" height="133" fill="#F8FAFC"/>
  <text x="106" y="15" text-anchor="middle" font-family="Arial, Helvetica, sans-serif" font-size="5" font-weight="700" fill="#0F172A">How MFA Works</text>
  <rect x="72" y="22" width="68" height="17" rx="10" fill="#FFFFFF" stroke="#E2E8F0" stroke-width="1.8" filter="url(#sh)"/>
  <text x="106" y="30" text-anchor="middle" font-family="Arial, Helvetica, sans-serif" font-size="4" font-weight="600" fill="#0F172A">Username +</text>
  <text x="106" y="36" text-anchor="middle" font-family="Arial, Helvetica, sans-serif" font-size="4" font-weight="600" fill="#0F172A">Password</text>
  <line x1="106" y1="39" x2="106" y2="38" stroke="#475569" stroke-width="2" marker-end="url(#m-slate)"/>
  <line x1="106" y1="44" x2="106" y2="44" stroke="#475569" stroke-width="2" marker-end="url(#m-slate)"/>
  <rect x="75" y="50" width="62" height="17" rx="10" fill="#FFFFFF" stroke="#E2E8F0" stroke-width="1.8" filter="url(#sh)"/>
  <text x="106" y="61" text-anchor="middle" font-family="Arial, Helvetica, sans-serif" font-size="4" font-weight="600" fill="#0F172A">Identity Verified</text>
  <line x1="106" y1="67" x2="106" y2="66" stroke="#475569" stroke-width="2" marker-end="url(#m-slate)"/>
  <line x1="106" y1="72" x2="106" y2="72" stroke="#475569" stroke-width="2" marker-end="url(#m-slate)"/>
  <rect x="80" y="78" width="53" height="17" rx="10" fill="#FFFFFF" stroke="#E2E8F0" stroke-width="1.8" filter="url(#sh)"/>
  <text x="106" y="89" text-anchor="middle" font-family="Arial, Helvetica, sans-serif" font-size="4" font-weight="600" fill="#0F172A">Enter MFA Code</text>
  <line x1="106" y1="95" x2="106" y2="94" stroke="#475569" stroke-width="2" marker-end="url(#m-slate)"/>
  <line x1="106" y1="100" x2="106" y2="100" stroke="#475569" stroke-width="2" marker-end="url(#m-slate)"/>
  <rect x="80" y="106" width="53" height="17" rx="10" fill="#FFFFFF" stroke="#E2E8F0" stroke-width="1.8" filter="url(#sh)"/>
  <text x="106" y="117" text-anchor="middle" font-family="Arial, Helvetica, sans-serif" font-size="4" font-weight="600" fill="#0F172A">Access Granted</text>
</svg>
