<svg xmlns="http://www.w3.org/2000/svg" viewBox="0 0 144 209" width="144" height="209" role="img" aria-label="The Safe Remediation Workflow">
  <defs>
    <filter id="sh" x="-12%" y="-12%" width="124%" height="124%">
      <feDropShadow dx="0" dy="2" stdDeviation="2" flood-color="#0F172A" flood-opacity="0.1"/>
    </filter>
    <marker id="m-slate" viewBox="0 0 10 10" refX="9" refY="5" markerWidth="6" markerHeight="6" orient="auto">
      <path d="M1 2 L9 5 L1 8" fill="none" stroke="#475569" stroke-width="1.8" stroke-linecap="round"/>
    </marker>
  </defs>
  <rect width="144" height="209" fill="#F8FAFC"/>
  <text x="106" y="15" text-anchor="middle" font-family="Arial, Helvetica, sans-serif" font-size="5" font-weight="700" fill="#0F172A">The Safe Remediation Workflow</text>
  <rect x="77" y="22" width="59" height="17" rx="10" fill="#FFFFFF" stroke="#E2E8F0" stroke-width="1.8" filter="url(#sh)"/>
  <text x="106" y="33" text-anchor="middle" font-family="Arial, Helvetica, sans-serif" font-size="4" font-weight="600" fill="#0F172A">Security Finding</text>
  <line x1="106" y1="39" x2="106" y2="38" stroke="#475569" stroke-width="2" marker-end="url(#m-slate)"/>
  <rect x="77" y="44" width="59" height="23" rx="10" fill="#FFFFFF" stroke="#E2E8F0" stroke-width="1.8" filter="url(#sh)"/>
  <text x="106" y="55" text-anchor="middle" font-family="Arial, Helvetica, sans-serif" font-size="4" font-weight="600" fill="#0F172A">Document Current</text>
  <text x="106" y="61" text-anchor="middle" font-family="Arial, Helvetica, sans-serif" font-size="4" font-weight="600" fill="#0F172A">State</text>
  <line x1="106" y1="67" x2="106" y2="66" stroke="#475569" stroke-width="2" marker-end="url(#m-slate)"/>
  <rect x="72" y="72" width="68" height="17" rx="10" fill="#FFFFFF" stroke="#E2E8F0" stroke-width="1.8" filter="url(#sh)"/>
  <text x="106" y="80" text-anchor="middle" font-family="Arial, Helvetica, sans-serif" font-size="4" font-weight="600" fill="#0F172A">Plan Minimal</text>
  <text x="106" y="86" text-anchor="middle" font-family="Arial, Helvetica, sans-serif" font-size="4" font-weight="600" fill="#0F172A">Change</text>
  <line x1="106" y1="89" x2="106" y2="88" stroke="#475569" stroke-width="2" marker-end="url(#m-slate)"/>
  <rect x="77" y="94" width="59" height="17" rx="10" fill="#FFFFFF" stroke="#E2E8F0" stroke-width="1.8" filter="url(#sh)"/>
  <text x="106" y="105" text-anchor="middle" font-family="Arial, Helvetica, sans-serif" font-size="4" font-weight="600" fill="#0F172A">Implement Change</text>
  <line x1="106" y1="111" x2="106" y2="110" stroke="#475569" stroke-width="2" marker-end="url(#m-slate)"/>
  <rect x="74" y="116" width="65" height="17" rx="10" fill="#FFFFFF" stroke="#E2E8F0" stroke-width="1.8" filter="url(#sh)"/>
  <text x="106" y="127" text-anchor="middle" font-family="Arial, Helvetica, sans-serif" font-size="4" font-weight="600" fill="#0F172A">Test Functionality</text>
  <line x1="106" y1="133" x2="106" y2="132" stroke="#475569" stroke-width="2" marker-end="url(#m-slate)"/>
  <rect x="72" y="138" width="68" height="17" rx="10" fill="#FFFFFF" stroke="#E2E8F0" stroke-width="1.8" filter="url(#sh)"/>
  <text x="106" y="146" text-anchor="middle" font-family="Arial, Helvetica, sans-serif" font-size="4" font-weight="600" fill="#0F172A">Verify Security</text>
  <text x="106" y="152" text-anchor="middle" font-family="Arial, Helvetica, sans-serif" font-size="4" font-weight="600" fill="#0F172A">Fix</text>
  <line x1="106" y1="155" x2="106" y2="154" stroke="#475569" stroke-width="2" marker-end="url(#m-slate)"/>
  <rect x="77" y="160" width="59" height="17" rx="10" fill="#FFFFFF" stroke="#E2E8F0" stroke-width="1.8" filter="url(#sh)"/>
  <text x="106" y="171" text-anchor="middle" font-family="Arial, Helvetica, sans-serif" font-size="4" font-weight="600" fill="#0F172A">Document Results</text>
  <line x1="106" y1="177" x2="106" y2="176" stroke="#475569" stroke-width="2" marker-end="url(#m-slate)"/>
  <rect x="81" y="182" width="50" height="17" rx="10" fill="#FFFFFF" stroke="#E2E8F0" stroke-width="1.8" filter="url(#sh)"/>
  <text x="106" y="193" text-anchor="middle" font-family="Arial, Helvetica, sans-serif" font-size="4" font-weight="600" fill="#0F172A">Close Finding</text>
</svg>
