<svg xmlns="http://www.w3.org/2000/svg" viewBox="0 0 412 714" role="img" aria-label="Example Cleanup Workflow">
  <defs>
    <filter id="sh" x="-12%" y="-12%" width="124%" height="124%">
      <feDropShadow dx="0" dy="2" stdDeviation="2" flood-color="#0F172A" flood-opacity="0.1"/>
    </filter>
    <marker id="m-slate" viewBox="0 0 10 10" refX="9" refY="5" markerWidth="6" markerHeight="6" orient="auto">
      <path d="M1 2 L9 5 L1 8" fill="none" stroke="#475569" stroke-width="1.8" stroke-linecap="round"/>
    </marker>
  </defs>
  <rect width="412" height="714" fill="#F8FAFC"/>
  <text x="280" y="42" text-anchor="middle" font-family="Arial, Helvetica, sans-serif" font-size="15" font-weight="700" fill="#0F172A">Example Cleanup Workflow</text>
  <rect x="220" y="60" width="120" height="44" rx="10" fill="#FFFFFF" stroke="#E2E8F0" stroke-width="1.8" filter="url(#sh)"/>
  <text x="280" y="92" text-anchor="middle" font-family="Arial, Helvetica, sans-serif" font-size="12" font-weight="600" fill="#0F172A">User Review</text>
  <line x1="280" y1="104" x2="280" y2="114" stroke="#475569" stroke-width="2" marker-end="url(#m-slate)"/>
  <rect x="220" y="120" width="120" height="44" rx="10" fill="#FFFFFF" stroke="#E2E8F0" stroke-width="1.8" filter="url(#sh)"/>
  <text x="280" y="152" text-anchor="middle" font-family="Arial, Helvetica, sans-serif" font-size="12" font-weight="600" fill="#0F172A">Active?</text>
  <rect x="220" y="164" width="120" height="44" rx="10" fill="#FFFFFF" stroke="#E2E8F0" stroke-width="1.8" filter="url(#sh)"/>
  <text x="280" y="196" text-anchor="middle" font-family="Arial, Helvetica, sans-serif" font-size="12" font-weight="600" fill="#0F172A">┌───────────┐</text>
  <line x1="280" y1="208" x2="280" y2="220" stroke="#475569" stroke-width="2" marker-end="url(#m-slate)"/>
  <line x1="102" y1="234" x2="458" y2="234" stroke="#475569" stroke-width="2"/>
  <line x1="156" y1="234" x2="156" y2="248" stroke="#475569" stroke-width="2"/>
  <rect x="102" y="248" width="108" height="44" rx="10" fill="#FFFFFF" stroke="#E2E8F0" stroke-width="1.8" filter="url(#sh)"/>
  <text x="156" y="280" text-anchor="middle" font-family="Arial, Helvetica, sans-serif" font-size="12" font-weight="600" fill="#0F172A">│</text>
  <line x1="280" y1="234" x2="280" y2="248" stroke="#475569" stroke-width="2"/>
  <rect x="226" y="248" width="108" height="44" rx="10" fill="#FFFFFF" stroke="#E2E8F0" stroke-width="1.8" filter="url(#sh)"/>
  <text x="280" y="280" text-anchor="middle" font-family="Arial, Helvetica, sans-serif" font-size="12" font-weight="600" fill="#0F172A">Yes</text>
  <line x1="404" y1="234" x2="404" y2="248" stroke="#475569" stroke-width="2"/>
  <rect x="350" y="248" width="108" height="44" rx="10" fill="#FFFFFF" stroke="#E2E8F0" stroke-width="1.8" filter="url(#sh)"/>
  <text x="404" y="280" text-anchor="middle" font-family="Arial, Helvetica, sans-serif" font-size="12" font-weight="600" fill="#0F172A">│ → Keep</text>
  <rect x="220" y="304" width="120" height="44" rx="10" fill="#FFFFFF" stroke="#E2E8F0" stroke-width="1.8" filter="url(#sh)"/>
  <text x="280" y="336" text-anchor="middle" font-family="Arial, Helvetica, sans-serif" font-size="12" font-weight="600" fill="#0F172A">└───────────┘</text>
  <line x1="280" y1="348" x2="280" y2="358" stroke="#475569" stroke-width="2" marker-end="url(#m-slate)"/>
  <line x1="280" y1="364" x2="280" y2="376" stroke="#475569" stroke-width="2" marker-end="url(#m-slate)"/>
  <rect x="220" y="382" width="120" height="44" rx="10" fill="#FFFFFF" stroke="#E2E8F0" stroke-width="1.8" filter="url(#sh)"/>
  <text x="280" y="414" text-anchor="middle" font-family="Arial, Helvetica, sans-serif" font-size="12" font-weight="600" fill="#0F172A">┌───────────┐</text>
  <line x1="280" y1="426" x2="280" y2="438" stroke="#475569" stroke-width="2" marker-end="url(#m-slate)"/>
  <line x1="102" y1="452" x2="458" y2="452" stroke="#475569" stroke-width="2"/>
  <line x1="156" y1="452" x2="156" y2="466" stroke="#475569" stroke-width="2"/>
  <rect x="102" y="466" width="108" height="44" rx="10" fill="#FFFFFF" stroke="#E2E8F0" stroke-width="1.8" filter="url(#sh)"/>
  <text x="156" y="498" text-anchor="middle" font-family="Arial, Helvetica, sans-serif" font-size="12" font-weight="600" fill="#0F172A">│</text>
  <line x1="280" y1="452" x2="280" y2="466" stroke="#475569" stroke-width="2"/>
  <rect x="226" y="466" width="108" height="44" rx="10" fill="#FFFFFF" stroke="#E2E8F0" stroke-width="1.8" filter="url(#sh)"/>
  <text x="280" y="498" text-anchor="middle" font-family="Arial, Helvetica, sans-serif" font-size="12" font-weight="600" fill="#0F172A">No</text>
  <line x1="404" y1="452" x2="404" y2="466" stroke="#475569" stroke-width="2"/>
  <rect x="350" y="466" width="108" height="44" rx="10" fill="#FFFFFF" stroke="#E2E8F0" stroke-width="1.8" filter="url(#sh)"/>
  <text x="404" y="498" text-anchor="middle" font-family="Arial, Helvetica, sans-serif" font-size="12" font-weight="600" fill="#0F172A">│</text>
  <rect x="220" y="522" width="120" height="44" rx="10" fill="#FFFFFF" stroke="#E2E8F0" stroke-width="1.8" filter="url(#sh)"/>
  <text x="280" y="554" text-anchor="middle" font-family="Arial, Helvetica, sans-serif" font-size="12" font-weight="600" fill="#0F172A">└───────────┘</text>
  <line x1="280" y1="566" x2="280" y2="576" stroke="#475569" stroke-width="2" marker-end="url(#m-slate)"/>
  <rect x="220" y="582" width="120" height="44" rx="10" fill="#FFFFFF" stroke="#E2E8F0" stroke-width="1.8" filter="url(#sh)"/>
  <text x="280" y="614" text-anchor="middle" font-family="Arial, Helvetica, sans-serif" font-size="12" font-weight="600" fill="#0F172A">Disable</text>
  <line x1="280" y1="626" x2="280" y2="636" stroke="#475569" stroke-width="2" marker-end="url(#m-slate)"/>
  <rect x="220" y="642" width="120" height="44" rx="10" fill="#FFFFFF" stroke="#E2E8F0" stroke-width="1.8" filter="url(#sh)"/>
  <text x="280" y="674" text-anchor="middle" font-family="Arial, Helvetica, sans-serif" font-size="12" font-weight="600" fill="#0F172A">Delete</text>
</svg>
