<svg xmlns="http://www.w3.org/2000/svg" viewBox="0 0 284 283" width="220" height="219" role="img" aria-label="Castle-and-Moat Security">
  <defs>
    <filter id="sh" x="-12%" y="-12%" width="124%" height="124%">
      <feDropShadow dx="0" dy="2" stdDeviation="2" flood-color="#0F172A" flood-opacity="0.1"/>
    </filter>
    <marker id="m-slate" viewBox="0 0 10 10" refX="9" refY="5" markerWidth="6" markerHeight="6" orient="auto">
      <path d="M1 2 L9 5 L1 8" fill="none" stroke="#475569" stroke-width="1.8" stroke-linecap="round"/>
    </marker>
  </defs>
  <rect width="284" height="283" fill="#F8FAFC"/>
  <text x="211" y="30" text-anchor="middle" font-family="Arial, Helvetica, sans-serif" font-size="11" font-weight="700" fill="#0F172A">Castle-and-Moat Security</text>
  <rect x="165" y="44" width="92" height="33" rx="10" fill="#FFFFFF" stroke="#E2E8F0" stroke-width="1.8" filter="url(#sh)"/>
  <text x="211" y="66" text-anchor="middle" font-family="Arial, Helvetica, sans-serif" font-size="9" font-weight="600" fill="#0F172A">Internet</text>
  <rect x="165" y="77" width="92" height="33" rx="10" fill="#FFFFFF" stroke="#E2E8F0" stroke-width="1.8" filter="url(#sh)"/>
  <text x="211" y="99" text-anchor="middle" font-family="Arial, Helvetica, sans-serif" font-size="9" font-weight="600" fill="#0F172A">Firewall</text>
  <line x1="211" y1="110" x2="211" y2="116" stroke="#475569" stroke-width="2" marker-end="url(#m-slate)"/>
  <line x1="111" y1="127" x2="312" y2="127" stroke="#475569" stroke-width="2"/>
  <line x1="164" y1="127" x2="164" y2="138" stroke="#475569" stroke-width="2"/>
  <rect x="111" y="138" width="106" height="33" rx="10" fill="#FFFFFF" stroke="#E2E8F0" stroke-width="1.8" filter="url(#sh)"/>
  <text x="164" y="160" text-anchor="middle" font-family="Arial, Helvetica, sans-serif" font-size="9" font-weight="600" fill="#0F172A">| Company Network</text>
  <line x1="270" y1="127" x2="270" y2="138" stroke="#475569" stroke-width="2"/>
  <rect x="228" y="138" width="84" height="33" rx="10" fill="#FFFFFF" stroke="#E2E8F0" stroke-width="1.8" filter="url(#sh)"/>
  <text x="270" y="160" text-anchor="middle" font-family="Arial, Helvetica, sans-serif" font-size="9" font-weight="600" fill="#0F172A">|</text>
  <rect x="132" y="180" width="74" height="33" rx="10" fill="#ECFDF5" stroke="#86EFAC" stroke-width="1.8" filter="url(#sh)"/>
  <text x="169" y="202" text-anchor="middle" font-family="Arial, Helvetica, sans-serif" font-size="9" font-weight="600" fill="#0F172A">| Servers</text>
  <rect x="217" y="180" width="74" height="33" rx="10" fill="#ECFDF5" stroke="#86EFAC" stroke-width="1.8" filter="url(#sh)"/>
  <text x="254" y="202" text-anchor="middle" font-family="Arial, Helvetica, sans-serif" font-size="9" font-weight="600" fill="#0F172A">|</text>
  <rect x="131" y="222" width="76" height="33" rx="10" fill="#EFF6FF" stroke="#93C5FD" stroke-width="1.8" filter="url(#sh)"/>
  <text x="169" y="244" text-anchor="middle" font-family="Arial, Helvetica, sans-serif" font-size="9" font-weight="600" fill="#0F172A">| Employees</text>
  <rect x="218" y="222" width="74" height="33" rx="10" fill="#EFF6FF" stroke="#93C5FD" stroke-width="1.8" filter="url(#sh)"/>
  <text x="255" y="244" text-anchor="middle" font-family="Arial, Helvetica, sans-serif" font-size="9" font-weight="600" fill="#0F172A">|</text>
</svg>
