<svg xmlns="http://www.w3.org/2000/svg" viewBox="0 0 144 230" width="144" height="230" role="img" aria-label="Security Hub Architecture">
  <defs>
    <filter id="sh" x="-12%" y="-12%" width="124%" height="124%">
      <feDropShadow dx="0" dy="2" stdDeviation="2" flood-color="#0F172A" flood-opacity="0.1"/>
    </filter>
    <marker id="m-slate" viewBox="0 0 10 10" refX="9" refY="5" markerWidth="6" markerHeight="6" orient="auto">
      <path d="M1 2 L9 5 L1 8" fill="none" stroke="#475569" stroke-width="1.8" stroke-linecap="round"/>
    </marker>
  </defs>
  <rect width="144" height="230" fill="#F8FAFC"/>
  <text x="106" y="15" text-anchor="middle" font-family="Arial, Helvetica, sans-serif" font-size="5" font-weight="700" fill="#0F172A">Security Hub Architecture</text>
  <rect x="81" y="22" width="50" height="17" rx="10" fill="#FFFFFF" stroke="#E2E8F0" stroke-width="1.8" filter="url(#sh)"/>
  <text x="106" y="33" text-anchor="middle" font-family="Arial, Helvetica, sans-serif" font-size="4" font-weight="600" fill="#0F172A">AWS Resources</text>
  <line x1="106" y1="39" x2="106" y2="38" stroke="#475569" stroke-width="2" marker-end="url(#m-slate)"/>
  <line x1="106" y1="44" x2="106" y2="44" stroke="#475569" stroke-width="2" marker-end="url(#m-slate)"/>
  <rect x="75" y="50" width="62" height="17" rx="10" fill="#FFFFFF" stroke="#E2E8F0" stroke-width="1.8" filter="url(#sh)"/>
  <text x="106" y="61" text-anchor="middle" font-family="Arial, Helvetica, sans-serif" font-size="4" font-weight="600" fill="#0F172A">Security Controls</text>
  <line x1="106" y1="67" x2="106" y2="66" stroke="#475569" stroke-width="2" marker-end="url(#m-slate)"/>
  <line x1="106" y1="72" x2="106" y2="72" stroke="#475569" stroke-width="2" marker-end="url(#m-slate)"/>
  <rect x="74" y="78" width="65" height="31" rx="12" fill="#FFFFFF" stroke="#E2E8F0" stroke-width="2" filter="url(#sh)"/>
  <text x="106" y="88" text-anchor="middle" font-family="Arial, Helvetica, sans-serif" font-size="5" font-weight="700" fill="#2563EB">AWS Services</text>
  <text x="83" y="101" font-family="Arial, Helvetica, sans-serif" font-size="4" fill="#0F172A">• (GuardDuty, Inspector,</text>
  <text x="83" y="109" font-family="Arial, Helvetica, sans-serif" font-size="4" fill="#0F172A">• Config, Access Analyzer)</text>
  <rect x="80" y="113" width="53" height="23" rx="10" fill="#FFFFFF" stroke="#E2E8F0" stroke-width="1.8" filter="url(#sh)"/>
  <text x="106" y="124" text-anchor="middle" font-family="Arial, Helvetica, sans-serif" font-size="4" font-weight="600" fill="#0F172A">Config, Access</text>
  <text x="106" y="130" text-anchor="middle" font-family="Arial, Helvetica, sans-serif" font-size="4" font-weight="600" fill="#0F172A">Analyzer)</text>
  <line x1="106" y1="136" x2="106" y2="135" stroke="#475569" stroke-width="2" marker-end="url(#m-slate)"/>
  <line x1="106" y1="141" x2="106" y2="141" stroke="#475569" stroke-width="2" marker-end="url(#m-slate)"/>
  <rect x="83" y="147" width="47" height="17" rx="10" fill="#FFFFFF" stroke="#E2E8F0" stroke-width="1.8" filter="url(#sh)"/>
  <text x="106" y="158" text-anchor="middle" font-family="Arial, Helvetica, sans-serif" font-size="4" font-weight="600" fill="#0F172A">Security Hub</text>
  <line x1="106" y1="164" x2="106" y2="163" stroke="#475569" stroke-width="2" marker-end="url(#m-slate)"/>
  <line x1="106" y1="169" x2="106" y2="169" stroke="#475569" stroke-width="2" marker-end="url(#m-slate)"/>
  <rect x="74" y="175" width="65" height="17" rx="10" fill="#FFFFFF" stroke="#E2E8F0" stroke-width="1.8" filter="url(#sh)"/>
  <text x="106" y="186" text-anchor="middle" font-family="Arial, Helvetica, sans-serif" font-size="4" font-weight="600" fill="#0F172A">Findings Dashboard</text>
  <line x1="106" y1="192" x2="106" y2="191" stroke="#475569" stroke-width="2" marker-end="url(#m-slate)"/>
  <line x1="106" y1="197" x2="106" y2="197" stroke="#475569" stroke-width="2" marker-end="url(#m-slate)"/>
  <rect x="81" y="203" width="50" height="17" rx="10" fill="#FFFFFF" stroke="#E2E8F0" stroke-width="1.8" filter="url(#sh)"/>
  <text x="106" y="214" text-anchor="middle" font-family="Arial, Helvetica, sans-serif" font-size="4" font-weight="600" fill="#0F172A">Security Team</text>
</svg>
