<svg xmlns="http://www.w3.org/2000/svg" viewBox="0 0 284 369" width="284" height="369" role="img" aria-label="How GuardDuty Works">
  <defs>
    <filter id="sh" x="-12%" y="-12%" width="124%" height="124%">
      <feDropShadow dx="0" dy="2" stdDeviation="2" flood-color="#0F172A" flood-opacity="0.1"/>
    </filter>
    <marker id="m-slate" viewBox="0 0 10 10" refX="9" refY="5" markerWidth="6" markerHeight="6" orient="auto">
      <path d="M1 2 L9 5 L1 8" fill="none" stroke="#475569" stroke-width="1.8" stroke-linecap="round"/>
    </marker>
  </defs>
  <rect width="284" height="369" fill="#F8FAFC"/>
  <text x="211" y="30" text-anchor="middle" font-family="Arial, Helvetica, sans-serif" font-size="11" font-weight="700" fill="#0F172A">How GuardDuty Works</text>
  <rect x="165" y="44" width="92" height="33" rx="10" fill="#FFFFFF" stroke="#E2E8F0" stroke-width="1.8" filter="url(#sh)"/>
  <text x="211" y="66" text-anchor="middle" font-family="Arial, Helvetica, sans-serif" font-size="9" font-weight="600" fill="#0F172A">AWS Activity</text>
  <line x1="211" y1="77" x2="211" y2="82" stroke="#475569" stroke-width="2" marker-end="url(#m-slate)"/>
  <line x1="211" y1="88" x2="211" y2="94" stroke="#475569" stroke-width="2" marker-end="url(#m-slate)"/>
  <rect x="165" y="100" width="92" height="33" rx="10" fill="#FFFFFF" stroke="#E2E8F0" stroke-width="1.8" filter="url(#sh)"/>
  <text x="211" y="122" text-anchor="middle" font-family="Arial, Helvetica, sans-serif" font-size="9" font-weight="600" fill="#0F172A">Log Collection</text>
  <line x1="211" y1="133" x2="211" y2="138" stroke="#475569" stroke-width="2" marker-end="url(#m-slate)"/>
  <line x1="211" y1="144" x2="211" y2="150" stroke="#475569" stroke-width="2" marker-end="url(#m-slate)"/>
  <rect x="141" y="156" width="140" height="96" rx="12" fill="#FFFFFF" stroke="#E2E8F0" stroke-width="2" filter="url(#sh)"/>
  <text x="211" y="177" text-anchor="middle" font-family="Arial, Helvetica, sans-serif" font-size="10" font-weight="700" fill="#2563EB">Threat Intelligence</text>
  <text x="158" y="202" font-family="Arial, Helvetica, sans-serif" font-size="9" fill="#0F172A">• +</text>
  <text x="158" y="218" font-family="Arial, Helvetica, sans-serif" font-size="9" fill="#0F172A">• Behavior Analytics</text>
  <text x="158" y="234" font-family="Arial, Helvetica, sans-serif" font-size="9" fill="#0F172A">• +</text>
  <text x="158" y="250" font-family="Arial, Helvetica, sans-serif" font-size="9" fill="#0F172A">• Machine Learning</text>
  <rect x="161" y="261" width="101" height="33" rx="10" fill="#FFFFFF" stroke="#E2E8F0" stroke-width="1.8" filter="url(#sh)"/>
  <text x="211" y="283" text-anchor="middle" font-family="Arial, Helvetica, sans-serif" font-size="9" font-weight="600" fill="#0F172A">Machine Learning</text>
  <line x1="211" y1="294" x2="211" y2="299" stroke="#475569" stroke-width="2" marker-end="url(#m-slate)"/>
  <line x1="211" y1="305" x2="211" y2="311" stroke="#475569" stroke-width="2" marker-end="url(#m-slate)"/>
  <rect x="156" y="317" width="111" height="33" rx="10" fill="#FFFFFF" stroke="#E2E8F0" stroke-width="1.8" filter="url(#sh)"/>
  <text x="211" y="339" text-anchor="middle" font-family="Arial, Helvetica, sans-serif" font-size="9" font-weight="600" fill="#0F172A">GuardDuty Findings</text>
</svg>
