<svg xmlns="http://www.w3.org/2000/svg" viewBox="0 0 284 422" width="220" height="327" role="img" aria-label="Whiteboard Diagram">
  <defs>
    <filter id="sh" x="-12%" y="-12%" width="124%" height="124%">
      <feDropShadow dx="0" dy="2" stdDeviation="2" flood-color="#0F172A" flood-opacity="0.1"/>
    </filter>
    <marker id="m-slate" viewBox="0 0 10 10" refX="9" refY="5" markerWidth="6" markerHeight="6" orient="auto">
      <path d="M1 2 L9 5 L1 8" fill="none" stroke="#475569" stroke-width="1.8" stroke-linecap="round"/>
    </marker>
  </defs>
  <rect width="284" height="422" fill="#F8FAFC"/>
  <text x="211" y="30" text-anchor="middle" font-family="Arial, Helvetica, sans-serif" font-size="11" font-weight="700" fill="#0F172A">Diagram</text>
  <rect x="165" y="44" width="92" height="33" rx="10" fill="#FFFFFF" stroke="#E2E8F0" stroke-width="1.8" filter="url(#sh)"/>
  <text x="211" y="66" text-anchor="middle" font-family="Arial, Helvetica, sans-serif" font-size="9" font-weight="600" fill="#0F172A">Traditional</text>
  <rect x="165" y="77" width="92" height="33" rx="10" fill="#FFFFFF" stroke="#E2E8F0" stroke-width="1.8" filter="url(#sh)"/>
  <text x="211" y="99" text-anchor="middle" font-family="Arial, Helvetica, sans-serif" font-size="9" font-weight="600" fill="#0F172A">Firewall</text>
  <line x1="211" y1="110" x2="211" y2="115" stroke="#475569" stroke-width="2" marker-end="url(#m-slate)"/>
  <rect x="163" y="121" width="96" height="33" rx="10" fill="#FFFFFF" stroke="#E2E8F0" stroke-width="1.8" filter="url(#sh)"/>
  <text x="211" y="143" text-anchor="middle" font-family="Arial, Helvetica, sans-serif" font-size="9" font-weight="600" fill="#0F172A">Company Network</text>
  <line x1="211" y1="154" x2="211" y2="159" stroke="#475569" stroke-width="2" marker-end="url(#m-slate)"/>
  <rect x="162" y="165" width="98" height="64" rx="12" fill="#FFFFFF" stroke="#E2E8F0" stroke-width="2" filter="url(#sh)"/>
  <text x="211" y="186" text-anchor="middle" font-family="Arial, Helvetica, sans-serif" font-size="10" font-weight="700" fill="#2563EB">Trust</text>
  <text x="179" y="211" font-family="Arial, Helvetica, sans-serif" font-size="9" fill="#0F172A">• Modern</text>
  <text x="179" y="227" font-family="Arial, Helvetica, sans-serif" font-size="9" fill="#0F172A">• Identity</text>
  <rect x="165" y="238" width="92" height="33" rx="10" fill="#FFFFFF" stroke="#E2E8F0" stroke-width="1.8" filter="url(#sh)"/>
  <text x="211" y="260" text-anchor="middle" font-family="Arial, Helvetica, sans-serif" font-size="9" font-weight="600" fill="#0F172A">Identity</text>
  <line x1="211" y1="271" x2="211" y2="276" stroke="#475569" stroke-width="2" marker-end="url(#m-slate)"/>
  <rect x="165" y="282" width="92" height="33" rx="10" fill="#FFFFFF" stroke="#E2E8F0" stroke-width="1.8" filter="url(#sh)"/>
  <text x="211" y="304" text-anchor="middle" font-family="Arial, Helvetica, sans-serif" font-size="9" font-weight="600" fill="#0F172A">Authentication</text>
  <line x1="211" y1="315" x2="211" y2="320" stroke="#475569" stroke-width="2" marker-end="url(#m-slate)"/>
  <rect x="165" y="326" width="92" height="33" rx="10" fill="#FFFFFF" stroke="#E2E8F0" stroke-width="1.8" filter="url(#sh)"/>
  <text x="211" y="348" text-anchor="middle" font-family="Arial, Helvetica, sans-serif" font-size="9" font-weight="600" fill="#0F172A">Authorization</text>
  <line x1="211" y1="359" x2="211" y2="364" stroke="#475569" stroke-width="2" marker-end="url(#m-slate)"/>
  <rect x="165" y="370" width="92" height="33" rx="10" fill="#FFFFFF" stroke="#E2E8F0" stroke-width="1.8" filter="url(#sh)"/>
  <text x="211" y="392" text-anchor="middle" font-family="Arial, Helvetica, sans-serif" font-size="9" font-weight="600" fill="#0F172A">Access</text>
</svg>
