<svg xmlns="http://www.w3.org/2000/svg" viewBox="0 0 312 523" width="220" height="369" role="img" aria-label="Example Cleanup Workflow">
  <defs>
    <filter id="sh" x="-12%" y="-12%" width="124%" height="124%">
      <feDropShadow dx="0" dy="2" stdDeviation="2" flood-color="#0F172A" flood-opacity="0.1"/>
    </filter>
    <marker id="m-slate" viewBox="0 0 10 10" refX="9" refY="5" markerWidth="6" markerHeight="6" orient="auto">
      <path d="M1 2 L9 5 L1 8" fill="none" stroke="#475569" stroke-width="1.8" stroke-linecap="round"/>
    </marker>
  </defs>
  <rect width="312" height="523" fill="#F8FAFC"/>
  <text x="211" y="30" text-anchor="middle" font-family="Arial, Helvetica, sans-serif" font-size="11" font-weight="700" fill="#0F172A">Example Cleanup Workflow</text>
  <rect x="165" y="44" width="92" height="33" rx="10" fill="#FFFFFF" stroke="#E2E8F0" stroke-width="1.8" filter="url(#sh)"/>
  <text x="211" y="66" text-anchor="middle" font-family="Arial, Helvetica, sans-serif" font-size="9" font-weight="600" fill="#0F172A">User Review</text>
  <line x1="211" y1="77" x2="211" y2="82" stroke="#475569" stroke-width="2" marker-end="url(#m-slate)"/>
  <rect x="165" y="88" width="92" height="33" rx="10" fill="#FFFFFF" stroke="#E2E8F0" stroke-width="1.8" filter="url(#sh)"/>
  <text x="211" y="110" text-anchor="middle" font-family="Arial, Helvetica, sans-serif" font-size="9" font-weight="600" fill="#0F172A">Active?</text>
  <rect x="165" y="121" width="92" height="33" rx="10" fill="#FFFFFF" stroke="#E2E8F0" stroke-width="1.8" filter="url(#sh)"/>
  <text x="211" y="143" text-anchor="middle" font-family="Arial, Helvetica, sans-serif" font-size="9" font-weight="600" fill="#0F172A">┌───────────┐</text>
  <line x1="211" y1="154" x2="211" y2="160" stroke="#475569" stroke-width="2" marker-end="url(#m-slate)"/>
  <line x1="74" y1="171" x2="348" y2="171" stroke="#475569" stroke-width="2"/>
  <line x1="116" y1="171" x2="116" y2="182" stroke="#475569" stroke-width="2"/>
  <rect x="74" y="182" width="84" height="33" rx="10" fill="#FFFFFF" stroke="#E2E8F0" stroke-width="1.8" filter="url(#sh)"/>
  <text x="116" y="204" text-anchor="middle" font-family="Arial, Helvetica, sans-serif" font-size="9" font-weight="600" fill="#0F172A">│</text>
  <line x1="211" y1="171" x2="211" y2="182" stroke="#475569" stroke-width="2"/>
  <rect x="169" y="182" width="84" height="33" rx="10" fill="#FFFFFF" stroke="#E2E8F0" stroke-width="1.8" filter="url(#sh)"/>
  <text x="211" y="204" text-anchor="middle" font-family="Arial, Helvetica, sans-serif" font-size="9" font-weight="600" fill="#0F172A">Yes</text>
  <line x1="306" y1="171" x2="306" y2="182" stroke="#475569" stroke-width="2"/>
  <rect x="264" y="182" width="84" height="33" rx="10" fill="#FFFFFF" stroke="#E2E8F0" stroke-width="1.8" filter="url(#sh)"/>
  <text x="306" y="204" text-anchor="middle" font-family="Arial, Helvetica, sans-serif" font-size="9" font-weight="600" fill="#0F172A">│ → Keep</text>
  <rect x="165" y="224" width="92" height="33" rx="10" fill="#FFFFFF" stroke="#E2E8F0" stroke-width="1.8" filter="url(#sh)"/>
  <text x="211" y="246" text-anchor="middle" font-family="Arial, Helvetica, sans-serif" font-size="9" font-weight="600" fill="#0F172A">└───────────┘</text>
  <line x1="211" y1="257" x2="211" y2="262" stroke="#475569" stroke-width="2" marker-end="url(#m-slate)"/>
  <line x1="211" y1="268" x2="211" y2="274" stroke="#475569" stroke-width="2" marker-end="url(#m-slate)"/>
  <rect x="165" y="280" width="92" height="33" rx="10" fill="#FFFFFF" stroke="#E2E8F0" stroke-width="1.8" filter="url(#sh)"/>
  <text x="211" y="302" text-anchor="middle" font-family="Arial, Helvetica, sans-serif" font-size="9" font-weight="600" fill="#0F172A">┌───────────┐</text>
  <line x1="211" y1="313" x2="211" y2="319" stroke="#475569" stroke-width="2" marker-end="url(#m-slate)"/>
  <line x1="74" y1="330" x2="348" y2="330" stroke="#475569" stroke-width="2"/>
  <line x1="116" y1="330" x2="116" y2="341" stroke="#475569" stroke-width="2"/>
  <rect x="74" y="341" width="84" height="33" rx="10" fill="#FFFFFF" stroke="#E2E8F0" stroke-width="1.8" filter="url(#sh)"/>
  <text x="116" y="363" text-anchor="middle" font-family="Arial, Helvetica, sans-serif" font-size="9" font-weight="600" fill="#0F172A">│</text>
  <line x1="211" y1="330" x2="211" y2="341" stroke="#475569" stroke-width="2"/>
  <rect x="169" y="341" width="84" height="33" rx="10" fill="#FFFFFF" stroke="#E2E8F0" stroke-width="1.8" filter="url(#sh)"/>
  <text x="211" y="363" text-anchor="middle" font-family="Arial, Helvetica, sans-serif" font-size="9" font-weight="600" fill="#0F172A">No</text>
  <line x1="306" y1="330" x2="306" y2="341" stroke="#475569" stroke-width="2"/>
  <rect x="264" y="341" width="84" height="33" rx="10" fill="#FFFFFF" stroke="#E2E8F0" stroke-width="1.8" filter="url(#sh)"/>
  <text x="306" y="363" text-anchor="middle" font-family="Arial, Helvetica, sans-serif" font-size="9" font-weight="600" fill="#0F172A">│</text>
  <rect x="165" y="383" width="92" height="33" rx="10" fill="#FFFFFF" stroke="#E2E8F0" stroke-width="1.8" filter="url(#sh)"/>
  <text x="211" y="405" text-anchor="middle" font-family="Arial, Helvetica, sans-serif" font-size="9" font-weight="600" fill="#0F172A">└───────────┘</text>
  <line x1="211" y1="416" x2="211" y2="421" stroke="#475569" stroke-width="2" marker-end="url(#m-slate)"/>
  <rect x="165" y="427" width="92" height="33" rx="10" fill="#FFFFFF" stroke="#E2E8F0" stroke-width="1.8" filter="url(#sh)"/>
  <text x="211" y="449" text-anchor="middle" font-family="Arial, Helvetica, sans-serif" font-size="9" font-weight="600" fill="#0F172A">Disable</text>
  <line x1="211" y1="460" x2="211" y2="465" stroke="#475569" stroke-width="2" marker-end="url(#m-slate)"/>
  <rect x="165" y="471" width="92" height="33" rx="10" fill="#FFFFFF" stroke="#E2E8F0" stroke-width="1.8" filter="url(#sh)"/>
  <text x="211" y="493" text-anchor="middle" font-family="Arial, Helvetica, sans-serif" font-size="9" font-weight="600" fill="#0F172A">Delete</text>
</svg>
