<svg xmlns="http://www.w3.org/2000/svg" viewBox="0 0 144 211" width="144" height="211" role="img" aria-label="Whiteboard Diagram">
  <defs>
    <filter id="sh" x="-12%" y="-12%" width="124%" height="124%">
      <feDropShadow dx="0" dy="2" stdDeviation="2" flood-color="#0F172A" flood-opacity="0.1"/>
    </filter>
    <marker id="m-slate" viewBox="0 0 10 10" refX="9" refY="5" markerWidth="6" markerHeight="6" orient="auto">
      <path d="M1 2 L9 5 L1 8" fill="none" stroke="#475569" stroke-width="1.8" stroke-linecap="round"/>
    </marker>
  </defs>
  <rect width="144" height="211" fill="#F8FAFC"/>
  <text x="106" y="15" text-anchor="middle" font-family="Arial, Helvetica, sans-serif" font-size="5" font-weight="700" fill="#0F172A">Diagram</text>
  <rect x="83" y="22" width="46" height="17" rx="10" fill="#FFFFFF" stroke="#E2E8F0" stroke-width="1.8" filter="url(#sh)"/>
  <text x="106" y="33" text-anchor="middle" font-family="Arial, Helvetica, sans-serif" font-size="4" font-weight="600" fill="#0F172A">Traditional</text>
  <rect x="83" y="39" width="46" height="17" rx="10" fill="#FFFFFF" stroke="#E2E8F0" stroke-width="1.8" filter="url(#sh)"/>
  <text x="106" y="50" text-anchor="middle" font-family="Arial, Helvetica, sans-serif" font-size="4" font-weight="600" fill="#0F172A">Firewall</text>
  <line x1="106" y1="56" x2="106" y2="55" stroke="#475569" stroke-width="2" marker-end="url(#m-slate)"/>
  <rect x="78" y="61" width="56" height="17" rx="10" fill="#FFFFFF" stroke="#E2E8F0" stroke-width="1.8" filter="url(#sh)"/>
  <text x="106" y="72" text-anchor="middle" font-family="Arial, Helvetica, sans-serif" font-size="4" font-weight="600" fill="#0F172A">Company Network</text>
  <line x1="106" y1="78" x2="106" y2="77" stroke="#475569" stroke-width="2" marker-end="url(#m-slate)"/>
  <rect x="82" y="83" width="49" height="31" rx="12" fill="#FFFFFF" stroke="#E2E8F0" stroke-width="2" filter="url(#sh)"/>
  <text x="106" y="93" text-anchor="middle" font-family="Arial, Helvetica, sans-serif" font-size="5" font-weight="700" fill="#2563EB">Trust</text>
  <text x="91" y="106" font-family="Arial, Helvetica, sans-serif" font-size="4" fill="#0F172A">• Modern</text>
  <text x="91" y="114" font-family="Arial, Helvetica, sans-serif" font-size="4" fill="#0F172A">• Identity</text>
  <rect x="83" y="118" width="46" height="17" rx="10" fill="#FFFFFF" stroke="#E2E8F0" stroke-width="1.8" filter="url(#sh)"/>
  <text x="106" y="129" text-anchor="middle" font-family="Arial, Helvetica, sans-serif" font-size="4" font-weight="600" fill="#0F172A">Identity</text>
  <line x1="106" y1="135" x2="106" y2="134" stroke="#475569" stroke-width="2" marker-end="url(#m-slate)"/>
  <rect x="80" y="140" width="53" height="17" rx="10" fill="#FFFFFF" stroke="#E2E8F0" stroke-width="1.8" filter="url(#sh)"/>
  <text x="106" y="151" text-anchor="middle" font-family="Arial, Helvetica, sans-serif" font-size="4" font-weight="600" fill="#0F172A">Authentication</text>
  <line x1="106" y1="157" x2="106" y2="156" stroke="#475569" stroke-width="2" marker-end="url(#m-slate)"/>
  <rect x="81" y="162" width="50" height="17" rx="10" fill="#FFFFFF" stroke="#E2E8F0" stroke-width="1.8" filter="url(#sh)"/>
  <text x="106" y="173" text-anchor="middle" font-family="Arial, Helvetica, sans-serif" font-size="4" font-weight="600" fill="#0F172A">Authorization</text>
  <line x1="106" y1="179" x2="106" y2="178" stroke="#475569" stroke-width="2" marker-end="url(#m-slate)"/>
  <rect x="83" y="184" width="46" height="17" rx="10" fill="#FFFFFF" stroke="#E2E8F0" stroke-width="1.8" filter="url(#sh)"/>
  <text x="106" y="195" text-anchor="middle" font-family="Arial, Helvetica, sans-serif" font-size="4" font-weight="600" fill="#0F172A">Access</text>
</svg>
