<svg xmlns="http://www.w3.org/2000/svg" viewBox="0 0 376 508" role="img" aria-label="Whiteboard Diagram">
  <defs>
    <filter id="sh" x="-12%" y="-12%" width="124%" height="124%">
      <feDropShadow dx="0" dy="2" stdDeviation="2" flood-color="#0F172A" flood-opacity="0.1"/>
    </filter>
    <marker id="m-slate" viewBox="0 0 10 10" refX="9" refY="5" markerWidth="6" markerHeight="6" orient="auto">
      <path d="M1 2 L9 5 L1 8" fill="none" stroke="#475569" stroke-width="1.8" stroke-linecap="round"/>
    </marker>
  </defs>
  <rect width="376" height="508" fill="#F8FAFC"/>
  <text x="280" y="42" text-anchor="middle" font-family="Arial, Helvetica, sans-serif" font-size="15" font-weight="700" fill="#0F172A">Diagram</text>
  <rect x="220" y="60" width="120" height="44" rx="10" fill="#FFFFFF" stroke="#E2E8F0" stroke-width="1.8" filter="url(#sh)"/>
  <text x="280" y="92" text-anchor="middle" font-family="Arial, Helvetica, sans-serif" font-size="12" font-weight="600" fill="#0F172A">/</text>
  <line x1="280" y1="104" x2="280" y2="116" stroke="#475569" stroke-width="2" marker-end="url(#m-slate)"/>
  <line x1="164" y1="130" x2="396" y2="130" stroke="#475569" stroke-width="2"/>
  <line x1="218" y1="130" x2="218" y2="144" stroke="#475569" stroke-width="2"/>
  <rect x="164" y="144" width="108" height="44" rx="10" fill="#FFFFFF" stroke="#E2E8F0" stroke-width="1.8" filter="url(#sh)"/>
  <text x="218" y="176" text-anchor="middle" font-family="Arial, Helvetica, sans-serif" font-size="12" font-weight="600" fill="#0F172A">├── etc</text>
  <line x1="342" y1="130" x2="342" y2="144" stroke="#475569" stroke-width="2"/>
  <rect x="288" y="144" width="108" height="44" rx="10" fill="#FFFFFF" stroke="#E2E8F0" stroke-width="1.8" filter="url(#sh)"/>
  <text x="342" y="176" text-anchor="middle" font-family="Arial, Helvetica, sans-serif" font-size="12" font-weight="600" fill="#0F172A">(Config)</text>
  <rect x="177" y="200" width="96" height="44" rx="10" fill="#ECFDF5" stroke="#86EFAC" stroke-width="1.8" filter="url(#sh)"/>
  <text x="225" y="232" text-anchor="middle" font-family="Arial, Helvetica, sans-serif" font-size="12" font-weight="600" fill="#0F172A">├── home</text>
  <rect x="287" y="200" width="96" height="44" rx="10" fill="#ECFDF5" stroke="#86EFAC" stroke-width="1.8" filter="url(#sh)"/>
  <text x="335" y="232" text-anchor="middle" font-family="Arial, Helvetica, sans-serif" font-size="12" font-weight="600" fill="#0F172A">(Users)</text>
  <rect x="177" y="256" width="96" height="44" rx="10" fill="#EFF6FF" stroke="#93C5FD" stroke-width="1.8" filter="url(#sh)"/>
  <text x="225" y="288" text-anchor="middle" font-family="Arial, Helvetica, sans-serif" font-size="12" font-weight="600" fill="#0F172A">├── var</text>
  <rect x="287" y="256" width="96" height="44" rx="10" fill="#EFF6FF" stroke="#93C5FD" stroke-width="1.8" filter="url(#sh)"/>
  <text x="335" y="288" text-anchor="middle" font-family="Arial, Helvetica, sans-serif" font-size="12" font-weight="600" fill="#0F172A">(Logs)</text>
  <rect x="152" y="312" width="96" height="44" rx="10" fill="#ECFDF5" stroke="#86EFAC" stroke-width="1.8" filter="url(#sh)"/>
  <text x="200" y="344" text-anchor="middle" font-family="Arial, Helvetica, sans-serif" font-size="12" font-weight="600" fill="#0F172A">├── tmp</text>
  <rect x="262" y="312" width="147" height="44" rx="10" fill="#ECFDF5" stroke="#86EFAC" stroke-width="1.8" filter="url(#sh)"/>
  <text x="335" y="344" text-anchor="middle" font-family="Arial, Helvetica, sans-serif" font-size="12" font-weight="600" fill="#0F172A">(Temporary Files)</text>
  <rect x="173" y="368" width="96" height="44" rx="10" fill="#EFF6FF" stroke="#93C5FD" stroke-width="1.8" filter="url(#sh)"/>
  <text x="221" y="400" text-anchor="middle" font-family="Arial, Helvetica, sans-serif" font-size="12" font-weight="600" fill="#0F172A">├── proc</text>
  <rect x="283" y="368" width="105" height="44" rx="10" fill="#EFF6FF" stroke="#93C5FD" stroke-width="1.8" filter="url(#sh)"/>
  <text x="335" y="400" text-anchor="middle" font-family="Arial, Helvetica, sans-serif" font-size="12" font-weight="600" fill="#0F172A">(Processes)</text>
  <rect x="159" y="424" width="96" height="44" rx="10" fill="#ECFDF5" stroke="#86EFAC" stroke-width="1.8" filter="url(#sh)"/>
  <text x="207" y="456" text-anchor="middle" font-family="Arial, Helvetica, sans-serif" font-size="12" font-weight="600" fill="#0F172A">└── boot</text>
  <rect x="269" y="424" width="133" height="44" rx="10" fill="#ECFDF5" stroke="#86EFAC" stroke-width="1.8" filter="url(#sh)"/>
  <text x="335" y="456" text-anchor="middle" font-family="Arial, Helvetica, sans-serif" font-size="12" font-weight="600" fill="#0F172A">(Startup Files)</text>
</svg>
