<svg xmlns="http://www.w3.org/2000/svg" viewBox="0 0 376 568" role="img" aria-label="Practical Least-Privilege Workflow">
  <defs>
    <filter id="sh" x="-12%" y="-12%" width="124%" height="124%">
      <feDropShadow dx="0" dy="2" stdDeviation="2" flood-color="#0F172A" flood-opacity="0.1"/>
    </filter>
    <marker id="m-slate" viewBox="0 0 10 10" refX="9" refY="5" markerWidth="6" markerHeight="6" orient="auto">
      <path d="M1 2 L9 5 L1 8" fill="none" stroke="#475569" stroke-width="1.8" stroke-linecap="round"/>
    </marker>
  </defs>
  <rect width="376" height="568" fill="#F8FAFC"/>
  <text x="280" y="42" text-anchor="middle" font-family="Arial, Helvetica, sans-serif" font-size="15" font-weight="700" fill="#0F172A">Practical Least-Privilege Workflow</text>
  <rect x="210" y="60" width="140" height="44" rx="10" fill="#FFFFFF" stroke="#E2E8F0" stroke-width="1.8" filter="url(#sh)"/>
  <text x="280" y="92" text-anchor="middle" font-family="Arial, Helvetica, sans-serif" font-size="12" font-weight="600" fill="#0F172A">Create User/Role</text>
  <line x1="280" y1="104" x2="280" y2="114" stroke="#475569" stroke-width="2" marker-end="url(#m-slate)"/>
  <rect x="196" y="120" width="168" height="44" rx="10" fill="#FFFFFF" stroke="#E2E8F0" stroke-width="1.8" filter="url(#sh)"/>
  <text x="280" y="152" text-anchor="middle" font-family="Arial, Helvetica, sans-serif" font-size="12" font-weight="600" fill="#0F172A">Grant Minimal Access</text>
  <line x1="280" y1="164" x2="280" y2="174" stroke="#475569" stroke-width="2" marker-end="url(#m-slate)"/>
  <rect x="210" y="180" width="140" height="44" rx="10" fill="#FFFFFF" stroke="#E2E8F0" stroke-width="1.8" filter="url(#sh)"/>
  <text x="280" y="212" text-anchor="middle" font-family="Arial, Helvetica, sans-serif" font-size="12" font-weight="600" fill="#0F172A">Test Application</text>
  <line x1="280" y1="224" x2="280" y2="234" stroke="#475569" stroke-width="2" marker-end="url(#m-slate)"/>
  <rect x="220" y="240" width="120" height="44" rx="10" fill="#FFFFFF" stroke="#E2E8F0" stroke-width="1.8" filter="url(#sh)"/>
  <text x="280" y="272" text-anchor="middle" font-family="Arial, Helvetica, sans-serif" font-size="12" font-weight="600" fill="#0F172A">Monitor Usage</text>
  <line x1="280" y1="284" x2="280" y2="294" stroke="#475569" stroke-width="2" marker-end="url(#m-slate)"/>
  <rect x="214" y="300" width="133" height="60" rx="10" fill="#FFFFFF" stroke="#E2E8F0" stroke-width="1.8" filter="url(#sh)"/>
  <text x="280" y="332" text-anchor="middle" font-family="Arial, Helvetica, sans-serif" font-size="12" font-weight="600" fill="#0F172A">Identify Unused</text>
  <text x="280" y="348" text-anchor="middle" font-family="Arial, Helvetica, sans-serif" font-size="12" font-weight="600" fill="#0F172A">Permissions</text>
  <line x1="280" y1="360" x2="280" y2="370" stroke="#475569" stroke-width="2" marker-end="url(#m-slate)"/>
  <rect x="196" y="376" width="168" height="44" rx="10" fill="#FFFFFF" stroke="#E2E8F0" stroke-width="1.8" filter="url(#sh)"/>
  <text x="280" y="408" text-anchor="middle" font-family="Arial, Helvetica, sans-serif" font-size="12" font-weight="600" fill="#0F172A">Remove Excess Access</text>
  <line x1="280" y1="420" x2="280" y2="430" stroke="#475569" stroke-width="2" marker-end="url(#m-slate)"/>
  <rect x="214" y="436" width="133" height="44" rx="10" fill="#FFFFFF" stroke="#E2E8F0" stroke-width="1.8" filter="url(#sh)"/>
  <text x="280" y="468" text-anchor="middle" font-family="Arial, Helvetica, sans-serif" font-size="12" font-weight="600" fill="#0F172A">Periodic Review</text>
  <line x1="280" y1="480" x2="280" y2="490" stroke="#475569" stroke-width="2" marker-end="url(#m-slate)"/>
  <rect x="220" y="496" width="120" height="44" rx="10" fill="#FFFFFF" stroke="#E2E8F0" stroke-width="1.8" filter="url(#sh)"/>
  <text x="280" y="528" text-anchor="middle" font-family="Arial, Helvetica, sans-serif" font-size="12" font-weight="600" fill="#0F172A">Repeat</text>
</svg>
