<svg xmlns="http://www.w3.org/2000/svg" viewBox="0 0 284 356" width="220" height="276" role="img" aria-label="Visual Diagram for Whiteboard">
  <defs>
    <filter id="sh" x="-12%" y="-12%" width="124%" height="124%">
      <feDropShadow dx="0" dy="2" stdDeviation="2" flood-color="#0F172A" flood-opacity="0.1"/>
    </filter>
    <marker id="m-slate" viewBox="0 0 10 10" refX="9" refY="5" markerWidth="6" markerHeight="6" orient="auto">
      <path d="M1 2 L9 5 L1 8" fill="none" stroke="#475569" stroke-width="1.8" stroke-linecap="round"/>
    </marker>
  </defs>
  <rect width="284" height="356" fill="#F8FAFC"/>
  <text x="211" y="30" text-anchor="middle" font-family="Arial, Helvetica, sans-serif" font-size="11" font-weight="700" fill="#0F172A">Visual Diagram for Whiteboard</text>
  <rect x="165" y="44" width="92" height="33" rx="10" fill="#FFFFFF" stroke="#E2E8F0" stroke-width="1.8" filter="url(#sh)"/>
  <text x="211" y="66" text-anchor="middle" font-family="Arial, Helvetica, sans-serif" font-size="9" font-weight="600" fill="#0F172A">Your Laptop</text>
  <rect x="165" y="86" width="92" height="33" rx="10" fill="#FFFFFF" stroke="#E2E8F0" stroke-width="1.8" filter="url(#sh)"/>
  <text x="211" y="108" text-anchor="middle" font-family="Arial, Helvetica, sans-serif" font-size="9" font-weight="600" fill="#0F172A">Private Key</text>
  <rect x="165" y="119" width="92" height="33" rx="10" fill="#FFFFFF" stroke="#E2E8F0" stroke-width="1.8" filter="url(#sh)"/>
  <text x="211" y="141" text-anchor="middle" font-family="Arial, Helvetica, sans-serif" font-size="9" font-weight="600" fill="#0F172A">(mykey.pem)</text>
  <line x1="211" y1="161" x2="211" y2="167" stroke="#475569" stroke-width="2" marker-end="url(#m-slate)"/>
  <line x1="211" y1="173" x2="211" y2="179" stroke="#475569" stroke-width="2" marker-end="url(#m-slate)"/>
  <rect x="165" y="185" width="92" height="33" rx="10" fill="#FFFFFF" stroke="#E2E8F0" stroke-width="1.8" filter="url(#sh)"/>
  <text x="211" y="207" text-anchor="middle" font-family="Arial, Helvetica, sans-serif" font-size="9" font-weight="600" fill="#0F172A">SSH</text>
  <line x1="211" y1="218" x2="211" y2="223" stroke="#475569" stroke-width="2" marker-end="url(#m-slate)"/>
  <rect x="165" y="229" width="92" height="33" rx="10" fill="#FFFFFF" stroke="#E2E8F0" stroke-width="1.8" filter="url(#sh)"/>
  <text x="211" y="251" text-anchor="middle" font-family="Arial, Helvetica, sans-serif" font-size="9" font-weight="600" fill="#0F172A">EC2 Server</text>
  <rect x="165" y="271" width="92" height="33" rx="10" fill="#FFFFFF" stroke="#E2E8F0" stroke-width="1.8" filter="url(#sh)"/>
  <text x="211" y="293" text-anchor="middle" font-family="Arial, Helvetica, sans-serif" font-size="9" font-weight="600" fill="#0F172A">Public Key</text>
  <rect x="163" y="304" width="96" height="33" rx="10" fill="#FFFFFF" stroke="#E2E8F0" stroke-width="1.8" filter="url(#sh)"/>
  <text x="211" y="326" text-anchor="middle" font-family="Arial, Helvetica, sans-serif" font-size="9" font-weight="600" fill="#0F172A">authorized_keys</text>
</svg>
