<svg xmlns="http://www.w3.org/2000/svg" viewBox="0 0 250 175" width="220" height="154" role="img" aria-label="Whiteboard Diagram">
  <defs>
    <filter id="sh" x="-12%" y="-12%" width="124%" height="124%">
      <feDropShadow dx="0" dy="2" stdDeviation="2" flood-color="#0F172A" flood-opacity="0.1"/>
    </filter>
    <marker id="m-slate" viewBox="0 0 10 10" refX="9" refY="5" markerWidth="6" markerHeight="6" orient="auto">
      <path d="M1 2 L9 5 L1 8" fill="none" stroke="#475569" stroke-width="1.8" stroke-linecap="round"/>
    </marker>
  </defs>
  <rect width="250" height="175" fill="#F8FAFC"/>
  <text x="106" y="15" text-anchor="middle" font-family="Arial, Helvetica, sans-serif" font-size="5" font-weight="700" fill="#0F172A">Diagram</text>
  <rect x="72" y="22" width="68" height="17" rx="10" fill="#FFFFFF" stroke="#E2E8F0" stroke-width="1.8" filter="url(#sh)"/>
  <text x="106" y="30" text-anchor="middle" font-family="Arial, Helvetica, sans-serif" font-size="4" font-weight="600" fill="#0F172A">Modern</text>
  <text x="106" y="36" text-anchor="middle" font-family="Arial, Helvetica, sans-serif" font-size="4" font-weight="600" fill="#0F172A">Organization</text>
  <line x1="106" y1="39" x2="106" y2="39" stroke="#475569" stroke-width="2" marker-end="url(#m-slate)"/>
  <line x1="-9" y1="48" x2="221" y2="48" stroke="#475569" stroke-width="2"/>
  <line x1="12" y1="48" x2="12" y2="53" stroke="#475569" stroke-width="2"/>
  <rect x="-9" y="53" width="42" height="17" rx="10" fill="#FFFFFF" stroke="#E2E8F0" stroke-width="1.8" filter="url(#sh)"/>
  <text x="12" y="64" text-anchor="middle" font-family="Arial, Helvetica, sans-serif" font-size="4" font-weight="600" fill="#0F172A">Employees</text>
  <line x1="59" y1="48" x2="59" y2="53" stroke="#475569" stroke-width="2"/>
  <rect x="38" y="53" width="42" height="17" rx="10" fill="#FFFFFF" stroke="#E2E8F0" stroke-width="1.8" filter="url(#sh)"/>
  <text x="59" y="64" text-anchor="middle" font-family="Arial, Helvetica, sans-serif" font-size="4" font-weight="600" fill="#0F172A">Cloud</text>
  <line x1="106" y1="48" x2="106" y2="53" stroke="#475569" stroke-width="2"/>
  <rect x="85" y="53" width="42" height="17" rx="10" fill="#FFFFFF" stroke="#E2E8F0" stroke-width="1.8" filter="url(#sh)"/>
  <text x="106" y="64" text-anchor="middle" font-family="Arial, Helvetica, sans-serif" font-size="4" font-weight="600" fill="#0F172A">APIs</text>
  <line x1="153" y1="48" x2="153" y2="53" stroke="#475569" stroke-width="2"/>
  <rect x="132" y="53" width="42" height="17" rx="10" fill="#FFFFFF" stroke="#E2E8F0" stroke-width="1.8" filter="url(#sh)"/>
  <text x="153" y="64" text-anchor="middle" font-family="Arial, Helvetica, sans-serif" font-size="4" font-weight="600" fill="#0F172A">SaaS</text>
  <line x1="200" y1="48" x2="200" y2="53" stroke="#475569" stroke-width="2"/>
  <rect x="179" y="53" width="42" height="17" rx="10" fill="#FFFFFF" stroke="#E2E8F0" stroke-width="1.8" filter="url(#sh)"/>
  <text x="200" y="64" text-anchor="middle" font-family="Arial, Helvetica, sans-serif" font-size="4" font-weight="600" fill="#0F172A">Mobile</text>
  <rect x="83" y="78" width="46" height="17" rx="10" fill="#FFFFFF" stroke="#E2E8F0" stroke-width="1.8" filter="url(#sh)"/>
  <text x="106" y="89" text-anchor="middle" font-family="Arial, Helvetica, sans-serif" font-size="4" font-weight="600" fill="#0F172A">↑ ↑ ↑</text>
  <rect x="72" y="95" width="68" height="23" rx="10" fill="#FFFFFF" stroke="#E2E8F0" stroke-width="1.8" filter="url(#sh)"/>
  <text x="106" y="103" text-anchor="middle" font-family="Arial, Helvetica, sans-serif" font-size="4" font-weight="600" fill="#0F172A">Attackers</text>
  <text x="106" y="109" text-anchor="middle" font-family="Arial, Helvetica, sans-serif" font-size="4" font-weight="600" fill="#0F172A">Attackers</text>
  <text x="106" y="115" text-anchor="middle" font-family="Arial, Helvetica, sans-serif" font-size="4" font-weight="600" fill="#0F172A">Attackers</text>
  <rect x="65" y="122" width="83" height="39" rx="12" fill="#FFFFFF" stroke="#E2E8F0" stroke-width="2" filter="url(#sh)"/>
  <text x="106" y="132" text-anchor="middle" font-family="Arial, Helvetica, sans-serif" font-size="5" font-weight="700" fill="#2563EB">Ransomware</text>
  <text x="74" y="145" font-family="Arial, Helvetica, sans-serif" font-size="4" fill="#0F172A">• Credential Theft</text>
  <text x="74" y="153" font-family="Arial, Helvetica, sans-serif" font-size="4" fill="#0F172A">• Supply Chain Attacks</text>
  <text x="74" y="161" font-family="Arial, Helvetica, sans-serif" font-size="4" fill="#0F172A">• Misconfigurations</text>
</svg>
