<svg xmlns="http://www.w3.org/2000/svg" viewBox="0 0 502 351" width="480" height="336" role="img" aria-label="Whiteboard Diagram">
  <defs>
    <filter id="sh" x="-12%" y="-12%" width="124%" height="124%">
      <feDropShadow dx="0" dy="2" stdDeviation="2" flood-color="#0F172A" flood-opacity="0.1"/>
    </filter>
    <marker id="m-slate" viewBox="0 0 10 10" refX="9" refY="5" markerWidth="6" markerHeight="6" orient="auto">
      <path d="M1 2 L9 5 L1 8" fill="none" stroke="#475569" stroke-width="1.8" stroke-linecap="round"/>
    </marker>
  </defs>
  <rect width="502" height="351" fill="#F8FAFC"/>
  <text x="211" y="30" text-anchor="middle" font-family="Arial, Helvetica, sans-serif" font-size="11" font-weight="700" fill="#0F172A">Diagram</text>
  <rect x="153" y="44" width="116" height="33" rx="10" fill="#FFFFFF" stroke="#E2E8F0" stroke-width="1.8" filter="url(#sh)"/>
  <text x="211" y="60" text-anchor="middle" font-family="Arial, Helvetica, sans-serif" font-size="9" font-weight="600" fill="#0F172A">Modern</text>
  <text x="211" y="72" text-anchor="middle" font-family="Arial, Helvetica, sans-serif" font-size="9" font-weight="600" fill="#0F172A">Organization</text>
  <line x1="211" y1="77" x2="211" y2="83" stroke="#475569" stroke-width="2" marker-end="url(#m-slate)"/>
  <line x1="-21" y1="94" x2="443" y2="94" stroke="#475569" stroke-width="2"/>
  <line x1="21" y1="94" x2="21" y2="105" stroke="#475569" stroke-width="2"/>
  <rect x="-21" y="105" width="84" height="33" rx="10" fill="#FFFFFF" stroke="#E2E8F0" stroke-width="1.8" filter="url(#sh)"/>
  <text x="21" y="127" text-anchor="middle" font-family="Arial, Helvetica, sans-serif" font-size="9" font-weight="600" fill="#0F172A">Employees</text>
  <line x1="116" y1="94" x2="116" y2="105" stroke="#475569" stroke-width="2"/>
  <rect x="74" y="105" width="84" height="33" rx="10" fill="#FFFFFF" stroke="#E2E8F0" stroke-width="1.8" filter="url(#sh)"/>
  <text x="116" y="127" text-anchor="middle" font-family="Arial, Helvetica, sans-serif" font-size="9" font-weight="600" fill="#0F172A">Cloud</text>
  <line x1="211" y1="94" x2="211" y2="105" stroke="#475569" stroke-width="2"/>
  <rect x="169" y="105" width="84" height="33" rx="10" fill="#FFFFFF" stroke="#E2E8F0" stroke-width="1.8" filter="url(#sh)"/>
  <text x="211" y="127" text-anchor="middle" font-family="Arial, Helvetica, sans-serif" font-size="9" font-weight="600" fill="#0F172A">APIs</text>
  <line x1="306" y1="94" x2="306" y2="105" stroke="#475569" stroke-width="2"/>
  <rect x="264" y="105" width="84" height="33" rx="10" fill="#FFFFFF" stroke="#E2E8F0" stroke-width="1.8" filter="url(#sh)"/>
  <text x="306" y="127" text-anchor="middle" font-family="Arial, Helvetica, sans-serif" font-size="9" font-weight="600" fill="#0F172A">SaaS</text>
  <line x1="401" y1="94" x2="401" y2="105" stroke="#475569" stroke-width="2"/>
  <rect x="359" y="105" width="84" height="33" rx="10" fill="#FFFFFF" stroke="#E2E8F0" stroke-width="1.8" filter="url(#sh)"/>
  <text x="401" y="127" text-anchor="middle" font-family="Arial, Helvetica, sans-serif" font-size="9" font-weight="600" fill="#0F172A">Mobile</text>
  <rect x="165" y="156" width="92" height="33" rx="10" fill="#FFFFFF" stroke="#E2E8F0" stroke-width="1.8" filter="url(#sh)"/>
  <text x="211" y="178" text-anchor="middle" font-family="Arial, Helvetica, sans-serif" font-size="9" font-weight="600" fill="#0F172A">↑ ↑ ↑</text>
  <rect x="153" y="189" width="116" height="45" rx="10" fill="#FFFFFF" stroke="#E2E8F0" stroke-width="1.8" filter="url(#sh)"/>
  <text x="211" y="205" text-anchor="middle" font-family="Arial, Helvetica, sans-serif" font-size="9" font-weight="600" fill="#0F172A">Attackers</text>
  <text x="211" y="217" text-anchor="middle" font-family="Arial, Helvetica, sans-serif" font-size="9" font-weight="600" fill="#0F172A">Attackers</text>
  <text x="211" y="229" text-anchor="middle" font-family="Arial, Helvetica, sans-serif" font-size="9" font-weight="600" fill="#0F172A">Attackers</text>
  <rect x="139" y="243" width="145" height="80" rx="12" fill="#FFFFFF" stroke="#E2E8F0" stroke-width="2" filter="url(#sh)"/>
  <text x="211" y="264" text-anchor="middle" font-family="Arial, Helvetica, sans-serif" font-size="10" font-weight="700" fill="#2563EB">Ransomware</text>
  <text x="156" y="289" font-family="Arial, Helvetica, sans-serif" font-size="9" fill="#0F172A">• Credential Theft</text>
  <text x="156" y="305" font-family="Arial, Helvetica, sans-serif" font-size="9" fill="#0F172A">• Supply Chain Attacks</text>
  <text x="156" y="321" font-family="Arial, Helvetica, sans-serif" font-size="9" fill="#0F172A">• Misconfigurations</text>
</svg>
