<svg xmlns="http://www.w3.org/2000/svg" viewBox="0 0 144 185" width="144" height="185" role="img" aria-label="Example SOC Dashboard">
  <defs>
    <filter id="sh" x="-12%" y="-12%" width="124%" height="124%">
      <feDropShadow dx="0" dy="2" stdDeviation="2" flood-color="#0F172A" flood-opacity="0.1"/>
    </filter>
    <marker id="m-slate" viewBox="0 0 10 10" refX="9" refY="5" markerWidth="6" markerHeight="6" orient="auto">
      <path d="M1 2 L9 5 L1 8" fill="none" stroke="#475569" stroke-width="1.8" stroke-linecap="round"/>
    </marker>
  </defs>
  <rect width="144" height="185" fill="#F8FAFC"/>
  <text x="106" y="15" text-anchor="middle" font-family="Arial, Helvetica, sans-serif" font-size="5" font-weight="700" fill="#0F172A">Example SOC Dashboard</text>
  <rect x="56" y="22" width="101" height="17" rx="10" fill="#FFFFFF" stroke="#E2E8F0" stroke-width="1.8" filter="url(#sh)"/>
  <text x="106" y="33" text-anchor="middle" font-family="Arial, Helvetica, sans-serif" font-size="4" font-weight="600" fill="#0F172A">┌────────────────────────────┐</text>
  <line x1="106" y1="39" x2="106" y2="39" stroke="#475569" stroke-width="2" marker-end="url(#m-slate)"/>
  <line x1="55" y1="48" x2="158" y2="48" stroke="#475569" stroke-width="2"/>
  <line x1="83" y1="48" x2="83" y2="53" stroke="#475569" stroke-width="2"/>
  <rect x="55" y="53" width="56" height="17" rx="10" fill="#FFFFFF" stroke="#E2E8F0" stroke-width="1.8" filter="url(#sh)"/>
  <text x="83" y="64" text-anchor="middle" font-family="Arial, Helvetica, sans-serif" font-size="4" font-weight="600" fill="#0F172A">│ Failed Logins</text>
  <line x1="137" y1="48" x2="137" y2="53" stroke="#475569" stroke-width="2"/>
  <rect x="116" y="53" width="42" height="17" rx="10" fill="#FFFFFF" stroke="#E2E8F0" stroke-width="1.8" filter="url(#sh)"/>
  <text x="137" y="64" text-anchor="middle" font-family="Arial, Helvetica, sans-serif" font-size="4" font-weight="600" fill="#0F172A">│</text>
  <rect x="59" y="74" width="53" height="17" rx="10" fill="#ECFDF5" stroke="#86EFAC" stroke-width="1.8" filter="url(#sh)"/>
  <text x="85" y="85" text-anchor="middle" font-family="Arial, Helvetica, sans-serif" font-size="4" font-weight="600" fill="#0F172A">│ SSH Attempts</text>
  <rect x="117" y="74" width="37" height="17" rx="10" fill="#ECFDF5" stroke="#86EFAC" stroke-width="1.8" filter="url(#sh)"/>
  <text x="135" y="85" text-anchor="middle" font-family="Arial, Helvetica, sans-serif" font-size="4" font-weight="600" fill="#0F172A">│</text>
  <rect x="63" y="95" width="44" height="17" rx="10" fill="#EFF6FF" stroke="#93C5FD" stroke-width="1.8" filter="url(#sh)"/>
  <text x="85" y="106" text-anchor="middle" font-family="Arial, Helvetica, sans-serif" font-size="4" font-weight="600" fill="#0F172A">│ CPU Usage</text>
  <rect x="112" y="95" width="37" height="17" rx="10" fill="#EFF6FF" stroke="#93C5FD" stroke-width="1.8" filter="url(#sh)"/>
  <text x="130" y="106" text-anchor="middle" font-family="Arial, Helvetica, sans-serif" font-size="4" font-weight="600" fill="#0F172A">│</text>
  <rect x="51" y="116" width="68" height="17" rx="10" fill="#ECFDF5" stroke="#86EFAC" stroke-width="1.8" filter="url(#sh)"/>
  <text x="85" y="124" text-anchor="middle" font-family="Arial, Helvetica, sans-serif" font-size="4" font-weight="600" fill="#0F172A">│ Security</text>
  <text x="85" y="130" text-anchor="middle" font-family="Arial, Helvetica, sans-serif" font-size="4" font-weight="600" fill="#0F172A">Findings</text>
  <rect x="124" y="116" width="37" height="17" rx="10" fill="#ECFDF5" stroke="#86EFAC" stroke-width="1.8" filter="url(#sh)"/>
  <text x="142" y="127" text-anchor="middle" font-family="Arial, Helvetica, sans-serif" font-size="4" font-weight="600" fill="#0F172A">│</text>
  <rect x="57" y="137" width="56" height="17" rx="10" fill="#EFF6FF" stroke="#93C5FD" stroke-width="1.8" filter="url(#sh)"/>
  <text x="85" y="148" text-anchor="middle" font-family="Arial, Helvetica, sans-serif" font-size="4" font-weight="600" fill="#0F172A">│ Active Alarms</text>
  <rect x="118" y="137" width="37" height="17" rx="10" fill="#EFF6FF" stroke="#93C5FD" stroke-width="1.8" filter="url(#sh)"/>
  <text x="136" y="148" text-anchor="middle" font-family="Arial, Helvetica, sans-serif" font-size="4" font-weight="600" fill="#0F172A">│</text>
  <rect x="56" y="158" width="101" height="17" rx="10" fill="#FFFFFF" stroke="#E2E8F0" stroke-width="1.8" filter="url(#sh)"/>
  <text x="106" y="169" text-anchor="middle" font-family="Arial, Helvetica, sans-serif" font-size="4" font-weight="600" fill="#0F172A">└────────────────────────────┘</text>
</svg>
