<svg xmlns="http://www.w3.org/2000/svg" viewBox="0 0 376 460" role="img" aria-label="How AI Query Generation Works">
  <defs>
    <filter id="sh" x="-12%" y="-12%" width="124%" height="124%">
      <feDropShadow dx="0" dy="2" stdDeviation="2" flood-color="#0F172A" flood-opacity="0.1"/>
    </filter>
    <marker id="m-slate" viewBox="0 0 10 10" refX="9" refY="5" markerWidth="6" markerHeight="6" orient="auto">
      <path d="M1 2 L9 5 L1 8" fill="none" stroke="#475569" stroke-width="1.8" stroke-linecap="round"/>
    </marker>
  </defs>
  <rect width="376" height="460" fill="#F8FAFC"/>
  <text x="280" y="42" text-anchor="middle" font-family="Arial, Helvetica, sans-serif" font-size="15" font-weight="700" fill="#0F172A">How AI Query Generation Works</text>
  <rect x="210" y="60" width="140" height="60" rx="10" fill="#FFFFFF" stroke="#E2E8F0" stroke-width="1.8" filter="url(#sh)"/>
  <text x="280" y="92" text-anchor="middle" font-family="Arial, Helvetica, sans-serif" font-size="12" font-weight="600" fill="#0F172A">Natural Language</text>
  <text x="280" y="108" text-anchor="middle" font-family="Arial, Helvetica, sans-serif" font-size="12" font-weight="600" fill="#0F172A">Prompt</text>
  <line x1="280" y1="120" x2="280" y2="130" stroke="#475569" stroke-width="2" marker-end="url(#m-slate)"/>
  <line x1="280" y1="136" x2="280" y2="148" stroke="#475569" stroke-width="2" marker-end="url(#m-slate)"/>
  <rect x="220" y="154" width="120" height="44" rx="10" fill="#FFFFFF" stroke="#E2E8F0" stroke-width="1.8" filter="url(#sh)"/>
  <text x="280" y="186" text-anchor="middle" font-family="Arial, Helvetica, sans-serif" font-size="12" font-weight="600" fill="#0F172A">AWS AI Model</text>
  <line x1="280" y1="198" x2="280" y2="208" stroke="#475569" stroke-width="2" marker-end="url(#m-slate)"/>
  <line x1="280" y1="214" x2="280" y2="226" stroke="#475569" stroke-width="2" marker-end="url(#m-slate)"/>
  <rect x="200" y="232" width="161" height="44" rx="10" fill="#FFFFFF" stroke="#E2E8F0" stroke-width="1.8" filter="url(#sh)"/>
  <text x="280" y="264" text-anchor="middle" font-family="Arial, Helvetica, sans-serif" font-size="12" font-weight="600" fill="#0F172A">Logs Insights Query</text>
  <line x1="280" y1="276" x2="280" y2="286" stroke="#475569" stroke-width="2" marker-end="url(#m-slate)"/>
  <line x1="280" y1="292" x2="280" y2="304" stroke="#475569" stroke-width="2" marker-end="url(#m-slate)"/>
  <rect x="217" y="310" width="126" height="44" rx="10" fill="#FFFFFF" stroke="#E2E8F0" stroke-width="1.8" filter="url(#sh)"/>
  <text x="280" y="342" text-anchor="middle" font-family="Arial, Helvetica, sans-serif" font-size="12" font-weight="600" fill="#0F172A">Analyst Review</text>
  <line x1="280" y1="354" x2="280" y2="364" stroke="#475569" stroke-width="2" marker-end="url(#m-slate)"/>
  <line x1="280" y1="370" x2="280" y2="382" stroke="#475569" stroke-width="2" marker-end="url(#m-slate)"/>
  <rect x="220" y="388" width="120" height="44" rx="10" fill="#FFFFFF" stroke="#E2E8F0" stroke-width="1.8" filter="url(#sh)"/>
  <text x="280" y="420" text-anchor="middle" font-family="Arial, Helvetica, sans-serif" font-size="12" font-weight="600" fill="#0F172A">Run Query</text>
</svg>
