<svg xmlns="http://www.w3.org/2000/svg" viewBox="0 0 376 616" role="img" aria-label="Threat Hunting Workflow">
  <defs>
    <filter id="sh" x="-12%" y="-12%" width="124%" height="124%">
      <feDropShadow dx="0" dy="2" stdDeviation="2" flood-color="#0F172A" flood-opacity="0.1"/>
    </filter>
    <marker id="m-slate" viewBox="0 0 10 10" refX="9" refY="5" markerWidth="6" markerHeight="6" orient="auto">
      <path d="M1 2 L9 5 L1 8" fill="none" stroke="#475569" stroke-width="1.8" stroke-linecap="round"/>
    </marker>
  </defs>
  <rect width="376" height="616" fill="#F8FAFC"/>
  <text x="280" y="42" text-anchor="middle" font-family="Arial, Helvetica, sans-serif" font-size="15" font-weight="700" fill="#0F172A">Threat Hunting Workflow</text>
  <rect x="210" y="60" width="140" height="44" rx="10" fill="#FFFFFF" stroke="#E2E8F0" stroke-width="1.8" filter="url(#sh)"/>
  <text x="280" y="92" text-anchor="middle" font-family="Arial, Helvetica, sans-serif" font-size="12" font-weight="600" fill="#0F172A">Suspicious Alert</text>
  <line x1="280" y1="104" x2="280" y2="114" stroke="#475569" stroke-width="2" marker-end="url(#m-slate)"/>
  <line x1="280" y1="120" x2="280" y2="132" stroke="#475569" stroke-width="2" marker-end="url(#m-slate)"/>
  <rect x="217" y="138" width="126" height="44" rx="10" fill="#FFFFFF" stroke="#E2E8F0" stroke-width="1.8" filter="url(#sh)"/>
  <text x="280" y="170" text-anchor="middle" font-family="Arial, Helvetica, sans-serif" font-size="12" font-weight="600" fill="#0F172A">Open Log Group</text>
  <line x1="280" y1="182" x2="280" y2="192" stroke="#475569" stroke-width="2" marker-end="url(#m-slate)"/>
  <line x1="280" y1="198" x2="280" y2="210" stroke="#475569" stroke-width="2" marker-end="url(#m-slate)"/>
  <rect x="207" y="216" width="147" height="60" rx="10" fill="#FFFFFF" stroke="#E2E8F0" stroke-width="1.8" filter="url(#sh)"/>
  <text x="280" y="248" text-anchor="middle" font-family="Arial, Helvetica, sans-serif" font-size="12" font-weight="600" fill="#0F172A">Run Logs Insights</text>
  <text x="280" y="264" text-anchor="middle" font-family="Arial, Helvetica, sans-serif" font-size="12" font-weight="600" fill="#0F172A">Query</text>
  <line x1="280" y1="276" x2="280" y2="286" stroke="#475569" stroke-width="2" marker-end="url(#m-slate)"/>
  <line x1="280" y1="292" x2="280" y2="304" stroke="#475569" stroke-width="2" marker-end="url(#m-slate)"/>
  <rect x="214" y="310" width="133" height="44" rx="10" fill="#FFFFFF" stroke="#E2E8F0" stroke-width="1.8" filter="url(#sh)"/>
  <text x="280" y="342" text-anchor="middle" font-family="Arial, Helvetica, sans-serif" font-size="12" font-weight="600" fill="#0F172A">Identify Events</text>
  <line x1="280" y1="354" x2="280" y2="364" stroke="#475569" stroke-width="2" marker-end="url(#m-slate)"/>
  <line x1="280" y1="370" x2="280" y2="382" stroke="#475569" stroke-width="2" marker-end="url(#m-slate)"/>
  <rect x="200" y="388" width="161" height="44" rx="10" fill="#FFFFFF" stroke="#E2E8F0" stroke-width="1.8" filter="url(#sh)"/>
  <text x="280" y="420" text-anchor="middle" font-family="Arial, Helvetica, sans-serif" font-size="12" font-weight="600" fill="#0F172A">Find Source IP/User</text>
  <line x1="280" y1="432" x2="280" y2="442" stroke="#475569" stroke-width="2" marker-end="url(#m-slate)"/>
  <line x1="280" y1="448" x2="280" y2="460" stroke="#475569" stroke-width="2" marker-end="url(#m-slate)"/>
  <rect x="214" y="466" width="133" height="44" rx="10" fill="#FFFFFF" stroke="#E2E8F0" stroke-width="1.8" filter="url(#sh)"/>
  <text x="280" y="498" text-anchor="middle" font-family="Arial, Helvetica, sans-serif" font-size="12" font-weight="600" fill="#0F172A">Determine Scope</text>
  <line x1="280" y1="510" x2="280" y2="520" stroke="#475569" stroke-width="2" marker-end="url(#m-slate)"/>
  <line x1="280" y1="526" x2="280" y2="538" stroke="#475569" stroke-width="2" marker-end="url(#m-slate)"/>
  <rect x="220" y="544" width="120" height="44" rx="10" fill="#FFFFFF" stroke="#E2E8F0" stroke-width="1.8" filter="url(#sh)"/>
  <text x="280" y="576" text-anchor="middle" font-family="Arial, Helvetica, sans-serif" font-size="12" font-weight="600" fill="#0F172A">Respond</text>
</svg>
