<svg xmlns="http://www.w3.org/2000/svg" viewBox="0 0 284 276" width="284" height="276" role="img" aria-label="Why AWS Added AI Query Generation">
  <defs>
    <filter id="sh" x="-12%" y="-12%" width="124%" height="124%">
      <feDropShadow dx="0" dy="2" stdDeviation="2" flood-color="#0F172A" flood-opacity="0.1"/>
    </filter>
    <marker id="m-slate" viewBox="0 0 10 10" refX="9" refY="5" markerWidth="6" markerHeight="6" orient="auto">
      <path d="M1 2 L9 5 L1 8" fill="none" stroke="#475569" stroke-width="1.8" stroke-linecap="round"/>
    </marker>
  </defs>
  <rect width="284" height="276" fill="#F8FAFC"/>
  <text x="211" y="30" text-anchor="middle" font-family="Arial, Helvetica, sans-serif" font-size="11" font-weight="700" fill="#0F172A">Why AWS Added AI Query Generation</text>
  <rect x="163" y="44" width="96" height="33" rx="10" fill="#FFFFFF" stroke="#E2E8F0" stroke-width="1.8" filter="url(#sh)"/>
  <text x="211" y="66" text-anchor="middle" font-family="Arial, Helvetica, sans-serif" font-size="9" font-weight="600" fill="#0F172A">Threat Question</text>
  <line x1="211" y1="77" x2="211" y2="82" stroke="#475569" stroke-width="2" marker-end="url(#m-slate)"/>
  <line x1="211" y1="88" x2="211" y2="94" stroke="#475569" stroke-width="2" marker-end="url(#m-slate)"/>
  <rect x="161" y="100" width="101" height="45" rx="10" fill="#FFFFFF" stroke="#E2E8F0" stroke-width="1.8" filter="url(#sh)"/>
  <text x="211" y="122" text-anchor="middle" font-family="Arial, Helvetica, sans-serif" font-size="9" font-weight="600" fill="#0F172A">Natural Language</text>
  <text x="211" y="134" text-anchor="middle" font-family="Arial, Helvetica, sans-serif" font-size="9" font-weight="600" fill="#0F172A">Prompt</text>
  <line x1="211" y1="145" x2="211" y2="150" stroke="#475569" stroke-width="2" marker-end="url(#m-slate)"/>
  <line x1="211" y1="156" x2="211" y2="162" stroke="#475569" stroke-width="2" marker-end="url(#m-slate)"/>
  <rect x="156" y="168" width="111" height="33" rx="10" fill="#FFFFFF" stroke="#E2E8F0" stroke-width="1.8" filter="url(#sh)"/>
  <text x="211" y="190" text-anchor="middle" font-family="Arial, Helvetica, sans-serif" font-size="9" font-weight="600" fill="#0F172A">AI Generates Query</text>
  <line x1="211" y1="201" x2="211" y2="206" stroke="#475569" stroke-width="2" marker-end="url(#m-slate)"/>
  <line x1="211" y1="212" x2="211" y2="218" stroke="#475569" stroke-width="2" marker-end="url(#m-slate)"/>
  <rect x="165" y="224" width="92" height="33" rx="10" fill="#FFFFFF" stroke="#E2E8F0" stroke-width="1.8" filter="url(#sh)"/>
  <text x="211" y="246" text-anchor="middle" font-family="Arial, Helvetica, sans-serif" font-size="9" font-weight="600" fill="#0F172A">Review &amp; Run</text>
</svg>
