<svg xmlns="http://www.w3.org/2000/svg" viewBox="0 0 144 139" width="144" height="139" role="img" aria-label="Why AWS Added AI Query Generation">
  <defs>
    <filter id="sh" x="-12%" y="-12%" width="124%" height="124%">
      <feDropShadow dx="0" dy="2" stdDeviation="2" flood-color="#0F172A" flood-opacity="0.1"/>
    </filter>
    <marker id="m-slate" viewBox="0 0 10 10" refX="9" refY="5" markerWidth="6" markerHeight="6" orient="auto">
      <path d="M1 2 L9 5 L1 8" fill="none" stroke="#475569" stroke-width="1.8" stroke-linecap="round"/>
    </marker>
  </defs>
  <rect width="144" height="139" fill="#F8FAFC"/>
  <text x="106" y="15" text-anchor="middle" font-family="Arial, Helvetica, sans-serif" font-size="5" font-weight="700" fill="#0F172A">Why AWS Added AI Query Generation</text>
  <rect x="78" y="22" width="56" height="17" rx="10" fill="#FFFFFF" stroke="#E2E8F0" stroke-width="1.8" filter="url(#sh)"/>
  <text x="106" y="33" text-anchor="middle" font-family="Arial, Helvetica, sans-serif" font-size="4" font-weight="600" fill="#0F172A">Threat Question</text>
  <line x1="106" y1="39" x2="106" y2="38" stroke="#475569" stroke-width="2" marker-end="url(#m-slate)"/>
  <line x1="106" y1="44" x2="106" y2="44" stroke="#475569" stroke-width="2" marker-end="url(#m-slate)"/>
  <rect x="77" y="50" width="59" height="23" rx="10" fill="#FFFFFF" stroke="#E2E8F0" stroke-width="1.8" filter="url(#sh)"/>
  <text x="106" y="61" text-anchor="middle" font-family="Arial, Helvetica, sans-serif" font-size="4" font-weight="600" fill="#0F172A">Natural Language</text>
  <text x="106" y="67" text-anchor="middle" font-family="Arial, Helvetica, sans-serif" font-size="4" font-weight="600" fill="#0F172A">Prompt</text>
  <line x1="106" y1="73" x2="106" y2="72" stroke="#475569" stroke-width="2" marker-end="url(#m-slate)"/>
  <line x1="106" y1="78" x2="106" y2="78" stroke="#475569" stroke-width="2" marker-end="url(#m-slate)"/>
  <rect x="74" y="84" width="65" height="17" rx="10" fill="#FFFFFF" stroke="#E2E8F0" stroke-width="1.8" filter="url(#sh)"/>
  <text x="106" y="95" text-anchor="middle" font-family="Arial, Helvetica, sans-serif" font-size="4" font-weight="600" fill="#0F172A">AI Generates Query</text>
  <line x1="106" y1="101" x2="106" y2="100" stroke="#475569" stroke-width="2" marker-end="url(#m-slate)"/>
  <line x1="106" y1="106" x2="106" y2="106" stroke="#475569" stroke-width="2" marker-end="url(#m-slate)"/>
  <rect x="83" y="112" width="47" height="17" rx="10" fill="#FFFFFF" stroke="#E2E8F0" stroke-width="1.8" filter="url(#sh)"/>
  <text x="106" y="123" text-anchor="middle" font-family="Arial, Helvetica, sans-serif" font-size="4" font-weight="600" fill="#0F172A">Review &amp; Run</text>
</svg>
