<svg xmlns="http://www.w3.org/2000/svg" viewBox="0 0 376 538" role="img" aria-label="AI Operations Workflow">
  <defs>
    <filter id="sh" x="-12%" y="-12%" width="124%" height="124%">
      <feDropShadow dx="0" dy="2" stdDeviation="2" flood-color="#0F172A" flood-opacity="0.1"/>
    </filter>
    <marker id="m-slate" viewBox="0 0 10 10" refX="9" refY="5" markerWidth="6" markerHeight="6" orient="auto">
      <path d="M1 2 L9 5 L1 8" fill="none" stroke="#475569" stroke-width="1.8" stroke-linecap="round"/>
    </marker>
  </defs>
  <rect width="376" height="538" fill="#F8FAFC"/>
  <text x="280" y="42" text-anchor="middle" font-family="Arial, Helvetica, sans-serif" font-size="15" font-weight="700" fill="#0F172A">AI Operations Workflow</text>
  <rect x="214" y="60" width="133" height="44" rx="10" fill="#FFFFFF" stroke="#E2E8F0" stroke-width="1.8" filter="url(#sh)"/>
  <text x="280" y="92" text-anchor="middle" font-family="Arial, Helvetica, sans-serif" font-size="12" font-weight="600" fill="#0F172A">Alert Triggered</text>
  <line x1="280" y1="104" x2="280" y2="114" stroke="#475569" stroke-width="2" marker-end="url(#m-slate)"/>
  <line x1="280" y1="120" x2="280" y2="132" stroke="#475569" stroke-width="2" marker-end="url(#m-slate)"/>
  <rect x="210" y="138" width="140" height="60" rx="10" fill="#FFFFFF" stroke="#E2E8F0" stroke-width="1.8" filter="url(#sh)"/>
  <text x="280" y="170" text-anchor="middle" font-family="Arial, Helvetica, sans-serif" font-size="12" font-weight="600" fill="#0F172A">AI Investigation</text>
  <text x="280" y="186" text-anchor="middle" font-family="Arial, Helvetica, sans-serif" font-size="12" font-weight="600" fill="#0F172A">Starts</text>
  <line x1="280" y1="198" x2="280" y2="208" stroke="#475569" stroke-width="2" marker-end="url(#m-slate)"/>
  <line x1="280" y1="214" x2="280" y2="226" stroke="#475569" stroke-width="2" marker-end="url(#m-slate)"/>
  <rect x="200" y="232" width="161" height="44" rx="10" fill="#FFFFFF" stroke="#E2E8F0" stroke-width="1.8" filter="url(#sh)"/>
  <text x="280" y="264" text-anchor="middle" font-family="Arial, Helvetica, sans-serif" font-size="12" font-weight="600" fill="#0F172A">Evidence Collection</text>
  <line x1="280" y1="276" x2="280" y2="286" stroke="#475569" stroke-width="2" marker-end="url(#m-slate)"/>
  <line x1="280" y1="292" x2="280" y2="304" stroke="#475569" stroke-width="2" marker-end="url(#m-slate)"/>
  <rect x="210" y="310" width="140" height="44" rx="10" fill="#FFFFFF" stroke="#E2E8F0" stroke-width="1.8" filter="url(#sh)"/>
  <text x="280" y="342" text-anchor="middle" font-family="Arial, Helvetica, sans-serif" font-size="12" font-weight="600" fill="#0F172A">Pattern Analysis</text>
  <line x1="280" y1="354" x2="280" y2="364" stroke="#475569" stroke-width="2" marker-end="url(#m-slate)"/>
  <line x1="280" y1="370" x2="280" y2="382" stroke="#475569" stroke-width="2" marker-end="url(#m-slate)"/>
  <rect x="193" y="388" width="175" height="44" rx="10" fill="#FFFFFF" stroke="#E2E8F0" stroke-width="1.8" filter="url(#sh)"/>
  <text x="280" y="420" text-anchor="middle" font-family="Arial, Helvetica, sans-serif" font-size="12" font-weight="600" fill="#0F172A">Hypothesis Generation</text>
  <line x1="280" y1="432" x2="280" y2="442" stroke="#475569" stroke-width="2" marker-end="url(#m-slate)"/>
  <line x1="280" y1="448" x2="280" y2="460" stroke="#475569" stroke-width="2" marker-end="url(#m-slate)"/>
  <rect x="193" y="466" width="175" height="44" rx="10" fill="#FFFFFF" stroke="#E2E8F0" stroke-width="1.8" filter="url(#sh)"/>
  <text x="280" y="498" text-anchor="middle" font-family="Arial, Helvetica, sans-serif" font-size="12" font-weight="600" fill="#0F172A">Investigation Summary</text>
</svg>
