<svg xmlns="http://www.w3.org/2000/svg" viewBox="0 0 144 315" width="144" height="315" role="img" aria-label="Example End-to-End Scenario">
  <defs>
    <filter id="sh" x="-12%" y="-12%" width="124%" height="124%">
      <feDropShadow dx="0" dy="2" stdDeviation="2" flood-color="#0F172A" flood-opacity="0.1"/>
    </filter>
    <marker id="m-slate" viewBox="0 0 10 10" refX="9" refY="5" markerWidth="6" markerHeight="6" orient="auto">
      <path d="M1 2 L9 5 L1 8" fill="none" stroke="#475569" stroke-width="1.8" stroke-linecap="round"/>
    </marker>
  </defs>
  <rect width="144" height="315" fill="#F8FAFC"/>
  <text x="106" y="15" text-anchor="middle" font-family="Arial, Helvetica, sans-serif" font-size="5" font-weight="700" fill="#0F172A">Example End-to-End Scenario</text>
  <rect x="77" y="22" width="59" height="23" rx="10" fill="#FFFFFF" stroke="#E2E8F0" stroke-width="1.8" filter="url(#sh)"/>
  <text x="106" y="33" text-anchor="middle" font-family="Arial, Helvetica, sans-serif" font-size="4" font-weight="600" fill="#0F172A">Failed SSH Login</text>
  <text x="106" y="39" text-anchor="middle" font-family="Arial, Helvetica, sans-serif" font-size="4" font-weight="600" fill="#0F172A">Alert</text>
  <line x1="106" y1="45" x2="106" y2="44" stroke="#475569" stroke-width="2" marker-end="url(#m-slate)"/>
  <line x1="106" y1="50" x2="106" y2="50" stroke="#475569" stroke-width="2" marker-end="url(#m-slate)"/>
  <rect x="77" y="56" width="59" height="23" rx="10" fill="#FFFFFF" stroke="#E2E8F0" stroke-width="1.8" filter="url(#sh)"/>
  <text x="106" y="67" text-anchor="middle" font-family="Arial, Helvetica, sans-serif" font-size="4" font-weight="600" fill="#0F172A">AI Investigation</text>
  <text x="106" y="73" text-anchor="middle" font-family="Arial, Helvetica, sans-serif" font-size="4" font-weight="600" fill="#0F172A">Starts</text>
  <line x1="106" y1="79" x2="106" y2="78" stroke="#475569" stroke-width="2" marker-end="url(#m-slate)"/>
  <line x1="106" y1="84" x2="106" y2="84" stroke="#475569" stroke-width="2" marker-end="url(#m-slate)"/>
  <rect x="72" y="90" width="68" height="23" rx="10" fill="#FFFFFF" stroke="#E2E8F0" stroke-width="1.8" filter="url(#sh)"/>
  <text x="106" y="101" text-anchor="middle" font-family="Arial, Helvetica, sans-serif" font-size="4" font-weight="600" fill="#0F172A">Authentication</text>
  <text x="106" y="107" text-anchor="middle" font-family="Arial, Helvetica, sans-serif" font-size="4" font-weight="600" fill="#0F172A">Logs Reviewed</text>
  <line x1="106" y1="113" x2="106" y2="112" stroke="#475569" stroke-width="2" marker-end="url(#m-slate)"/>
  <line x1="106" y1="118" x2="106" y2="118" stroke="#475569" stroke-width="2" marker-end="url(#m-slate)"/>
  <rect x="72" y="124" width="68" height="23" rx="10" fill="#FFFFFF" stroke="#E2E8F0" stroke-width="1.8" filter="url(#sh)"/>
  <text x="106" y="132" text-anchor="middle" font-family="Arial, Helvetica, sans-serif" font-size="4" font-weight="600" fill="#0F172A">CloudTrail</text>
  <text x="106" y="138" text-anchor="middle" font-family="Arial, Helvetica, sans-serif" font-size="4" font-weight="600" fill="#0F172A">Activity</text>
  <text x="106" y="144" text-anchor="middle" font-family="Arial, Helvetica, sans-serif" font-size="4" font-weight="600" fill="#0F172A">Correlated</text>
  <line x1="106" y1="147" x2="106" y2="146" stroke="#475569" stroke-width="2" marker-end="url(#m-slate)"/>
  <line x1="106" y1="152" x2="106" y2="152" stroke="#475569" stroke-width="2" marker-end="url(#m-slate)"/>
  <rect x="74" y="158" width="65" height="17" rx="10" fill="#FFFFFF" stroke="#E2E8F0" stroke-width="1.8" filter="url(#sh)"/>
  <text x="106" y="169" text-anchor="middle" font-family="Arial, Helvetica, sans-serif" font-size="4" font-weight="600" fill="#0F172A">Source IP Analyzed</text>
  <line x1="106" y1="175" x2="106" y2="174" stroke="#475569" stroke-width="2" marker-end="url(#m-slate)"/>
  <line x1="106" y1="180" x2="106" y2="180" stroke="#475569" stroke-width="2" marker-end="url(#m-slate)"/>
  <rect x="74" y="186" width="65" height="23" rx="10" fill="#FFFFFF" stroke="#E2E8F0" stroke-width="1.8" filter="url(#sh)"/>
  <text x="106" y="197" text-anchor="middle" font-family="Arial, Helvetica, sans-serif" font-size="4" font-weight="600" fill="#0F172A">Historical Pattern</text>
  <text x="106" y="203" text-anchor="middle" font-family="Arial, Helvetica, sans-serif" font-size="4" font-weight="600" fill="#0F172A">Checked</text>
  <line x1="106" y1="209" x2="106" y2="208" stroke="#475569" stroke-width="2" marker-end="url(#m-slate)"/>
  <line x1="106" y1="214" x2="106" y2="214" stroke="#475569" stroke-width="2" marker-end="url(#m-slate)"/>
  <rect x="71" y="220" width="71" height="17" rx="10" fill="#FFFFFF" stroke="#E2E8F0" stroke-width="1.8" filter="url(#sh)"/>
  <text x="106" y="228" text-anchor="middle" font-family="Arial, Helvetica, sans-serif" font-size="4" font-weight="600" fill="#0F172A">Hypothesis</text>
  <text x="106" y="234" text-anchor="middle" font-family="Arial, Helvetica, sans-serif" font-size="4" font-weight="600" fill="#0F172A">Generated</text>
  <line x1="106" y1="237" x2="106" y2="236" stroke="#475569" stroke-width="2" marker-end="url(#m-slate)"/>
  <line x1="106" y1="242" x2="106" y2="242" stroke="#475569" stroke-width="2" marker-end="url(#m-slate)"/>
  <rect x="78" y="248" width="56" height="23" rx="10" fill="#FFFFFF" stroke="#E2E8F0" stroke-width="1.8" filter="url(#sh)"/>
  <text x="106" y="259" text-anchor="middle" font-family="Arial, Helvetica, sans-serif" font-size="4" font-weight="600" fill="#0F172A">Analyst Reviews</text>
  <text x="106" y="265" text-anchor="middle" font-family="Arial, Helvetica, sans-serif" font-size="4" font-weight="600" fill="#0F172A">Evidence</text>
  <line x1="106" y1="271" x2="106" y2="270" stroke="#475569" stroke-width="2" marker-end="url(#m-slate)"/>
  <line x1="106" y1="276" x2="106" y2="276" stroke="#475569" stroke-width="2" marker-end="url(#m-slate)"/>
  <rect x="75" y="282" width="62" height="23" rx="10" fill="#FFFFFF" stroke="#E2E8F0" stroke-width="1.8" filter="url(#sh)"/>
  <text x="106" y="293" text-anchor="middle" font-family="Arial, Helvetica, sans-serif" font-size="4" font-weight="600" fill="#0F172A">Accept / Reject /</text>
  <text x="106" y="299" text-anchor="middle" font-family="Arial, Helvetica, sans-serif" font-size="4" font-weight="600" fill="#0F172A">Escalate</text>
</svg>
