<svg xmlns="http://www.w3.org/2000/svg" viewBox="0 0 284 416" width="284" height="416" role="img" aria-label="End-to-End Detection Flow">
  <defs>
    <filter id="sh" x="-12%" y="-12%" width="124%" height="124%">
      <feDropShadow dx="0" dy="2" stdDeviation="2" flood-color="#0F172A" flood-opacity="0.1"/>
    </filter>
    <marker id="m-slate" viewBox="0 0 10 10" refX="9" refY="5" markerWidth="6" markerHeight="6" orient="auto">
      <path d="M1 2 L9 5 L1 8" fill="none" stroke="#475569" stroke-width="1.8" stroke-linecap="round"/>
    </marker>
  </defs>
  <rect width="284" height="416" fill="#F8FAFC"/>
  <text x="211" y="30" text-anchor="middle" font-family="Arial, Helvetica, sans-serif" font-size="11" font-weight="700" fill="#0F172A">End-to-End Detection Flow</text>
  <rect x="161" y="44" width="101" height="33" rx="10" fill="#FFFFFF" stroke="#E2E8F0" stroke-width="1.8" filter="url(#sh)"/>
  <text x="211" y="66" text-anchor="middle" font-family="Arial, Helvetica, sans-serif" font-size="9" font-weight="600" fill="#0F172A">ATT&amp;CK Technique</text>
  <line x1="211" y1="77" x2="211" y2="82" stroke="#475569" stroke-width="2" marker-end="url(#m-slate)"/>
  <rect x="165" y="88" width="92" height="33" rx="10" fill="#FFFFFF" stroke="#E2E8F0" stroke-width="1.8" filter="url(#sh)"/>
  <text x="211" y="110" text-anchor="middle" font-family="Arial, Helvetica, sans-serif" font-size="9" font-weight="600" fill="#0F172A">su Abuse</text>
  <line x1="211" y1="121" x2="211" y2="126" stroke="#475569" stroke-width="2" marker-end="url(#m-slate)"/>
  <rect x="165" y="132" width="92" height="45" rx="10" fill="#FFFFFF" stroke="#E2E8F0" stroke-width="1.8" filter="url(#sh)"/>
  <text x="211" y="154" text-anchor="middle" font-family="Arial, Helvetica, sans-serif" font-size="9" font-weight="600" fill="#0F172A">Failed</text>
  <text x="211" y="166" text-anchor="middle" font-family="Arial, Helvetica, sans-serif" font-size="9" font-weight="600" fill="#0F172A">Authentication</text>
  <line x1="211" y1="177" x2="211" y2="182" stroke="#475569" stroke-width="2" marker-end="url(#m-slate)"/>
  <rect x="165" y="188" width="92" height="33" rx="10" fill="#FFFFFF" stroke="#E2E8F0" stroke-width="1.8" filter="url(#sh)"/>
  <text x="211" y="210" text-anchor="middle" font-family="Arial, Helvetica, sans-serif" font-size="9" font-weight="600" fill="#0F172A">auditd Log</text>
  <line x1="211" y1="221" x2="211" y2="226" stroke="#475569" stroke-width="2" marker-end="url(#m-slate)"/>
  <rect x="165" y="232" width="92" height="33" rx="10" fill="#FFFFFF" stroke="#E2E8F0" stroke-width="1.8" filter="url(#sh)"/>
  <text x="211" y="254" text-anchor="middle" font-family="Arial, Helvetica, sans-serif" font-size="9" font-weight="600" fill="#0F172A">Metric Filter</text>
  <line x1="211" y1="265" x2="211" y2="270" stroke="#475569" stroke-width="2" marker-end="url(#m-slate)"/>
  <rect x="165" y="276" width="92" height="33" rx="10" fill="#FFFFFF" stroke="#E2E8F0" stroke-width="1.8" filter="url(#sh)"/>
  <text x="211" y="298" text-anchor="middle" font-family="Arial, Helvetica, sans-serif" font-size="9" font-weight="600" fill="#0F172A">SuAbuse Metric</text>
  <line x1="211" y1="309" x2="211" y2="314" stroke="#475569" stroke-width="2" marker-end="url(#m-slate)"/>
  <rect x="161" y="320" width="101" height="33" rx="10" fill="#FFFFFF" stroke="#E2E8F0" stroke-width="1.8" filter="url(#sh)"/>
  <text x="211" y="342" text-anchor="middle" font-family="Arial, Helvetica, sans-serif" font-size="9" font-weight="600" fill="#0F172A">CloudWatch Alarm</text>
  <line x1="211" y1="353" x2="211" y2="358" stroke="#475569" stroke-width="2" marker-end="url(#m-slate)"/>
  <rect x="158" y="364" width="106" height="33" rx="10" fill="#FFFFFF" stroke="#E2E8F0" stroke-width="1.8" filter="url(#sh)"/>
  <text x="211" y="386" text-anchor="middle" font-family="Arial, Helvetica, sans-serif" font-size="9" font-weight="600" fill="#0F172A">SOC Investigation</text>
</svg>
