<svg xmlns="http://www.w3.org/2000/svg" viewBox="0 0 406 287" width="220" height="156" role="img" aria-label="One Metric Filter, Multiple Consumers">
  <defs>
    <filter id="sh" x="-12%" y="-12%" width="124%" height="124%">
      <feDropShadow dx="0" dy="2" stdDeviation="2" flood-color="#0F172A" flood-opacity="0.1"/>
    </filter>
    <marker id="m-slate" viewBox="0 0 10 10" refX="9" refY="5" markerWidth="6" markerHeight="6" orient="auto">
      <path d="M1 2 L9 5 L1 8" fill="none" stroke="#475569" stroke-width="1.8" stroke-linecap="round"/>
    </marker>
  </defs>
  <rect width="406" height="287" fill="#F8FAFC"/>
  <text x="211" y="30" text-anchor="middle" font-family="Arial, Helvetica, sans-serif" font-size="11" font-weight="700" fill="#0F172A">One Metric Filter, Multiple Consumers</text>
  <rect x="165" y="44" width="92" height="33" rx="10" fill="#FFFFFF" stroke="#E2E8F0" stroke-width="1.8" filter="url(#sh)"/>
  <text x="211" y="66" text-anchor="middle" font-family="Arial, Helvetica, sans-serif" font-size="9" font-weight="600" fill="#0F172A">Metric Filter</text>
  <line x1="211" y1="77" x2="211" y2="82" stroke="#475569" stroke-width="2" marker-end="url(#m-slate)"/>
  <rect x="165" y="88" width="92" height="33" rx="10" fill="#FFFFFF" stroke="#E2E8F0" stroke-width="1.8" filter="url(#sh)"/>
  <text x="211" y="110" text-anchor="middle" font-family="Arial, Helvetica, sans-serif" font-size="9" font-weight="600" fill="#0F172A">Custom Metric</text>
  <line x1="211" y1="121" x2="211" y2="126" stroke="#475569" stroke-width="2" marker-end="url(#m-slate)"/>
  <rect x="93" y="132" width="236" height="33" rx="10" fill="#FFFFFF" stroke="#E2E8F0" stroke-width="1.8" filter="url(#sh)"/>
  <text x="211" y="154" text-anchor="middle" font-family="Arial, Helvetica, sans-serif" font-size="9" font-weight="600" fill="#0F172A">┌─────────────┬─────────────┬─────────────┐</text>
  <line x1="211" y1="165" x2="211" y2="171" stroke="#475569" stroke-width="2" marker-end="url(#m-slate)"/>
  <line x1="27" y1="182" x2="396" y2="182" stroke="#475569" stroke-width="2"/>
  <line x1="69" y1="182" x2="69" y2="193" stroke="#475569" stroke-width="2"/>
  <rect x="27" y="193" width="84" height="33" rx="10" fill="#FFFFFF" stroke="#E2E8F0" stroke-width="1.8" filter="url(#sh)"/>
  <text x="69" y="215" text-anchor="middle" font-family="Arial, Helvetica, sans-serif" font-size="9" font-weight="600" fill="#0F172A">│ Alarm</text>
  <line x1="164" y1="182" x2="164" y2="193" stroke="#475569" stroke-width="2"/>
  <rect x="122" y="193" width="84" height="33" rx="10" fill="#FFFFFF" stroke="#E2E8F0" stroke-width="1.8" filter="url(#sh)"/>
  <text x="164" y="215" text-anchor="middle" font-family="Arial, Helvetica, sans-serif" font-size="9" font-weight="600" fill="#0F172A">│ Dashboard</text>
  <line x1="259" y1="182" x2="259" y2="193" stroke="#475569" stroke-width="2"/>
  <rect x="217" y="193" width="84" height="33" rx="10" fill="#FFFFFF" stroke="#E2E8F0" stroke-width="1.8" filter="url(#sh)"/>
  <text x="259" y="215" text-anchor="middle" font-family="Arial, Helvetica, sans-serif" font-size="9" font-weight="600" fill="#0F172A">│ Reports</text>
  <line x1="354" y1="182" x2="354" y2="193" stroke="#475569" stroke-width="2"/>
  <rect x="312" y="193" width="84" height="33" rx="10" fill="#FFFFFF" stroke="#E2E8F0" stroke-width="1.8" filter="url(#sh)"/>
  <text x="354" y="215" text-anchor="middle" font-family="Arial, Helvetica, sans-serif" font-size="9" font-weight="600" fill="#0F172A">│</text>
  <rect x="93" y="235" width="236" height="33" rx="10" fill="#FFFFFF" stroke="#E2E8F0" stroke-width="1.8" filter="url(#sh)"/>
  <text x="211" y="257" text-anchor="middle" font-family="Arial, Helvetica, sans-serif" font-size="9" font-weight="600" fill="#0F172A">└─────────────┴─────────────┴─────────────┘</text>
</svg>
