<svg xmlns="http://www.w3.org/2000/svg" viewBox="0 0 284 444" width="284" height="444" role="img" aria-label="Diagram 75">
  <defs>
    <filter id="sh" x="-12%" y="-12%" width="124%" height="124%">
      <feDropShadow dx="0" dy="2" stdDeviation="2" flood-color="#0F172A" flood-opacity="0.1"/>
    </filter>
    <marker id="m-slate" viewBox="0 0 10 10" refX="9" refY="5" markerWidth="6" markerHeight="6" orient="auto">
      <path d="M1 2 L9 5 L1 8" fill="none" stroke="#475569" stroke-width="1.8" stroke-linecap="round"/>
    </marker>
  </defs>
  <rect width="284" height="444" fill="#F8FAFC"/>
  <text x="211" y="30" text-anchor="middle" font-family="Arial, Helvetica, sans-serif" font-size="11" font-weight="700" fill="#0F172A">Diagram 75</text>
  <rect x="158" y="44" width="106" height="33" rx="10" fill="#FFFFFF" stroke="#E2E8F0" stroke-width="1.8" filter="url(#sh)"/>
  <text x="211" y="66" text-anchor="middle" font-family="Arial, Helvetica, sans-serif" font-size="9" font-weight="600" fill="#0F172A">Incident Detected</text>
  <line x1="211" y1="77" x2="211" y2="82" stroke="#475569" stroke-width="2" marker-end="url(#m-slate)"/>
  <line x1="211" y1="88" x2="211" y2="94" stroke="#475569" stroke-width="2" marker-end="url(#m-slate)"/>
  <rect x="161" y="100" width="101" height="33" rx="10" fill="#FFFFFF" stroke="#E2E8F0" stroke-width="1.8" filter="url(#sh)"/>
  <text x="211" y="122" text-anchor="middle" font-family="Arial, Helvetica, sans-serif" font-size="9" font-weight="600" fill="#0F172A">Collect Evidence</text>
  <line x1="211" y1="133" x2="211" y2="138" stroke="#475569" stroke-width="2" marker-end="url(#m-slate)"/>
  <line x1="211" y1="144" x2="211" y2="150" stroke="#475569" stroke-width="2" marker-end="url(#m-slate)"/>
  <rect x="165" y="156" width="92" height="45" rx="10" fill="#FFFFFF" stroke="#E2E8F0" stroke-width="1.8" filter="url(#sh)"/>
  <text x="211" y="178" text-anchor="middle" font-family="Arial, Helvetica, sans-serif" font-size="9" font-weight="600" fill="#0F172A">Analyze</text>
  <text x="211" y="190" text-anchor="middle" font-family="Arial, Helvetica, sans-serif" font-size="9" font-weight="600" fill="#0F172A">Relationships</text>
  <line x1="211" y1="201" x2="211" y2="206" stroke="#475569" stroke-width="2" marker-end="url(#m-slate)"/>
  <line x1="211" y1="212" x2="211" y2="218" stroke="#475569" stroke-width="2" marker-end="url(#m-slate)"/>
  <rect x="153" y="224" width="116" height="33" rx="10" fill="#FFFFFF" stroke="#E2E8F0" stroke-width="1.8" filter="url(#sh)"/>
  <text x="211" y="240" text-anchor="middle" font-family="Arial, Helvetica, sans-serif" font-size="9" font-weight="600" fill="#0F172A">Generate</text>
  <text x="211" y="252" text-anchor="middle" font-family="Arial, Helvetica, sans-serif" font-size="9" font-weight="600" fill="#0F172A">Hypotheses</text>
  <line x1="211" y1="257" x2="211" y2="262" stroke="#475569" stroke-width="2" marker-end="url(#m-slate)"/>
  <line x1="211" y1="268" x2="211" y2="274" stroke="#475569" stroke-width="2" marker-end="url(#m-slate)"/>
  <rect x="151" y="280" width="121" height="33" rx="10" fill="#FFFFFF" stroke="#E2E8F0" stroke-width="1.8" filter="url(#sh)"/>
  <text x="211" y="296" text-anchor="middle" font-family="Arial, Helvetica, sans-serif" font-size="9" font-weight="600" fill="#0F172A">Rank Possible</text>
  <text x="211" y="308" text-anchor="middle" font-family="Arial, Helvetica, sans-serif" font-size="9" font-weight="600" fill="#0F172A">Causes</text>
  <line x1="211" y1="313" x2="211" y2="318" stroke="#475569" stroke-width="2" marker-end="url(#m-slate)"/>
  <line x1="211" y1="324" x2="211" y2="330" stroke="#475569" stroke-width="2" marker-end="url(#m-slate)"/>
  <rect x="161" y="336" width="101" height="33" rx="10" fill="#FFFFFF" stroke="#E2E8F0" stroke-width="1.8" filter="url(#sh)"/>
  <text x="211" y="358" text-anchor="middle" font-family="Arial, Helvetica, sans-serif" font-size="9" font-weight="600" fill="#0F172A">Present Findings</text>
  <line x1="211" y1="369" x2="211" y2="374" stroke="#475569" stroke-width="2" marker-end="url(#m-slate)"/>
  <line x1="211" y1="380" x2="211" y2="386" stroke="#475569" stroke-width="2" marker-end="url(#m-slate)"/>
  <rect x="165" y="392" width="92" height="33" rx="10" fill="#FFFFFF" stroke="#E2E8F0" stroke-width="1.8" filter="url(#sh)"/>
  <text x="211" y="414" text-anchor="middle" font-family="Arial, Helvetica, sans-serif" font-size="9" font-weight="600" fill="#0F172A">Analyst Review</text>
</svg>
