<svg xmlns="http://www.w3.org/2000/svg" viewBox="0 0 144 159" width="144" height="159" role="img" aria-label="Why Detection Pipelines Matter">
  <defs>
    <filter id="sh" x="-12%" y="-12%" width="124%" height="124%">
      <feDropShadow dx="0" dy="2" stdDeviation="2" flood-color="#0F172A" flood-opacity="0.1"/>
    </filter>
    <marker id="m-slate" viewBox="0 0 10 10" refX="9" refY="5" markerWidth="6" markerHeight="6" orient="auto">
      <path d="M1 2 L9 5 L1 8" fill="none" stroke="#475569" stroke-width="1.8" stroke-linecap="round"/>
    </marker>
  </defs>
  <rect width="144" height="159" fill="#F8FAFC"/>
  <text x="106" y="15" text-anchor="middle" font-family="Arial, Helvetica, sans-serif" font-size="5" font-weight="700" fill="#0F172A">Why Detection Pipelines Matter</text>
  <rect x="78" y="22" width="56" height="17" rx="10" fill="#FFFFFF" stroke="#E2E8F0" stroke-width="1.8" filter="url(#sh)"/>
  <text x="106" y="33" text-anchor="middle" font-family="Arial, Helvetica, sans-serif" font-size="4" font-weight="600" fill="#0F172A">System Activity</text>
  <line x1="106" y1="39" x2="106" y2="38" stroke="#475569" stroke-width="2" marker-end="url(#m-slate)"/>
  <rect x="83" y="44" width="46" height="17" rx="10" fill="#FFFFFF" stroke="#E2E8F0" stroke-width="1.8" filter="url(#sh)"/>
  <text x="106" y="55" text-anchor="middle" font-family="Arial, Helvetica, sans-serif" font-size="4" font-weight="600" fill="#0F172A">Logs</text>
  <line x1="106" y1="61" x2="106" y2="60" stroke="#475569" stroke-width="2" marker-end="url(#m-slate)"/>
  <rect x="83" y="66" width="46" height="17" rx="10" fill="#FFFFFF" stroke="#E2E8F0" stroke-width="1.8" filter="url(#sh)"/>
  <text x="106" y="77" text-anchor="middle" font-family="Arial, Helvetica, sans-serif" font-size="4" font-weight="600" fill="#0F172A">Metrics</text>
  <line x1="106" y1="83" x2="106" y2="82" stroke="#475569" stroke-width="2" marker-end="url(#m-slate)"/>
  <rect x="83" y="88" width="46" height="17" rx="10" fill="#FFFFFF" stroke="#E2E8F0" stroke-width="1.8" filter="url(#sh)"/>
  <text x="106" y="99" text-anchor="middle" font-family="Arial, Helvetica, sans-serif" font-size="4" font-weight="600" fill="#0F172A">Alarms</text>
  <line x1="106" y1="105" x2="106" y2="104" stroke="#475569" stroke-width="2" marker-end="url(#m-slate)"/>
  <rect x="80" y="110" width="53" height="17" rx="10" fill="#FFFFFF" stroke="#E2E8F0" stroke-width="1.8" filter="url(#sh)"/>
  <text x="106" y="121" text-anchor="middle" font-family="Arial, Helvetica, sans-serif" font-size="4" font-weight="600" fill="#0F172A">Investigations</text>
  <line x1="106" y1="127" x2="106" y2="126" stroke="#475569" stroke-width="2" marker-end="url(#m-slate)"/>
  <rect x="80" y="132" width="53" height="17" rx="10" fill="#FFFFFF" stroke="#E2E8F0" stroke-width="1.8" filter="url(#sh)"/>
  <text x="106" y="143" text-anchor="middle" font-family="Arial, Helvetica, sans-serif" font-size="4" font-weight="600" fill="#0F172A">Analyst Action</text>
</svg>
