<svg xmlns="http://www.w3.org/2000/svg" viewBox="0 0 144 203" width="144" height="203" role="img" aria-label="Expected Detection Flow">
  <defs>
    <filter id="sh" x="-12%" y="-12%" width="124%" height="124%">
      <feDropShadow dx="0" dy="2" stdDeviation="2" flood-color="#0F172A" flood-opacity="0.1"/>
    </filter>
    <marker id="m-slate" viewBox="0 0 10 10" refX="9" refY="5" markerWidth="6" markerHeight="6" orient="auto">
      <path d="M1 2 L9 5 L1 8" fill="none" stroke="#475569" stroke-width="1.8" stroke-linecap="round"/>
    </marker>
  </defs>
  <rect width="144" height="203" fill="#F8FAFC"/>
  <text x="106" y="15" text-anchor="middle" font-family="Arial, Helvetica, sans-serif" font-size="5" font-weight="700" fill="#0F172A">Expected Detection Flow</text>
  <rect x="77" y="22" width="59" height="17" rx="10" fill="#FFFFFF" stroke="#E2E8F0" stroke-width="1.8" filter="url(#sh)"/>
  <text x="106" y="33" text-anchor="middle" font-family="Arial, Helvetica, sans-serif" font-size="4" font-weight="600" fill="#0F172A">Attacker Account</text>
  <line x1="106" y1="39" x2="106" y2="38" stroke="#475569" stroke-width="2" marker-end="url(#m-slate)"/>
  <rect x="74" y="44" width="65" height="17" rx="10" fill="#FFFFFF" stroke="#E2E8F0" stroke-width="1.8" filter="url(#sh)"/>
  <text x="106" y="55" text-anchor="middle" font-family="Arial, Helvetica, sans-serif" font-size="4" font-weight="600" fill="#0F172A">Suspicious Command</text>
  <line x1="106" y1="61" x2="106" y2="60" stroke="#475569" stroke-width="2" marker-end="url(#m-slate)"/>
  <rect x="83" y="66" width="46" height="17" rx="10" fill="#FFFFFF" stroke="#E2E8F0" stroke-width="1.8" filter="url(#sh)"/>
  <text x="106" y="77" text-anchor="middle" font-family="Arial, Helvetica, sans-serif" font-size="4" font-weight="600" fill="#0F172A">Audit Log</text>
  <line x1="106" y1="83" x2="106" y2="82" stroke="#475569" stroke-width="2" marker-end="url(#m-slate)"/>
  <rect x="78" y="88" width="56" height="17" rx="10" fill="#FFFFFF" stroke="#E2E8F0" stroke-width="1.8" filter="url(#sh)"/>
  <text x="106" y="99" text-anchor="middle" font-family="Arial, Helvetica, sans-serif" font-size="4" font-weight="600" fill="#0F172A">CloudWatch Logs</text>
  <line x1="106" y1="105" x2="106" y2="104" stroke="#475569" stroke-width="2" marker-end="url(#m-slate)"/>
  <rect x="81" y="110" width="50" height="17" rx="10" fill="#FFFFFF" stroke="#E2E8F0" stroke-width="1.8" filter="url(#sh)"/>
  <text x="106" y="121" text-anchor="middle" font-family="Arial, Helvetica, sans-serif" font-size="4" font-weight="600" fill="#0F172A">Metric Filter</text>
  <line x1="106" y1="127" x2="106" y2="126" stroke="#475569" stroke-width="2" marker-end="url(#m-slate)"/>
  <rect x="77" y="132" width="59" height="17" rx="10" fill="#FFFFFF" stroke="#E2E8F0" stroke-width="1.8" filter="url(#sh)"/>
  <text x="106" y="143" text-anchor="middle" font-family="Arial, Helvetica, sans-serif" font-size="4" font-weight="600" fill="#0F172A">CloudWatch Alarm</text>
  <line x1="106" y1="149" x2="106" y2="148" stroke="#475569" stroke-width="2" marker-end="url(#m-slate)"/>
  <rect x="77" y="154" width="59" height="17" rx="10" fill="#FFFFFF" stroke="#E2E8F0" stroke-width="1.8" filter="url(#sh)"/>
  <text x="106" y="165" text-anchor="middle" font-family="Arial, Helvetica, sans-serif" font-size="4" font-weight="600" fill="#0F172A">AI Investigation</text>
  <line x1="106" y1="171" x2="106" y2="170" stroke="#475569" stroke-width="2" marker-end="url(#m-slate)"/>
  <rect x="83" y="176" width="46" height="17" rx="10" fill="#FFFFFF" stroke="#E2E8F0" stroke-width="1.8" filter="url(#sh)"/>
  <text x="106" y="187" text-anchor="middle" font-family="Arial, Helvetica, sans-serif" font-size="4" font-weight="600" fill="#0F172A">SOC Review</text>
</svg>
