<svg xmlns="http://www.w3.org/2000/svg" viewBox="0 0 144 159" width="144" height="159" role="img" aria-label="Real Attack Lifecycle">
  <defs>
    <filter id="sh" x="-12%" y="-12%" width="124%" height="124%">
      <feDropShadow dx="0" dy="2" stdDeviation="2" flood-color="#0F172A" flood-opacity="0.1"/>
    </filter>
    <marker id="m-slate" viewBox="0 0 10 10" refX="9" refY="5" markerWidth="6" markerHeight="6" orient="auto">
      <path d="M1 2 L9 5 L1 8" fill="none" stroke="#475569" stroke-width="1.8" stroke-linecap="round"/>
    </marker>
  </defs>
  <rect width="144" height="159" fill="#F8FAFC"/>
  <text x="106" y="15" text-anchor="middle" font-family="Arial, Helvetica, sans-serif" font-size="5" font-weight="700" fill="#0F172A">Real Attack Lifecycle</text>
  <rect x="83" y="22" width="47" height="17" rx="10" fill="#FFFFFF" stroke="#E2E8F0" stroke-width="1.8" filter="url(#sh)"/>
  <text x="106" y="33" text-anchor="middle" font-family="Arial, Helvetica, sans-serif" font-size="4" font-weight="600" fill="#0F172A">User Account</text>
  <line x1="106" y1="39" x2="106" y2="38" stroke="#475569" stroke-width="2" marker-end="url(#m-slate)"/>
  <rect x="75" y="44" width="62" height="17" rx="10" fill="#FFFFFF" stroke="#E2E8F0" stroke-width="1.8" filter="url(#sh)"/>
  <text x="106" y="55" text-anchor="middle" font-family="Arial, Helvetica, sans-serif" font-size="4" font-weight="600" fill="#0F172A">Credential Access</text>
  <line x1="106" y1="61" x2="106" y2="60" stroke="#475569" stroke-width="2" marker-end="url(#m-slate)"/>
  <rect x="71" y="66" width="71" height="17" rx="10" fill="#FFFFFF" stroke="#E2E8F0" stroke-width="1.8" filter="url(#sh)"/>
  <text x="106" y="74" text-anchor="middle" font-family="Arial, Helvetica, sans-serif" font-size="4" font-weight="600" fill="#0F172A">Privilege</text>
  <text x="106" y="80" text-anchor="middle" font-family="Arial, Helvetica, sans-serif" font-size="4" font-weight="600" fill="#0F172A">Escalation</text>
  <line x1="106" y1="83" x2="106" y2="82" stroke="#475569" stroke-width="2" marker-end="url(#m-slate)"/>
  <rect x="83" y="88" width="46" height="17" rx="10" fill="#FFFFFF" stroke="#E2E8F0" stroke-width="1.8" filter="url(#sh)"/>
  <text x="106" y="99" text-anchor="middle" font-family="Arial, Helvetica, sans-serif" font-size="4" font-weight="600" fill="#0F172A">Persistence</text>
  <line x1="106" y1="105" x2="106" y2="104" stroke="#475569" stroke-width="2" marker-end="url(#m-slate)"/>
  <rect x="77" y="110" width="59" height="17" rx="10" fill="#FFFFFF" stroke="#E2E8F0" stroke-width="1.8" filter="url(#sh)"/>
  <text x="106" y="121" text-anchor="middle" font-family="Arial, Helvetica, sans-serif" font-size="4" font-weight="600" fill="#0F172A">Lateral Movement</text>
  <line x1="106" y1="127" x2="106" y2="126" stroke="#475569" stroke-width="2" marker-end="url(#m-slate)"/>
  <rect x="83" y="132" width="46" height="17" rx="10" fill="#FFFFFF" stroke="#E2E8F0" stroke-width="1.8" filter="url(#sh)"/>
  <text x="106" y="143" text-anchor="middle" font-family="Arial, Helvetica, sans-serif" font-size="4" font-weight="600" fill="#0F172A">Impact</text>
</svg>
