<svg xmlns="http://www.w3.org/2000/svg" viewBox="0 0 800 808" width="220" height="222" role="img">
  <defs>
    <filter id="sh" x="-15%" y="-15%" width="130%" height="130%">
      <feDropShadow dx="0" dy="2" stdDeviation="2.5" flood-color="#0F172A" flood-opacity="0.08"/>
    </filter>
    <linearGradient id="aws" x1="0" y1="0" x2="1" y2="1">
      <stop offset="0%" stop-color="#FF9900"/><stop offset="100%" stop-color="#E65100"/>
    </linearGradient>
    <marker id="m-blue" viewBox="0 0 10 10" refX="9" refY="5" markerWidth="7" markerHeight="7" orient="auto"><path d="M1 2 L9 5 L1 8" fill="none" stroke="#2563EB" stroke-width="1.8" stroke-linecap="round"/></marker>
    <marker id="m-green" viewBox="0 0 10 10" refX="9" refY="5" markerWidth="7" markerHeight="7" orient="auto"><path d="M1 2 L9 5 L1 8" fill="none" stroke="#16A34A" stroke-width="1.8" stroke-linecap="round"/></marker>
    <marker id="m-slate" viewBox="0 0 10 10" refX="9" refY="5" markerWidth="7" markerHeight="7" orient="auto"><path d="M1 2 L9 5 L1 8" fill="none" stroke="#475569" stroke-width="1.8" stroke-linecap="round"/></marker>
    <marker id="m-amber" viewBox="0 0 10 10" refX="9" refY="5" markerWidth="7" markerHeight="7" orient="auto"><path d="M1 2 L9 5 L1 8" fill="none" stroke="#D97706" stroke-width="1.8" stroke-linecap="round"/></marker>
    <marker id="m-red" viewBox="0 0 10 10" refX="9" refY="5" markerWidth="7" markerHeight="7" orient="auto"><path d="M1 2 L9 5 L1 8" fill="none" stroke="#DC2626" stroke-width="1.8" stroke-linecap="round"/></marker>
  </defs>
  <rect width="800" height="808" fill="#F8FAFC"/>
  <text x="400" y="44" text-anchor="middle" font-family="Arial, Helvetica, sans-serif" font-size="20" font-weight="700" fill="#0F172A">Lab 1.1 Roadmap</text>
  <text x="400" y="64" text-anchor="middle" font-family="Arial, Helvetica, sans-serif" font-size="12" fill="#64748B">8 steps · us-east-1 · personal AWS</text>
  <rect x="20" y="68" width="760" height="720" rx="14" fill="#FFFFFF" stroke="#E2E8F0" stroke-width="2" filter="url(#sh)"/>
  <circle cx="400" cy="98" r="22" fill="#16A34A"/>
  <text x="400" y="104" text-anchor="middle" font-family="Arial, Helvetica, sans-serif" font-size="12" font-weight="700" fill="#FFF">START</text>
  <path d="M400 120 V130" fill="none" stroke="#475569" stroke-width="2.5" marker-end="url(#m-slate)"/>
  <rect x="40" y="138" width="720" height="118" rx="10" fill="#EFF6FF" stroke="#2563EB" stroke-width="2"/>
  <text x="58" y="162" text-anchor="start" font-family="Arial, Helvetica, sans-serif" font-size="13" font-weight="700" fill="#2563EB">Phase 1 · AWS Setup</text>
  <rect x="87" y="174" width="190" height="58" rx="8" fill="#FFF" stroke="#2563EB"/>
  <circle cx="109" cy="196" r="14" fill="#2563EB"/>
  <text x="109" y="201" text-anchor="middle" font-family="Arial, Helvetica, sans-serif" font-size="12" font-weight="700" fill="#FFF">1</text>
  <text x="192" y="200" text-anchor="middle" font-family="Arial, Helvetica, sans-serif" font-size="11" font-weight="600" fill="#2563EB">Create SSH key</text>
  <text x="192" y="216" text-anchor="middle" font-family="Arial, Helvetica, sans-serif" font-size="9" font-weight="400" fill="#64748B">soc-lab-key.pem</text>
  <path d="M277 203 H305" fill="none" stroke="#2563EB" stroke-width="2.5" marker-end="url(#m-blue)"/>
  <rect x="305" y="174" width="190" height="58" rx="8" fill="#FFF" stroke="#2563EB"/>
  <circle cx="327" cy="196" r="14" fill="#2563EB"/>
  <text x="327" y="201" text-anchor="middle" font-family="Arial, Helvetica, sans-serif" font-size="12" font-weight="700" fill="#FFF">2</text>
  <text x="410" y="200" text-anchor="middle" font-family="Arial, Helvetica, sans-serif" font-size="11" font-weight="600" fill="#2563EB">Launch EC2</text>
  <text x="410" y="216" text-anchor="middle" font-family="Arial, Helvetica, sans-serif" font-size="9" font-weight="400" fill="#64748B">ports 22, 80</text>
  <path d="M495 203 H523" fill="none" stroke="#2563EB" stroke-width="2.5" marker-end="url(#m-blue)"/>
  <rect x="523" y="174" width="190" height="58" rx="8" fill="#FFF" stroke="#2563EB"/>
  <circle cx="545" cy="196" r="14" fill="#2563EB"/>
  <text x="545" y="201" text-anchor="middle" font-family="Arial, Helvetica, sans-serif" font-size="12" font-weight="700" fill="#FFF">3</text>
  <text x="628" y="200" text-anchor="middle" font-family="Arial, Helvetica, sans-serif" font-size="11" font-weight="600" fill="#2563EB">Get public IP</text>
  <path d="M400 256 V276" fill="none" stroke="#475569" stroke-width="2.5" marker-end="url(#m-slate)"/>
  <rect x="40" y="282" width="720" height="118" rx="10" fill="#ECFDF5" stroke="#16A34A" stroke-width="2"/>
  <text x="58" y="306" text-anchor="start" font-family="Arial, Helvetica, sans-serif" font-size="13" font-weight="700" fill="#16A34A">Phase 2 · Connect</text>
  <rect x="196" y="318" width="190" height="58" rx="8" fill="#FFF" stroke="#16A34A"/>
  <circle cx="218" cy="340" r="14" fill="#16A34A"/>
  <text x="218" y="345" text-anchor="middle" font-family="Arial, Helvetica, sans-serif" font-size="12" font-weight="700" fill="#FFF">4</text>
  <text x="301" y="344" text-anchor="middle" font-family="Arial, Helvetica, sans-serif" font-size="11" font-weight="600" fill="#16A34A">SSH config</text>
  <text x="301" y="360" text-anchor="middle" font-family="Arial, Helvetica, sans-serif" font-size="9" font-weight="400" fill="#64748B">VS Code</text>
  <path d="M386 347 H414" fill="none" stroke="#16A34A" stroke-width="2.5" marker-end="url(#m-green)"/>
  <rect x="414" y="318" width="190" height="58" rx="8" fill="#FFF" stroke="#16A34A"/>
  <circle cx="436" cy="340" r="14" fill="#16A34A"/>
  <text x="436" y="345" text-anchor="middle" font-family="Arial, Helvetica, sans-serif" font-size="12" font-weight="700" fill="#FFF">5</text>
  <text x="519" y="344" text-anchor="middle" font-family="Arial, Helvetica, sans-serif" font-size="11" font-weight="600" fill="#16A34A">Connect EC2</text>
  <text x="519" y="360" text-anchor="middle" font-family="Arial, Helvetica, sans-serif" font-size="9" font-weight="400" fill="#64748B">Remote terminal</text>
  <path d="M400 400 V420" fill="none" stroke="#475569" stroke-width="2.5" marker-end="url(#m-slate)"/>
  <rect x="40" y="426" width="720" height="118" rx="10" fill="#FFFBEB" stroke="#D97706" stroke-width="2"/>
  <text x="58" y="450" text-anchor="start" font-family="Arial, Helvetica, sans-serif" font-size="13" font-weight="700" fill="#D97706">Phase 3 · Linux</text>
  <rect x="196" y="462" width="190" height="58" rx="8" fill="#FFF" stroke="#D97706"/>
  <circle cx="218" cy="484" r="14" fill="#D97706"/>
  <text x="218" y="489" text-anchor="middle" font-family="Arial, Helvetica, sans-serif" font-size="12" font-weight="700" fill="#FFF">6</text>
  <text x="301" y="488" text-anchor="middle" font-family="Arial, Helvetica, sans-serif" font-size="11" font-weight="600" fill="#D97706">Scripts &amp; chmod</text>
  <text x="301" y="504" text-anchor="middle" font-family="Arial, Helvetica, sans-serif" font-size="9" font-weight="400" fill="#64748B">hello.sh</text>
  <path d="M386 491 H414" fill="none" stroke="#D97706" stroke-width="2.5" marker-end="url(#m-amber)"/>
  <rect x="414" y="462" width="190" height="58" rx="8" fill="#FFF" stroke="#D97706"/>
  <circle cx="436" cy="484" r="14" fill="#D97706"/>
  <text x="436" y="489" text-anchor="middle" font-family="Arial, Helvetica, sans-serif" font-size="12" font-weight="700" fill="#FFF">7</text>
  <text x="519" y="488" text-anchor="middle" font-family="Arial, Helvetica, sans-serif" font-size="11" font-weight="600" fill="#D97706">SetUID find</text>
  <text x="519" y="504" text-anchor="middle" font-family="Arial, Helvetica, sans-serif" font-size="9" font-weight="400" fill="#64748B">privilege risk</text>
  <path d="M400 544 V564" fill="none" stroke="#475569" stroke-width="2.5" marker-end="url(#m-slate)"/>
  <rect x="40" y="570" width="720" height="118" rx="10" fill="#FEE2E2" stroke="#DC2626" stroke-width="2"/>
  <text x="58" y="594" text-anchor="start" font-family="Arial, Helvetica, sans-serif" font-size="13" font-weight="700" fill="#DC2626">Phase 4 · Web</text>
  <rect x="305" y="606" width="190" height="58" rx="8" fill="#FFF" stroke="#DC2626"/>
  <circle cx="327" cy="628" r="14" fill="#DC2626"/>
  <text x="327" y="633" text-anchor="middle" font-family="Arial, Helvetica, sans-serif" font-size="12" font-weight="700" fill="#FFF">8</text>
  <text x="410" y="632" text-anchor="middle" font-family="Arial, Helvetica, sans-serif" font-size="11" font-weight="600" fill="#DC2626">nginx + access.log</text>
  <text x="410" y="648" text-anchor="middle" font-family="Arial, Helvetica, sans-serif" font-size="9" font-weight="400" fill="#64748B">Lab 1.2 telemetry</text>
  <rect x="320" y="722" width="160" height="44" rx="22" fill="#16A34A"/>
  <text x="400" y="750" text-anchor="middle" font-family="Arial, Helvetica, sans-serif" font-size="14" font-weight="700" fill="#FFF">Done</text>

</svg>
