<svg xmlns="http://www.w3.org/2000/svg" viewBox="0 0 760 820" role="img" aria-label="Lab 1.1 step roadmap">
  <defs><marker id="a" viewBox="0 0 10 10" refX="9" refY="5" markerWidth="7" markerHeight="7" orient="auto"><path d="M1 1 L9 5 L1 9" fill="none" stroke="#475569" stroke-width="1.8" stroke-linecap="round" stroke-linejoin="round"/></marker><marker id="b" viewBox="0 0 10 10" refX="9" refY="5" markerWidth="7" markerHeight="7" orient="auto"><path d="M1 1 L9 5 L1 9" fill="none" stroke="#2563EB" stroke-width="1.8" stroke-linecap="round" stroke-linejoin="round"/></marker><marker id="g" viewBox="0 0 10 10" refX="9" refY="5" markerWidth="7" markerHeight="7" orient="auto"><path d="M1 1 L9 5 L1 9" fill="none" stroke="#16A34A" stroke-width="1.8" stroke-linecap="round" stroke-linejoin="round"/></marker><marker id="o" viewBox="0 0 10 10" refX="9" refY="5" markerWidth="7" markerHeight="7" orient="auto"><path d="M1 1 L9 5 L1 9" fill="none" stroke="#D97706" stroke-width="1.8" stroke-linecap="round" stroke-linejoin="round"/></marker><marker id="r" viewBox="0 0 10 10" refX="9" refY="5" markerWidth="7" markerHeight="7" orient="auto"><path d="M1 1 L9 5 L1 9" fill="none" stroke="#DC2626" stroke-width="1.8" stroke-linecap="round" stroke-linejoin="round"/></marker></defs>
  <rect width="760" height="820" fill="#F8FAFC"/>

  <text x="380" y="40" text-anchor="middle" font-family="Arial, Helvetica, Sans-serif" font-size="20" font-weight="700" fill="#0F172A">Lab 1.1 Roadmap</text>
  <text x="380" y="62" text-anchor="middle" font-family="Arial, Helvetica, Sans-serif" font-size="12" fill="#64748B">8 steps · us-east-1</text>

  <circle cx="380" cy="92" r="22" fill="#16A34A"/>
  <text x="380" y="98" text-anchor="middle" font-family="Arial, Helvetica, Sans-serif" font-size="12" font-weight="700" fill="#FFF">GO</text>
  <line x1="380" y1="114" x2="380" y2="132" stroke="#475569" stroke-width="2.5" marker-end="url(#a)"/>

  <!-- Phase 1 -->
  <rect x="30" y="132" width="700" height="118" rx="10" fill="#EFF6FF" stroke="#2563EB" stroke-width="1.5"/>
  <text x="48" y="156" font-family="Arial, Helvetica, Sans-serif" font-size="13" font-weight="700" fill="#1E40AF">Phase 1 · AWS Setup</text>
  <g>
    <rect x="60" y="168" width="190" height="58" rx="8" fill="#FFF" stroke="#2563EB"/>
    <circle cx="82" cy="197" r="14" fill="#2563EB"/><text x="82" y="202" text-anchor="middle" font-family="Arial, Helvetica, Sans-serif" font-size="12" font-weight="700" fill="#FFF">1</text>
    <text x="165" y="194" text-anchor="middle" font-family="Arial, Helvetica, Sans-serif" font-size="12" font-weight="600" fill="#1E3A8A">Create SSH key</text>
    <text x="165" y="212" text-anchor="middle" font-family="Arial, Helvetica, Sans-serif" font-size="10" fill="#64748B">soc-lab-key.pem</text>
  </g>
  <line x1="250" y1="197" x2="278" y2="197" stroke="#2563EB" stroke-width="2.5" marker-end="url(#b)"/>
  <g>
    <rect x="278" y="168" width="190" height="58" rx="8" fill="#FFF" stroke="#2563EB"/>
    <circle cx="300" cy="197" r="14" fill="#2563EB"/><text x="300" y="202" text-anchor="middle" font-family="Arial, Helvetica, Sans-serif" font-size="12" font-weight="700" fill="#FFF">2</text>
    <text x="383" y="194" text-anchor="middle" font-family="Arial, Helvetica, Sans-serif" font-size="12" font-weight="600" fill="#1E3A8A">Launch EC2</text>
    <text x="383" y="212" text-anchor="middle" font-family="Arial, Helvetica, Sans-serif" font-size="10" fill="#64748B">ports 22, 80</text>
  </g>
  <line x1="468" y1="197" x2="496" y2="197" stroke="#2563EB" stroke-width="2.5" marker-end="url(#b)"/>
  <g>
    <rect x="496" y="168" width="190" height="58" rx="8" fill="#FFF" stroke="#2563EB"/>
    <circle cx="518" cy="197" r="14" fill="#2563EB"/><text x="518" y="202" text-anchor="middle" font-family="Arial, Helvetica, Sans-serif" font-size="12" font-weight="700" fill="#FFF">3</text>
    <text x="601" y="203" text-anchor="middle" font-family="Arial, Helvetica, Sans-serif" font-size="12" font-weight="600" fill="#1E3A8A">Get public IP</text>
  </g>
  <line x1="380" y1="250" x2="380" y2="268" stroke="#475569" stroke-width="2.5" marker-end="url(#a)"/>

  <!-- Phase 2 -->
  <rect x="30" y="268" width="700" height="118" rx="10" fill="#ECFDF5" stroke="#16A34A" stroke-width="1.5"/>
  <text x="48" y="292" font-family="Arial, Helvetica, Sans-serif" font-size="13" font-weight="700" fill="#166534">Phase 2 · Connect</text>
  <g>
    <rect x="195" y="304" width="190" height="58" rx="8" fill="#FFF" stroke="#16A34A"/>
    <circle cx="217" cy="333" r="14" fill="#16A34A"/><text x="217" y="338" text-anchor="middle" font-family="Arial, Helvetica, Sans-serif" font-size="12" font-weight="700" fill="#FFF">4</text>
    <text x="300" y="339" text-anchor="middle" font-family="Arial, Helvetica, Sans-serif" font-size="12" font-weight="600" fill="#166534">SSH config</text>
  </g>
  <line x1="385" y1="333" x2="413" y2="333" stroke="#16A34A" stroke-width="2.5" marker-end="url(#g)"/>
  <g>
    <rect x="413" y="304" width="190" height="58" rx="8" fill="#FFF" stroke="#16A34A"/>
    <circle cx="435" cy="333" r="14" fill="#16A34A"/><text x="435" y="338" text-anchor="middle" font-family="Arial, Helvetica, Sans-serif" font-size="12" font-weight="700" fill="#FFF">5</text>
    <text x="518" y="339" text-anchor="middle" font-family="Arial, Helvetica, Sans-serif" font-size="12" font-weight="600" fill="#166534">Connect EC2</text>
  </g>
  <line x1="380" y1="386" x2="380" y2="404" stroke="#475569" stroke-width="2.5" marker-end="url(#a)"/>

  <!-- Phase 3 -->
  <rect x="30" y="404" width="700" height="118" rx="10" fill="#fffbeb" stroke="#D97706" stroke-width="1.5"/>
  <text x="48" y="428" font-family="Arial, Helvetica, Sans-serif" font-size="13" font-weight="700" fill="#92400E">Phase 3 · Linux</text>
  <g>
    <rect x="195" y="440" width="190" height="58" rx="8" fill="#FFF" stroke="#D97706"/>
    <circle cx="217" cy="469" r="14" fill="#D97706"/><text x="217" y="474" text-anchor="middle" font-family="Arial, Helvetica, Sans-serif" font-size="12" font-weight="700" fill="#FFF">6</text>
    <text x="300" y="475" text-anchor="middle" font-family="Arial, Helvetica, Sans-serif" font-size="12" font-weight="600" fill="#92400E">Scripts &amp; chmod</text>
  </g>
  <line x1="385" y1="469" x2="413" y2="469" stroke="#D97706" stroke-width="2.5" marker-end="url(#o)"/>
  <g>
    <rect x="413" y="440" width="190" height="58" rx="8" fill="#FFF" stroke="#D97706"/>
    <circle cx="435" cy="469" r="14" fill="#D97706"/><text x="435" y="474" text-anchor="middle" font-family="Arial, Helvetica, Sans-serif" font-size="12" font-weight="700" fill="#FFF">7</text>
    <text x="518" y="475" text-anchor="middle" font-family="Arial, Helvetica, Sans-serif" font-size="12" font-weight="600" fill="#92400E">SetUID find</text>
  </g>
  <line x1="380" y1="522" x2="380" y2="540" stroke="#475569" stroke-width="2.5" marker-end="url(#a)"/>

  <!-- Phase 4 -->
  <rect x="30" y="540" width="700" height="118" rx="10" fill="#FEE2E2" stroke="#DC2626" stroke-width="1.5"/>
  <text x="48" y="564" font-family="Arial, Helvetica, Sans-serif" font-size="13" font-weight="700" fill="#991B1B">Phase 4 · Web</text>
  <g>
    <rect x="285" y="576" width="190" height="58" rx="8" fill="#FFF" stroke="#DC2626"/>
    <circle cx="307" cy="605" r="14" fill="#DC2626"/><text x="307" y="610" text-anchor="middle" font-family="Arial, Helvetica, Sans-serif" font-size="12" font-weight="700" fill="#FFF">8</text>
    <text x="390" y="611" text-anchor="middle" font-family="Arial, Helvetica, Sans-serif" font-size="12" font-weight="600" fill="#991B1B">nginx + access.log</text>
  </g>
  <line x1="380" y1="658" x2="380" y2="676" stroke="#16A34A" stroke-width="2.5" marker-end="url(#g)"/>

  <rect x="300" y="676" width="160" height="44" rx="22" fill="#16A34A"/>
  <text x="380" y="704" text-anchor="middle" font-family="Arial, Helvetica, Sans-serif" font-size="14" font-weight="700" fill="#FFF">Done</text>
</svg>
