<svg xmlns="http://www.w3.org/2000/svg" viewBox="0 0 820 460" role="img" aria-label="Lab 1.1 architecture">
  <defs>
    <marker id="b" viewBox="0 0 10 10" refX="9" refY="5" markerWidth="7" markerHeight="7" orient="auto"><path d="M1 1 L9 5 L1 9" fill="none" stroke="#2563EB" stroke-width="1.8" stroke-linecap="round" stroke-linejoin="round"/></marker><marker id="g" viewBox="0 0 10 10" refX="9" refY="5" markerWidth="7" markerHeight="7" orient="auto"><path d="M1 1 L9 5 L1 9" fill="none" stroke="#16A34A" stroke-width="1.8" stroke-linecap="round" stroke-linejoin="round"/></marker>
    <linearGradient id="aws" x1="0" y1="0" x2="1" y2="1">
      <stop offset="0%" stop-color="#FF9900"/><stop offset="100%" stop-color="#E65100"/>
    </linearGradient>
  </defs>
  <rect width="820" height="460" fill="#F8FAFC"/>
  <text x="410" y="36" text-anchor="middle" font-family="Arial, Helvetica, Sans-serif" font-size="18" font-weight="700" fill="#0F172A">Lab Architecture</text>

  <rect x="40" y="56" width="740" height="32" rx="6" fill="#E0F2FE" stroke="#0284C7"/>
  <text x="410" y="77" text-anchor="middle" font-family="Arial, Helvetica, Sans-serif" font-size="12" font-weight="600" fill="#0369A1">Internet</text>

  <!-- PC -->
  <rect x="40" y="108" width="180" height="160" rx="10" fill="#DBEAFE" stroke="#2563EB" stroke-width="2"/>
  <text x="130" y="136" text-anchor="middle" font-family="Arial, Helvetica, Sans-serif" font-size="13" font-weight="700" fill="#1E40AF">Your PC</text>
  <text x="130" y="158" text-anchor="middle" font-family="Arial, Helvetica, Sans-serif" font-size="11" fill="#475569">VS Code + browser</text>
  <text x="130" y="176" text-anchor="middle" font-family="Arial, Helvetica, Sans-serif" font-size="11" fill="#475569">soc-lab-key.pem</text>
  <rect x="58" y="196" width="68" height="24" rx="5" fill="#2563EB"/>
  <text x="92" y="212" text-anchor="middle" font-family="Arial, Helvetica, Sans-serif" font-size="10" font-weight="600" fill="#FFF">:22</text>
  <rect x="134" y="196" width="68" height="24" rx="5" fill="#16A34A"/>
  <text x="168" y="212" text-anchor="middle" font-family="Arial, Helvetica, Sans-serif" font-size="10" font-weight="600" fill="#FFF">:80</text>

  <!-- VPC -->
  <rect x="250" y="108" width="530" height="320" rx="10" fill="#FAFAFA" stroke="#94A3B8" stroke-width="1.5" stroke-dasharray="5 3"/>
  <text x="268" y="130" font-family="Arial, Helvetica, Sans-serif" font-size="11" font-weight="700" fill="#64748B">VPC</text>

  <rect x="270" y="144" width="490" height="248" rx="8" fill="#FFF7ED" stroke="#F59E0B" stroke-width="1.5"/>
  <text x="290" y="164" font-family="Arial, Helvetica, Sans-serif" font-size="12" font-weight="700" fill="#92400E">Security Group</text>
  <rect x="290" y="174" width="72" height="22" rx="4" fill="#DC2626"/>
  <text x="326" y="189" text-anchor="middle" font-family="Arial, Helvetica, Sans-serif" font-size="9" font-weight="600" fill="#FFF">:22</text>
  <rect x="370" y="174" width="72" height="22" rx="4" fill="#DC2626"/>
  <text x="406" y="189" text-anchor="middle" font-family="Arial, Helvetica, Sans-serif" font-size="9" font-weight="600" fill="#FFF">:80</text>

  <rect x="290" y="210" width="450" height="130" rx="10" fill="url(#aws)" stroke="#C2410C" stroke-width="2"/>
  <text x="515" y="240" text-anchor="middle" font-family="Arial, Helvetica, Sans-serif" font-size="15" font-weight="700" fill="#FFF">EC2</text>
  <text x="515" y="260" text-anchor="middle" font-family="Arial, Helvetica, Sans-serif" font-size="10" fill="#FFF7ED">Amazon Linux · t2.medium</text>
  <rect x="310" y="276" width="120" height="48" rx="6" fill="rgba(255,255,255,0.22)" stroke="#FFF"/>
  <text x="575" y="305" text-anchor="middle" font-family="Arial, Helvetica, Sans-serif" font-size="11" font-weight="600" fill="#FFF">nginx :80</text>
  <rect x="620" y="276" width="100" height="48" rx="6" fill="rgba(255,255,255,0.22)" stroke="#FFF"/>
  <text x="670" y="305" text-anchor="middle" font-family="Arial, Helvetica, Sans-serif" font-size="10" fill="#FFF">access.log</text>

  <!-- Arrows PC to EC2 -->
  <path d="M220 208 C240 208 255 248 270 248" fill="none" stroke="#2563EB" stroke-width="2.5" marker-end="url(#b)"/>
  <text x="228" y="222" font-family="Arial, Helvetica, Sans-serif" font-size="10" font-weight="600" fill="#2563EB">SSH</text>
  <path d="M220 220 C240 220 255 290 290 290" fill="none" stroke="#16A34A" stroke-width="2.5" marker-end="url(#g)"/>
  <text x="228" y="248" font-family="Arial, Helvetica, Sans-serif" font-size="10" font-weight="600" fill="#16A34A">HTTP</text>

  <rect x="40" y="420" width="740" height="28" rx="6" fill="#F1F5F9"/>
  <text x="410" y="439" text-anchor="middle" font-family="Arial, Helvetica, Sans-serif" font-size="10" fill="#64748B">Blue = SSH · Green = HTTP · Orange = AWS</text>
</svg>
