<svg xmlns="http://www.w3.org/2000/svg" viewBox="0 0 860 520" role="img" aria-label="Lab 1.1 architecture">
  <defs>
    <marker id="ab" markerWidth="10" markerHeight="8" refX="9" refY="4" orient="auto"><path d="M0,0 L9,4 L0,8Z" fill="#2563EB"/></marker>
    <marker id="ag" markerWidth="10" markerHeight="8" refX="9" refY="4" orient="auto"><path d="M0,0 L9,4 L0,8Z" fill="#16A34A"/></marker>
    <linearGradient id="aws" x1="0" y1="0" x2="1" y2="1"><stop offset="0%" stop-color="#FF9900"/><stop offset="100%" stop-color="#E65100"/></linearGradient>
  </defs>
  <rect width="860" height="520" fill="#F8FAFC"/>
  <rect x="20" y="20" width="820" height="480" rx="14" fill="#FFF" stroke="#CBD5E1" stroke-width="2"/>

  <rect x="36" y="36" width="788" height="48" rx="10" fill="#0F172A"/>
  <text x="430" y="66" text-anchor="middle" font-family="Arial, Helvetica, Sans-serif" font-size="18" font-weight="700" fill="#FFF">Cloud Lab Architecture</text>

  <rect x="36" y="96" width="788" height="36" rx="8" fill="#E0F2FE" stroke="#0284C7"/>
  <text x="430" y="119" text-anchor="middle" font-family="Arial, Helvetica, Sans-serif" font-size="13" font-weight="600" fill="#0369A1">Internet</text>

  <rect x="36" y="148" width="200" height="200" rx="12" fill="#DBEAFE" stroke="#2563EB" stroke-width="2"/>
  <text x="136" y="178" text-anchor="middle" font-family="Arial, Helvetica, Sans-serif" font-size="14" font-weight="700" fill="#1E3A8A">Your Windows PC</text>
  <text x="136" y="200" text-anchor="middle" font-family="Arial, Helvetica, Sans-serif" font-size="11" fill="#475569">VS Code Remote SSH</text>
  <text x="136" y="218" text-anchor="middle" font-family="Arial, Helvetica, Sans-serif" font-size="11" fill="#475569">soc-lab-key.pem</text>
  <text x="136" y="236" text-anchor="middle" font-family="Arial, Helvetica, Sans-serif" font-size="11" fill="#475569">Web browser</text>
  <rect x="52" y="256" width="76" height="28" rx="6" fill="#2563EB"/>
  <text x="90" y="275" text-anchor="middle" font-family="Arial, Helvetica, Sans-serif" font-size="10" font-weight="600" fill="#FFF">SSH 22</text>
  <rect x="144" y="256" width="76" height="28" rx="6" fill="#16A34A"/>
  <text x="174" y="275" text-anchor="middle" font-family="Arial, Helvetica, Sans-serif" font-size="10" font-weight="600" fill="#FFF">HTTP 80</text>

  <rect x="260" y="136" width="564" height="316" rx="12" fill="#FAFAFA" stroke="#64748B" stroke-width="2" stroke-dasharray="6 4"/>
  <text x="280" y="168" font-family="Arial, Helvetica, Sans-serif" font-size="12" font-weight="700" fill="#475569">VPC — Virtual Private Cloud</text>

  <rect x="280" y="184" width="524" height="260" rx="10" fill="#FFF7ED" stroke="#F59E0B" stroke-width="2"/>
  <text x="300" y="210" font-family="Arial, Helvetica, Sans-serif" font-size="13" font-weight="700" fill="#92400E">Security Group (firewall)</text>
  <rect x="300" y="222" width="100" height="26" rx="6" fill="#DC2626"/>
  <text x="350" y="240" text-anchor="middle" font-family="Arial, Helvetica, Sans-serif" font-size="10" font-weight="600" fill="#FFF">ALLOW 22</text>
  <rect x="410" y="222" width="100" height="26" rx="6" fill="#DC2626"/>
  <text x="460" y="240" text-anchor="middle" font-family="Arial, Helvetica, Sans-serif" font-size="10" font-weight="600" fill="#FFF">ALLOW 80</text>
  <rect x="520" y="222" width="90" height="26" rx="6" fill="#64748B"/>
  <text x="565" y="240" text-anchor="middle" font-family="Arial, Helvetica, Sans-serif" font-size="10" font-weight="600" fill="#FFF">DENY rest</text>

  <rect x="300" y="268" width="484" height="160" rx="12" fill="url(#aws)" stroke="#C2410C" stroke-width="2"/>
  <text x="542" y="300" text-anchor="middle" font-family="Arial, Helvetica, Sans-serif" font-size="16" font-weight="700" fill="#FFF">EC2 — Elastic Compute Cloud</text>
  <text x="542" y="322" text-anchor="middle" font-family="Arial, Helvetica, Sans-serif" font-size="11" fill="#FFF7ED">Amazon Linux 2023 · t2.medium</text>
  <rect x="320" y="340" width="140" height="68" rx="8" fill="rgba(255,255,255,0.25)" stroke="#FFF"/>
  <text x="390" y="368" text-anchor="middle" font-family="Arial, Helvetica, Sans-serif" font-size="12" font-weight="600" fill="#FFF">nginx :80</text>
  <text x="390" y="386" text-anchor="middle" font-family="Arial, Helvetica, Sans-serif" font-size="10" fill="#FFF7ED">web service</text>
  <rect x="480" y="340" width="284" height="68" rx="8" fill="rgba(255,255,255,0.25)" stroke="#FFF"/>
  <text x="622" y="376" text-anchor="middle" font-family="Arial, Helvetica, Sans-serif" font-size="11" font-weight="600" fill="#FFF">/var/log/nginx/access.log</text>

  <path d="M236 220 C270 220 280 280" fill="none" stroke="#2563EB" stroke-width="3" marker-end="url(#ab)"/>
  <text x="248" y="248" font-family="Arial, Helvetica, Sans-serif" font-size="10" font-weight="600" fill="#2563EB">SSH :22</text>
  <path d="M236 290 C270 290 280 340" fill="none" stroke="#16A34A" stroke-width="3" marker-end="url(#ag)"/>
  <text x="248" y="318" font-family="Arial, Helvetica, Sans-serif" font-size="10" font-weight="600" fill="#16A34A">HTTP :80</text>
  <rect x="620" y="268" width="120" height="36" rx="8" fill="#FFF" stroke="#64748B"/>
  <text x="680" y="284" text-anchor="middle" font-family="Arial, Helvetica, Sans-serif" font-size="10" font-weight="600" fill="#334155">Public IP</text>
  <text x="680" y="298" text-anchor="middle" font-family="Arial, Helvetica, Sans-serif" font-size="9" fill="#64748B">from Step 3</text>

  <rect x="36" y="468" width="788" height="24" rx="6" fill="#F1F5F9"/>
  <text x="430" y="484" text-anchor="middle" font-family="Arial, Helvetica, Sans-serif" font-size="11" fill="#64748B">Blue = SSH (Secure Shell) · Green = HTTP (Hypertext Transfer Protocol) · Orange = AWS resources</text>
</svg>
