<svg xmlns="http://www.w3.org/2000/svg" viewBox="0 0 920 500" role="img" aria-label="Lab 1.1 architecture">
  <defs>
    <filter id="archShadow" x="-8%" y="-8%" width="116%" height="120%">
      <feDropShadow dx="0" dy="3" stdDeviation="4" flood-color="#0F172A" flood-opacity="0.15"/>
    </filter>
    <marker id="archArrowBlue" markerWidth="10" markerHeight="10" refX="9" refY="3" orient="auto">
      <path d="M0,0 L9,3 L0,6 Z" fill="#2563EB"/>
    </marker>
    <marker id="archArrowGreen" markerWidth="10" markerHeight="10" refX="9" refY="3" orient="auto">
      <path d="M0,0 L9,3 L0,6 Z" fill="#16A34A"/>
    </marker>
    <linearGradient id="awsGrad" x1="0%" y1="0%" x2="100%" y2="100%">
      <stop offset="0%" stop-color="#FF9900"/>
      <stop offset="100%" stop-color="#D97706"/>
    </linearGradient>
    <linearGradient id="pcGrad" x1="0%" y1="0%" x2="0%" y2="100%">
      <stop offset="0%" stop-color="#EFF6FF"/>
      <stop offset="100%" stop-color="#BFDBFE"/>
    </linearGradient>
  </defs>
  <rect width="920" height="500" rx="16" fill="#F8FAFC"/>
  <rect x="16" y="16" width="888" height="468" rx="14" fill="#FFFFFF" stroke="#CBD5E1" stroke-width="2"/>
  <rect x="32" y="28" width="856" height="48" rx="10" fill="#0F172A"/>
  <text x="460" y="58" text-anchor="middle" font-family="Segoe UI, Arial, Helvetica, san-serif" font-size="16" font-weight="700" fill="#F8FAFC">Lab 1.1 — Cloud Lab Architecture</text>
  <rect x="740" y="40" width="132" height="26" rx="13" fill="#FF9900"/>
  <text x="806" y="58" text-anchor="middle" font-family="Segoe UI, Arial, Helvetica, san-serif" font-size="11" font-weight="600" fill="#FFFFFF">us-east-1</text>
  <rect x="32" y="88" width="856" height="40" rx="8" fill="#E0F2FE" stroke="#0284C7"/>
  <text x="460" y="114" text-anchor="middle" font-family="Segoe UI, Arial, Helvetica, san-serif" font-size="13" font-weight="600" fill="#0369A1">Internet</text>
  <g filter="url(#archShadow)">
    <rect x="44" y="148" width="210" height="168" rx="14" fill="url(#pcGrad)" stroke="#2563EB" stroke-width="2"/>
  </g>
  <rect x="60" y="164" width="42" height="32" rx="6" fill="#2563EB"/>
  <text x="81" y="186" text-anchor="middle" font-family="Segoe UI, Arial, Helvetica, san-serif" font-size="13" fill="#FFFFFF">PC</text>
  <text x="149" y="178" text-anchor="middle" font-family="Segoe UI, Arial, Helvetica, san-serif" font-size="13" font-weight="700" fill="#1E3A8A">Your Windows PC</text>
  <text x="149" y="200" text-anchor="middle" font-family="Segoe UI, Arial, Helvetica, san-serif" font-size="10" fill="#475569">VS Code · soc-lab-key.pem</text>
  <text x="149" y="218" text-anchor="middle" font-family="Segoe UI, Arial, Helvetica, san-serif" font-size="10" fill="#475569">Browser (HTTP tests)</text>
  <rect x="60" y="236" width="82" height="24" rx="6" fill="#2563EB"/>
  <text x="101" y="252" text-anchor="middle" font-family="Segoe UI, Arial, Helvetica, san-serif" font-size="9" font-weight="600" fill="#FFFFFF">SSH · 22</text>
  <rect x="152" y="236" width="82" height="24" rx="6" fill="#16A34A"/>
  <text x="193" y="252" text-anchor="middle" font-family="Segoe UI, Arial, Helvetica, san-serif" font-size="9" font-weight="600" fill="#FFFFFF">HTTP · 80</text>
  <rect x="276" y="136" width="600" height="328" rx="14" fill="#FAFAFA" stroke="#64748B" stroke-width="2" stroke-dasharray="8 4"/>
  <text x="296" y="168" font-family="Segoe UI, Arial, Helvetica, san-serif" font-size="12" font-weight="700" fill="#475569">VPC — Virtual Private Cloud</text>
  <rect x="300" y="184" width="552" height="276" rx="12" fill="#FFGapic" stroke="#F59E0B" stroke-width="2"/>
  <text x="320" y="210" font-family="Segoe UI, Arial, Helvetica, san-serif" font-size="12" font-weight="700" fill="#92400E">Security Group (SG)</text>
  <rect x="320" y="222" width="118" height="24" rx="6" fill="#DC2626"/>
  <text x="379" y="238" text-anchor="middle" font-family="Segoe UI, Arial, Helvetica, san-serif" font-size="9" font-weight="600" fill="#FFFFFF">ALLOW 22/TCP</text>
  <rect x="448" y="222" width="118" height="24" rx="6" fill="#DC2626"/>
  <text x="507" y="238" text-anchor="middle" font-family="Segoe UI, Arial, Helvetica, san-serif" font-size="9" font-weight="600" fill="#FFFFFF">ALLOW 80/TCP</text>
  <rect x="576" y="222" width="96" height="24" rx="6" fill="#64748B"/>
  <text x="624" y="238" text-anchor="middle" font-family="Segoe UI, Arial, Helvetica, san-serif" font-size="9" font-weight="600" fill="#FFFFFF">DENY ALL</text>
  <g filter="url(#archShadow)">
    <rect x="336" y="268" width="504" height="172" rx="14" fill="url(#awsGrad)" stroke="#C2410C" stroke-width="2"/>
  </g>
  <text x="588" y="304" text-anchor="middle" font-family="Segoe UI, Arial, Helvetica, san-serif" font-size="16" font-weight="700" fill="#FFFFFF">EC2 — Elastic Compute Cloud</text>
  <text x="588" y="328" text-anchor="middle" font-family="Segoe UI, Arial, Helvetica, san-serif" font-size="11" fill="#FFF7ED">Amazon Linux 2023 · t2.medium · ec2-user</text>
  <rect x="368" y="348" width="148" height="68" rx="10" fill="rgba(255,255,255,0.2)" stroke="#FFFFFF"/>
  <text x="442" y="376" text-anchor="middle" font-family="Segoe UI, Arial, Helvetica, san-serif" font-size="11" font-weight="600" fill="#FFFFFF">nginx</text>
  <text x="442" y="396" text-anchor="middle" font-family="Segoe UI, Arial, Helvetica, san-serif" font-size="9" fill="#FFF7ED">Hypertext Transfer Protocol :80</text>
  <rect x="532" y="348" width="288" height="68" rx="10" fill="rgba(255,255,255,0.2)" stroke="#FFFFFF"/>
  <text x="676" y="376" text-anchor="middle" font-family="Segoe UI, Arial, Helvetica, san-serif" font-size="10" font-weight="600" fill="#FFFFFF">/var/log/nginx/access.log</text>
  <text x="676" y="396" text-anchor="middle" font-family="Segoe UI, Arial, Helvetica, san-serif" font-size="9" fill="#FFF7ED">Telemetry for detection labs</text>
  <path d="M254 210 C290 210 310 260" fill="none" stroke="#2563EB" stroke-width="3" marker-end="url(#archArrowBlue)"/>
  <path d="M254 280 C290 280 320 310" fill="none" stroke="#16A34A" stroke-width="3" marker-end="url(#archArrowGreen)"/>
  <rect x="44" y="430" width="210" height="44" rx="8" fill="#FFFFFF" stroke="#E2E8F0"/>
  <text x="149" y="448" text-anchor="middle" font-family="Segoe UI, Arial, Helvetica, san-serif" font-size="10" font-weight="700" fill="#334155">Legend</text>
  <circle cx="68" cy="462" r="5" fill="#2563EB"/>
  <text x="82" y="466" font-family="Segoe UI, Arial, Helvetica, san-serif" font-size="9" fill="#64748B">SSH — Secure Shell</text>
  <circle cx="68" cy="478" r="5" fill="#16A34A"/>
  <text x="82" y="482" font-family="Segoe UI, Arial, Helvetica, san-serif" font-size="9" fill="#64748B">HTTP — Web requests</text>
</svg>