<svg xmlns="http://www.w3.org/2000/svg" viewBox="0 0 960 440" width="220" height="101" role="img">
  <defs>
    <filter id="sh" x="-15%" y="-15%" width="130%" height="130%">
      <feDropShadow dx="0" dy="2" stdDeviation="2.5" flood-color="#0F172A" flood-opacity="0.08"/>
    </filter>
    <linearGradient id="aws" x1="0" y1="0" x2="1" y2="1">
      <stop offset="0%" stop-color="#FF9900"/><stop offset="100%" stop-color="#E65100"/>
    </linearGradient>
    <marker id="m-blue" viewBox="0 0 10 10" refX="9" refY="5" markerWidth="7" markerHeight="7" orient="auto"><path d="M1 2 L9 5 L1 8" fill="none" stroke="#2563EB" stroke-width="1.8" stroke-linecap="round"/></marker>
    <marker id="m-green" viewBox="0 0 10 10" refX="9" refY="5" markerWidth="7" markerHeight="7" orient="auto"><path d="M1 2 L9 5 L1 8" fill="none" stroke="#16A34A" stroke-width="1.8" stroke-linecap="round"/></marker>
    <marker id="m-slate" viewBox="0 0 10 10" refX="9" refY="5" markerWidth="7" markerHeight="7" orient="auto"><path d="M1 2 L9 5 L1 8" fill="none" stroke="#475569" stroke-width="1.8" stroke-linecap="round"/></marker>
    <marker id="m-amber" viewBox="0 0 10 10" refX="9" refY="5" markerWidth="7" markerHeight="7" orient="auto"><path d="M1 2 L9 5 L1 8" fill="none" stroke="#D97706" stroke-width="1.8" stroke-linecap="round"/></marker>
    <marker id="m-red" viewBox="0 0 10 10" refX="9" refY="5" markerWidth="7" markerHeight="7" orient="auto"><path d="M1 2 L9 5 L1 8" fill="none" stroke="#DC2626" stroke-width="1.8" stroke-linecap="round"/></marker>
  </defs>
  <rect width="960" height="440" fill="#F8FAFC"/>
  <text x="480" y="40" text-anchor="middle" font-family="Arial, Helvetica, sans-serif" font-size="20" font-weight="700" fill="#0F172A">Lab Architecture</text>
  <text x="480" y="60" text-anchor="middle" font-family="Arial, Helvetica, sans-serif" font-size="12" fill="#64748B">Your PC connects to EC2 over SSH and HTTP</text>
  <rect x="24" y="64" width="912" height="352" rx="14" fill="#FFFFFF" stroke="#E2E8F0" stroke-width="2" filter="url(#sh)"/>
  <rect x="48" y="96" width="864" height="44" rx="10" fill="#EFF6FF" stroke="#93C5FD"/>
  <ellipse cx="76" cy="116" rx="16" ry="10" fill="#2563EB" opacity="0.15"/>
  <ellipse cx="68" cy="118" rx="8" ry="6" fill="#2563EB" opacity="0.25"/>
  <ellipse cx="84" cy="118" rx="8" ry="6" fill="#2563EB" opacity="0.25"/>
  <text x="480" y="124" text-anchor="middle" font-family="Arial, Helvetica, sans-serif" font-size="13" font-weight="600" fill="#2563EB">Internet</text>
  <path d="M268 200 H340" fill="none" stroke="#2563EB" stroke-width="2.5" marker-end="url(#m-blue)"/>
  <path d="M268 290 H520" fill="none" stroke="#16A34A" stroke-width="2.5" marker-end="url(#m-green)"/>
  <rect x="274" y="176" width="60" height="20" rx="10" fill="#FFF" stroke="#2563EB" stroke-width="1"/>
  <text x="304" y="190" text-anchor="middle" font-family="Arial, Helvetica, sans-serif" font-size="10" font-weight="600" fill="#2563EB">SSH :22</text>
  <rect x="361" y="266" width="66" height="20" rx="10" fill="#FFF" stroke="#16A34A" stroke-width="1"/>
  <text x="394" y="280" text-anchor="middle" font-family="Arial, Helvetica, sans-serif" font-size="10" font-weight="600" fill="#16A34A">HTTP :80</text>
  <rect x="48" y="156" width="220" height="220" rx="12" fill="#EFF6FF" stroke="#2563EB" stroke-width="2" filter="url(#sh)"/>
  <rect x="68" y="172" width="40" height="30" rx="4" fill="#2563EB" opacity="0.15"/>
  <rect x="74" y="176" width="28" height="18" rx="2" fill="#2563EB" opacity="0.35"/>
  <rect x="82" y="198" width="12" height="3" rx="1" fill="#2563EB" opacity="0.5"/>
  <text x="158" y="198" text-anchor="middle" font-family="Arial, Helvetica, sans-serif" font-size="14" font-weight="700" fill="#2563EB">Your PC</text>
  <text x="158" y="220" text-anchor="middle" font-family="Arial, Helvetica, sans-serif" font-size="11" font-weight="400" fill="#64748B">VS Code + browser</text>
  <text x="158" y="240" text-anchor="middle" font-family="Arial, Helvetica, sans-serif" font-size="11" font-weight="400" fill="#64748B">soc-lab-key.pem</text>
  <rect x="68" y="300" width="80" height="28" rx="6" fill="#2563EB"/>
  <text x="108" y="319" text-anchor="middle" font-family="Arial, Helvetica, sans-serif" font-size="10" font-weight="700" fill="#FFF">SSH :22</text>
  <rect x="158" y="300" width="80" height="28" rx="6" fill="#16A34A"/>
  <text x="198" y="319" text-anchor="middle" font-family="Arial, Helvetica, sans-serif" font-size="10" font-weight="700" fill="#FFF">HTTP :80</text>
  <rect x="300" y="148" width="612" height="236" rx="12" fill="#FAFAFA" stroke="#475569" stroke-width="2" stroke-dasharray="8 4"/>
  <text x="320" y="170" text-anchor="start" font-family="Arial, Helvetica, sans-serif" font-size="12" font-weight="700" fill="#475569">AWS VPC</text>
  <rect x="320" y="182" width="572" height="52" rx="8" fill="#FFFBEB" stroke="#FCD34D"/>
  <text x="340" y="204" text-anchor="start" font-family="Arial, Helvetica, sans-serif" font-size="12" font-weight="700" fill="#D97706">Security Group</text>
  <rect x="480" y="194" width="72" height="24" rx="5" fill="#DC2626"/>
  <text x="516" y="210" text-anchor="middle" font-family="Arial, Helvetica, sans-serif" font-size="9" font-weight="700" fill="#FFF">ALLOW :22</text>
  <rect x="562" y="194" width="72" height="24" rx="5" fill="#DC2626"/>
  <text x="598" y="210" text-anchor="middle" font-family="Arial, Helvetica, sans-serif" font-size="9" font-weight="700" fill="#FFF">ALLOW :80</text>
  <text x="660" y="210" text-anchor="start" font-family="Arial, Helvetica, sans-serif" font-size="10" font-weight="400" fill="#64748B">deny all other ports</text>
  <rect x="320" y="246" width="572" height="120" rx="10" fill="url(#aws)" stroke="#C2410C" stroke-width="2"/>
  <rect x="336" y="268" width="36" height="34" rx="4" fill="#FF9900" opacity="0.2"/>
  <rect x="340" y="273" width="28" height="6" rx="2" fill="#FF9900" opacity="0.5"/>
  <rect x="340" y="282" width="28" height="6" rx="2" fill="#FF9900" opacity="0.5"/>
  <rect x="340" y="291" width="28" height="6" rx="2" fill="#FF9900" opacity="0.5"/>
  <text x="390" y="278" text-anchor="start" font-family="Arial, Helvetica, sans-serif" font-size="14" font-weight="700" fill="#FFF">EC2 Instance</text>
  <text x="390" y="296" text-anchor="start" font-family="Arial, Helvetica, sans-serif" font-size="10" font-weight="400" fill="#FFF7ED">Amazon Linux 2023 · t2.medium</text>
  <rect x="520" y="278" width="150" height="64" rx="8" fill="rgba(255,255,255,0.22)" stroke="#FFF"/>
  <text x="595" y="304" text-anchor="middle" font-family="Arial, Helvetica, sans-serif" font-size="12" font-weight="700" fill="#FFF">nginx</text>
  <text x="595" y="322" text-anchor="middle" font-family="Arial, Helvetica, sans-serif" font-size="9" font-weight="400" fill="#FFF7ED">listens on :80</text>
  <rect x="690" y="278" width="180" height="64" rx="8" fill="rgba(255,255,255,0.22)" stroke="#FFF"/>
  <text x="780" y="304" text-anchor="middle" font-family="Arial, Helvetica, sans-serif" font-size="11" font-weight="700" fill="#FFF">access.log</text>
  <text x="780" y="322" text-anchor="middle" font-family="Arial, Helvetica, sans-serif" font-size="9" font-weight="400" fill="#FFF7ED">telemetry data</text>
  <rect x="48" y="388" width="864" height="28" rx="6" fill="#F1F5F9" stroke="#E2E8F0"/>
  <text x="480" y="406" text-anchor="middle" font-family="Arial, Helvetica, sans-serif" font-size="10" font-weight="400" fill="#64748B">Blue = SSH remote access  ·  Green = HTTP web traffic  ·  Orange = AWS resources</text>

</svg>
