<svg xmlns="http://www.w3.org/2000/svg" viewBox="0 0 900 440" role="img" aria-label="Lab architecture">
  <defs>
    <filter id="sh" x="-20%" y="-20%" width="140%" height="140%">
      <feDropShadow dx="0" dy="2" stdDeviation="2" flood-opacity="0.10"/>
    </filter>
    <linearGradient id="aws" x1="0" y1="0" x2="1" y2="0">
      <stop offset="0%" stop-color="#FF9900"/><stop offset="100%" stop-color="#E65100"/>
    </linearGradient><marker id="ssh" viewBox="0 0 12 12" refX="10" refY="6" markerWidth="8" markerHeight="8" orient="auto"><path d="M1 2 L10 6 L1 10" fill="none" stroke="#2563EB" stroke-width="2" stroke-linecap="round" stroke-linejoin="round"/></marker><marker id="http" viewBox="0 0 12 12" refX="10" refY="6" markerWidth="8" markerHeight="8" orient="auto"><path d="M1 2 L10 6 L1 10" fill="none" stroke="#16A34A" stroke-width="2" stroke-linecap="round" stroke-linejoin="round"/></marker></defs>
  <rect width="900" height="440" fill="#F8FAFC"/>
  <rect x="20" y="20" width="860" height="400" rx="14" fill="#FFF" stroke="#E2E8F0"/>

  <text x="450" y="52" text-anchor="middle" font-family="Arial, Helvetica, Sans-serif" font-size="20" font-weight="700" fill="#0F172A">Lab Architecture</text>
  <text x="450" y="72" text-anchor="middle" font-family="Arial, Helvetica, Sans-serif" font-size="11" fill="#64748B">Your PC connects over the internet to EC2 in AWS</text>

  <!-- Arrows FIRST (behind boxes) -->
  <path d="M248 268 L248 108 L360 108 L360 248" fill="none" stroke="#2563EB" stroke-width="2.5" marker-end="url(#ssh)"/>
  <path d="M248 282 L248 108 L585 108 L585 258" fill="none" stroke="#16A34A" stroke-width="2.5" marker-end="url(#http)"/>
  
  <rect x="281" y="89" width="38" height="20" rx="10" fill="#FFF" stroke="#2563EB" stroke-width="1"/>
  <text x="300" y="104" text-anchor="middle" font-family="Arial, Helvetica, Sans-serif" font-size="10" font-weight="600" fill="#2563EB">SSH</text>
  
  <rect x="458" y="89" width="44" height="20" rx="10" fill="#FFF" stroke="#16A34A" stroke-width="1"/>
  <text x="480" y="104" text-anchor="middle" font-family="Arial, Helvetica, Sans-serif" font-size="10" font-weight="600" fill="#16A34A">HTTP</text>

  <!-- Internet -->
  <rect x="48" y="88" width="804" height="36" rx="8" fill="#E0F2FE" stroke="#0284C7" stroke-width="1.5"/>
  <text x="450" y="111" text-anchor="middle" font-family="Arial, Helvetica, Sans-serif" font-size="12" font-weight="600" fill="#0369A1">Internet</text>

  <!-- Your PC -->
  <rect x="48" y="140" width="200" height="180" rx="12" fill="#DBEAFE" stroke="#2563EB" stroke-width="2" filter="url(#sh)"/>
  <text x="148" y="168" text-anchor="middle" font-family="Arial, Helvetica, Sans-serif" font-size="14" font-weight="700" fill="#1E40AF">Your PC</text>
  <text x="148" y="188" text-anchor="middle" font-family="Arial, Helvetica, Sans-serif" font-size="11" fill="#475569">VS Code + browser</text>
  <text x="148" y="206" text-anchor="middle" font-family="Arial, Helvetica, Sans-serif" font-size="11" fill="#475569">soc-lab-key.pem</text>
  <rect x="68" y="248" width="72" height="26" rx="6" fill="#2563EB"/>
  <text x="104" y="265" text-anchor="middle" font-family="Arial, Helvetica, Sans-serif" font-size="10" font-weight="700" fill="#FFF">SSH :22</text>
  <rect x="148" y="248" width="72" height="26" rx="6" fill="#16A34A"/>
  <text x="184" y="265" text-anchor="middle" font-family="Arial, Helvetica, Sans-serif" font-size="10" font-weight="700" fill="#FFF">HTTP :80</text>

  <!-- VPC -->
  <rect x="280" y="132" width="572" height="200" rx="12" fill="#FAFAFA" stroke="#94A3B8" stroke-width="2" stroke-dasharray="8 4"/>
  <text x="300" y="154" font-family="Arial, Helvetica, Sans-serif" font-size="11" font-weight="700" fill="#64748B">VPC</text>

  <rect x="300" y="164" width="532" height="48" rx="8" fill="#FFF7ED" stroke="#F59E0B" stroke-width="1.5"/>
  <text x="320" y="184" font-family="Arial, Helvetica, Sans-serif" font-size="11" font-weight="700" fill="#92400E">Security Group</text>
  <rect x="430" y="176" width="72" height="22" rx="4" fill="#DC2626"/>
  <text x="466" y="191" text-anchor="middle" font-family="Arial, Helvetica, Sans-serif" font-size="9" font-weight="700" fill="#FFF">:22</text>
  <rect x="510" y="176" width="72" height="22" rx="4" fill="#DC2626"/>
  <text x="546" y="191" text-anchor="middle" font-family="Arial, Helvetica, Sans-serif" font-size="9" font-weight="700" fill="#FFF">:80</text>
  <text x="600" y="191" font-family="Arial, Helvetica, Sans-serif" font-size="9" fill="#64748B">deny rest</text>

  <rect x="300" y="224" width="532" height="96" rx="10" fill="url(#aws)" stroke="#C2410C" stroke-width="2"/>
  <text x="320" y="248" font-family="Arial, Helvetica, Sans-serif" font-size="14" font-weight="700" fill="#FFF">EC2</text>
  <text x="320" y="264" font-family="Arial, Helvetica, Sans-serif" font-size="10" fill="#FFF7ED">Amazon Linux 2023</text>
  <rect x="500" y="236" width="120" height="68" rx="8" fill="rgba(255,255,255,0.28)" stroke="#FFF"/>
  <text x="560" y="264" text-anchor="middle" font-family="Arial, Helvetica, Sans-serif" font-size="11" font-weight="700" fill="#FFF">nginx :80</text>
  <text x="560" y="282" text-anchor="middle" font-family="Arial, Helvetica, Sans-serif" font-size="9" fill="#FFF7ED">web server</text>
  <rect x="640" y="236" width="170" height="68" rx="8" fill="rgba(255,255,255,0.28)" stroke="#FFF"/>
  <text x="725" y="264" text-anchor="middle" font-family="Arial, Helvetica, Sans-serif" font-size="10" font-weight="700" fill="#FFF">access.log</text>
  <text x="725" y="282" text-anchor="middle" font-family="Arial, Helvetica, Sans-serif" font-size="9" fill="#FFF7ED">telemetry</text>

  <rect x="48" y="348" width="804" height="32" rx="8" fill="#F1F5F9" stroke="#E2E8F0"/>
  <text x="450" y="369" text-anchor="middle" font-family="Arial, Helvetica, Sans-serif" font-size="10" fill="#64748B">Blue = SSH (port 22) · Green = HTTP (port 80) · Orange = AWS</text>
</svg>
