<svg xmlns="http://www.w3.org/2000/svg" viewBox="0 0 376 704" role="img" aria-label="High-Level Investigation Pipeline">
  <defs>
    <filter id="sh" x="-12%" y="-12%" width="124%" height="124%">
      <feDropShadow dx="0" dy="2" stdDeviation="2" flood-color="#0F172A" flood-opacity="0.1"/>
    </filter>
    <marker id="m-slate" viewBox="0 0 10 10" refX="9" refY="5" markerWidth="6" markerHeight="6" orient="auto">
      <path d="M1 2 L9 5 L1 8" fill="none" stroke="#475569" stroke-width="1.8" stroke-linecap="round"/>
    </marker>
  </defs>
  <rect width="376" height="704" fill="#F8FAFC"/>
  <text x="280" y="42" text-anchor="middle" font-family="Arial, Helvetica, sans-serif" font-size="15" font-weight="700" fill="#0F172A">High-Level Investigation Pipeline</text>
  <rect x="217" y="60" width="126" height="44" rx="10" fill="#FFFFFF" stroke="#E2E8F0" stroke-width="1.8" filter="url(#sh)"/>
  <text x="280" y="92" text-anchor="middle" font-family="Arial, Helvetica, sans-serif" font-size="12" font-weight="600" fill="#0F172A">Security Event</text>
  <line x1="280" y1="104" x2="280" y2="114" stroke="#475569" stroke-width="2" marker-end="url(#m-slate)"/>
  <rect x="220" y="120" width="120" height="60" rx="10" fill="#FFFFFF" stroke="#E2E8F0" stroke-width="1.8" filter="url(#sh)"/>
  <text x="280" y="152" text-anchor="middle" font-family="Arial, Helvetica, sans-serif" font-size="12" font-weight="600" fill="#0F172A">Investigation</text>
  <text x="280" y="168" text-anchor="middle" font-family="Arial, Helvetica, sans-serif" font-size="12" font-weight="600" fill="#0F172A">Triggered</text>
  <line x1="280" y1="180" x2="280" y2="190" stroke="#475569" stroke-width="2" marker-end="url(#m-slate)"/>
  <rect x="220" y="196" width="120" height="44" rx="10" fill="#FFFFFF" stroke="#E2E8F0" stroke-width="1.8" filter="url(#sh)"/>
  <text x="280" y="228" text-anchor="middle" font-family="Arial, Helvetica, sans-serif" font-size="12" font-weight="600" fill="#0F172A">Define Scope</text>
  <line x1="280" y1="240" x2="280" y2="250" stroke="#475569" stroke-width="2" marker-end="url(#m-slate)"/>
  <rect x="210" y="256" width="140" height="44" rx="10" fill="#FFFFFF" stroke="#E2E8F0" stroke-width="1.8" filter="url(#sh)"/>
  <text x="280" y="288" text-anchor="middle" font-family="Arial, Helvetica, sans-serif" font-size="12" font-weight="600" fill="#0F172A">Collect Evidence</text>
  <line x1="280" y1="300" x2="280" y2="310" stroke="#475569" stroke-width="2" marker-end="url(#m-slate)"/>
  <rect x="200" y="316" width="161" height="44" rx="10" fill="#FFFFFF" stroke="#E2E8F0" stroke-width="1.8" filter="url(#sh)"/>
  <text x="280" y="348" text-anchor="middle" font-family="Arial, Helvetica, sans-serif" font-size="12" font-weight="600" fill="#0F172A">Generate Hypotheses</text>
  <line x1="280" y1="360" x2="280" y2="370" stroke="#475569" stroke-width="2" marker-end="url(#m-slate)"/>
  <rect x="210" y="376" width="140" height="44" rx="10" fill="#FFFFFF" stroke="#E2E8F0" stroke-width="1.8" filter="url(#sh)"/>
  <text x="280" y="408" text-anchor="middle" font-family="Arial, Helvetica, sans-serif" font-size="12" font-weight="600" fill="#0F172A">Analyze Evidence</text>
  <line x1="280" y1="420" x2="280" y2="430" stroke="#475569" stroke-width="2" marker-end="url(#m-slate)"/>
  <rect x="220" y="436" width="120" height="44" rx="10" fill="#FFFFFF" stroke="#E2E8F0" stroke-width="1.8" filter="url(#sh)"/>
  <text x="280" y="468" text-anchor="middle" font-family="Arial, Helvetica, sans-serif" font-size="12" font-weight="600" fill="#0F172A">Rank Findings</text>
  <line x1="280" y1="480" x2="280" y2="490" stroke="#475569" stroke-width="2" marker-end="url(#m-slate)"/>
  <rect x="210" y="496" width="140" height="44" rx="10" fill="#FFFFFF" stroke="#E2E8F0" stroke-width="1.8" filter="url(#sh)"/>
  <text x="280" y="528" text-anchor="middle" font-family="Arial, Helvetica, sans-serif" font-size="12" font-weight="600" fill="#0F172A">Generate Summary</text>
  <line x1="280" y1="540" x2="280" y2="550" stroke="#475569" stroke-width="2" marker-end="url(#m-slate)"/>
  <rect x="217" y="556" width="126" height="44" rx="10" fill="#FFFFFF" stroke="#E2E8F0" stroke-width="1.8" filter="url(#sh)"/>
  <text x="280" y="588" text-anchor="middle" font-family="Arial, Helvetica, sans-serif" font-size="12" font-weight="600" fill="#0F172A">Analyst Review</text>
  <line x1="280" y1="600" x2="280" y2="610" stroke="#475569" stroke-width="2" marker-end="url(#m-slate)"/>
  <rect x="207" y="616" width="147" height="60" rx="10" fill="#FFFFFF" stroke="#E2E8F0" stroke-width="1.8" filter="url(#sh)"/>
  <text x="280" y="648" text-anchor="middle" font-family="Arial, Helvetica, sans-serif" font-size="12" font-weight="600" fill="#0F172A">Accept / Reject /</text>
  <text x="280" y="664" text-anchor="middle" font-family="Arial, Helvetica, sans-serif" font-size="12" font-weight="600" fill="#0F172A">Escalate</text>
</svg>
