<svg xmlns="http://www.w3.org/2000/svg" viewBox="0 0 536 392" role="img" aria-label="One Metric Filter, Multiple Consumers">
  <defs>
    <filter id="sh" x="-12%" y="-12%" width="124%" height="124%">
      <feDropShadow dx="0" dy="2" stdDeviation="2" flood-color="#0F172A" flood-opacity="0.1"/>
    </filter>
    <marker id="m-slate" viewBox="0 0 10 10" refX="9" refY="5" markerWidth="6" markerHeight="6" orient="auto">
      <path d="M1 2 L9 5 L1 8" fill="none" stroke="#475569" stroke-width="1.8" stroke-linecap="round"/>
    </marker>
  </defs>
  <rect width="536" height="392" fill="#F8FAFC"/>
  <text x="280" y="42" text-anchor="middle" font-family="Arial, Helvetica, sans-serif" font-size="15" font-weight="700" fill="#0F172A">One Metric Filter, Multiple Consumers</text>
  <rect x="220" y="60" width="120" height="44" rx="10" fill="#FFFFFF" stroke="#E2E8F0" stroke-width="1.8" filter="url(#sh)"/>
  <text x="280" y="92" text-anchor="middle" font-family="Arial, Helvetica, sans-serif" font-size="12" font-weight="600" fill="#0F172A">Metric Filter</text>
  <line x1="280" y1="104" x2="280" y2="114" stroke="#475569" stroke-width="2" marker-end="url(#m-slate)"/>
  <rect x="220" y="120" width="120" height="44" rx="10" fill="#FFFFFF" stroke="#E2E8F0" stroke-width="1.8" filter="url(#sh)"/>
  <text x="280" y="152" text-anchor="middle" font-family="Arial, Helvetica, sans-serif" font-size="12" font-weight="600" fill="#0F172A">Custom Metric</text>
  <line x1="280" y1="164" x2="280" y2="174" stroke="#475569" stroke-width="2" marker-end="url(#m-slate)"/>
  <rect x="116" y="180" width="329" height="44" rx="10" fill="#FFFFFF" stroke="#E2E8F0" stroke-width="1.8" filter="url(#sh)"/>
  <text x="280" y="212" text-anchor="middle" font-family="Arial, Helvetica, sans-serif" font-size="12" font-weight="600" fill="#0F172A">┌─────────────┬─────────────┬─────────────┐</text>
  <line x1="280" y1="224" x2="280" y2="236" stroke="#475569" stroke-width="2" marker-end="url(#m-slate)"/>
  <line x1="40" y1="250" x2="520" y2="250" stroke="#475569" stroke-width="2"/>
  <line x1="94" y1="250" x2="94" y2="264" stroke="#475569" stroke-width="2"/>
  <rect x="40" y="264" width="108" height="44" rx="10" fill="#FFFFFF" stroke="#E2E8F0" stroke-width="1.8" filter="url(#sh)"/>
  <text x="94" y="296" text-anchor="middle" font-family="Arial, Helvetica, sans-serif" font-size="12" font-weight="600" fill="#0F172A">│ Alarm</text>
  <line x1="218" y1="250" x2="218" y2="264" stroke="#475569" stroke-width="2"/>
  <rect x="164" y="264" width="108" height="44" rx="10" fill="#FFFFFF" stroke="#E2E8F0" stroke-width="1.8" filter="url(#sh)"/>
  <text x="218" y="296" text-anchor="middle" font-family="Arial, Helvetica, sans-serif" font-size="12" font-weight="600" fill="#0F172A">│ Dashboard</text>
  <line x1="342" y1="250" x2="342" y2="264" stroke="#475569" stroke-width="2"/>
  <rect x="288" y="264" width="108" height="44" rx="10" fill="#FFFFFF" stroke="#E2E8F0" stroke-width="1.8" filter="url(#sh)"/>
  <text x="342" y="296" text-anchor="middle" font-family="Arial, Helvetica, sans-serif" font-size="12" font-weight="600" fill="#0F172A">│ Reports</text>
  <line x1="466" y1="250" x2="466" y2="264" stroke="#475569" stroke-width="2"/>
  <rect x="412" y="264" width="108" height="44" rx="10" fill="#FFFFFF" stroke="#E2E8F0" stroke-width="1.8" filter="url(#sh)"/>
  <text x="466" y="296" text-anchor="middle" font-family="Arial, Helvetica, sans-serif" font-size="12" font-weight="600" fill="#0F172A">│</text>
  <rect x="116" y="320" width="329" height="44" rx="10" fill="#FFFFFF" stroke="#E2E8F0" stroke-width="1.8" filter="url(#sh)"/>
  <text x="280" y="352" text-anchor="middle" font-family="Arial, Helvetica, sans-serif" font-size="12" font-weight="600" fill="#0F172A">└─────────────┴─────────────┴─────────────┘</text>
</svg>
