<svg xmlns="http://www.w3.org/2000/svg" viewBox="0 0 412 674" role="img" aria-label="Example Cleanup Workflow">
  <defs>
    <filter id="sh" x="-12%" y="-12%" width="124%" height="124%">
      <feDropShadow dx="0" dy="2" stdDeviation="2" flood-color="#0F172A" flood-opacity="0.1"/>
    </filter>
    <marker id="m-slate" viewBox="0 0 10 10" refX="9" refY="5" markerWidth="6" markerHeight="6" orient="auto">
      <path d="M1 2 L9 5 L1 8" fill="none" stroke="#475569" stroke-width="1.8" stroke-linecap="round"/>
    </marker>
  </defs>
  <rect width="412" height="674" fill="#F8FAFC"/>
  <text x="280" y="42" text-anchor="middle" font-family="Arial, Helvetica, sans-serif" font-size="15" font-weight="700" fill="#0F172A">Example Cleanup Workflow</text>
  <rect x="220" y="60" width="120" height="44" rx="10" fill="#FFFFFF" stroke="#E2E8F0" stroke-width="1.8" filter="url(#sh)"/>
  <text x="280" y="92" text-anchor="middle" font-family="Arial, Helvetica, sans-serif" font-size="12" font-weight="600" fill="#0F172A">User Review</text>
  <line x1="280" y1="104" x2="280" y2="114" stroke="#475569" stroke-width="2" marker-end="url(#m-slate)"/>
  <rect x="220" y="120" width="120" height="44" rx="10" fill="#FFFFFF" stroke="#E2E8F0" stroke-width="1.8" filter="url(#sh)"/>
  <text x="280" y="152" text-anchor="middle" font-family="Arial, Helvetica, sans-serif" font-size="12" font-weight="600" fill="#0F172A">Active?</text>
  <rect x="220" y="164" width="120" height="44" rx="10" fill="#FFFFFF" stroke="#E2E8F0" stroke-width="1.8" filter="url(#sh)"/>
  <text x="280" y="196" text-anchor="middle" font-family="Arial, Helvetica, sans-serif" font-size="12" font-weight="600" fill="#0F172A">┌───────────┐</text>
  <line x1="280" y1="208" x2="280" y2="220" stroke="#475569" stroke-width="2" marker-end="url(#m-slate)"/>
  <line x1="102" y1="234" x2="458" y2="234" stroke="#475569" stroke-width="2"/>
  <line x1="156" y1="234" x2="156" y2="248" stroke="#475569" stroke-width="2"/>
  <rect x="102" y="248" width="108" height="44" rx="10" fill="#FFFFFF" stroke="#E2E8F0" stroke-width="1.8" filter="url(#sh)"/>
  <text x="156" y="280" text-anchor="middle" font-family="Arial, Helvetica, sans-serif" font-size="12" font-weight="600" fill="#0F172A">│</text>
  <line x1="280" y1="234" x2="280" y2="248" stroke="#475569" stroke-width="2"/>
  <rect x="226" y="248" width="108" height="44" rx="10" fill="#FFFFFF" stroke="#E2E8F0" stroke-width="1.8" filter="url(#sh)"/>
  <text x="280" y="280" text-anchor="middle" font-family="Arial, Helvetica, sans-serif" font-size="12" font-weight="600" fill="#0F172A">Yes</text>
  <line x1="404" y1="234" x2="404" y2="248" stroke="#475569" stroke-width="2"/>
  <rect x="350" y="248" width="108" height="44" rx="10" fill="#FFFFFF" stroke="#E2E8F0" stroke-width="1.8" filter="url(#sh)"/>
  <text x="404" y="280" text-anchor="middle" font-family="Arial, Helvetica, sans-serif" font-size="12" font-weight="600" fill="#0F172A">│ → Keep</text>
  <rect x="205" y="304" width="151" height="110" rx="12" fill="#FFFFFF" stroke="#E2E8F0" stroke-width="2" filter="url(#sh)"/>
  <text x="280" y="332" text-anchor="middle" font-family="Arial, Helvetica, sans-serif" font-size="13" font-weight="700" fill="#2563EB">└───────────┘</text>
  <text x="229" y="366" font-family="Arial, Helvetica, sans-serif" font-size="12" fill="#0F172A">• │</text>
  <text x="229" y="388" font-family="Arial, Helvetica, sans-serif" font-size="12" fill="#0F172A">• ▼</text>
  <text x="229" y="410" font-family="Arial, Helvetica, sans-serif" font-size="12" fill="#0F172A">• ┌───────────┐</text>
  <rect x="122" y="426" width="96" height="44" rx="10" fill="#EFF6FF" stroke="#93C5FD" stroke-width="1.8" filter="url(#sh)"/>
  <text x="170" y="458" text-anchor="middle" font-family="Arial, Helvetica, sans-serif" font-size="12" font-weight="600" fill="#0F172A">│</text>
  <rect x="232" y="426" width="96" height="44" rx="10" fill="#EFF6FF" stroke="#93C5FD" stroke-width="1.8" filter="url(#sh)"/>
  <text x="280" y="458" text-anchor="middle" font-family="Arial, Helvetica, sans-serif" font-size="12" font-weight="600" fill="#0F172A">No</text>
  <rect x="342" y="426" width="96" height="44" rx="10" fill="#EFF6FF" stroke="#93C5FD" stroke-width="1.8" filter="url(#sh)"/>
  <text x="390" y="458" text-anchor="middle" font-family="Arial, Helvetica, sans-serif" font-size="12" font-weight="600" fill="#0F172A">│</text>
  <rect x="220" y="482" width="120" height="44" rx="10" fill="#FFFFFF" stroke="#E2E8F0" stroke-width="1.8" filter="url(#sh)"/>
  <text x="280" y="514" text-anchor="middle" font-family="Arial, Helvetica, sans-serif" font-size="12" font-weight="600" fill="#0F172A">└───────────┘</text>
  <line x1="280" y1="526" x2="280" y2="536" stroke="#475569" stroke-width="2" marker-end="url(#m-slate)"/>
  <rect x="220" y="542" width="120" height="44" rx="10" fill="#FFFFFF" stroke="#E2E8F0" stroke-width="1.8" filter="url(#sh)"/>
  <text x="280" y="574" text-anchor="middle" font-family="Arial, Helvetica, sans-serif" font-size="12" font-weight="600" fill="#0F172A">Disable</text>
  <line x1="280" y1="586" x2="280" y2="596" stroke="#475569" stroke-width="2" marker-end="url(#m-slate)"/>
  <rect x="220" y="602" width="120" height="44" rx="10" fill="#FFFFFF" stroke="#E2E8F0" stroke-width="1.8" filter="url(#sh)"/>
  <text x="280" y="634" text-anchor="middle" font-family="Arial, Helvetica, sans-serif" font-size="12" font-weight="600" fill="#0F172A">Delete</text>
</svg>
