<svg xmlns="http://www.w3.org/2000/svg" viewBox="0 0 376 576" role="img" aria-label="Whiteboard Diagram">
  <defs>
    <filter id="sh" x="-12%" y="-12%" width="124%" height="124%">
      <feDropShadow dx="0" dy="2" stdDeviation="2" flood-color="#0F172A" flood-opacity="0.1"/>
    </filter>
    <marker id="m-slate" viewBox="0 0 10 10" refX="9" refY="5" markerWidth="6" markerHeight="6" orient="auto">
      <path d="M1 2 L9 5 L1 8" fill="none" stroke="#475569" stroke-width="1.8" stroke-linecap="round"/>
    </marker>
  </defs>
  <rect width="376" height="576" fill="#F8FAFC"/>
  <text x="280" y="42" text-anchor="middle" font-family="Arial, Helvetica, sans-serif" font-size="15" font-weight="700" fill="#0F172A">Diagram</text>
  <rect x="220" y="60" width="120" height="44" rx="10" fill="#FFFFFF" stroke="#E2E8F0" stroke-width="1.8" filter="url(#sh)"/>
  <text x="280" y="92" text-anchor="middle" font-family="Arial, Helvetica, sans-serif" font-size="12" font-weight="600" fill="#0F172A">Traditional</text>
  <rect x="220" y="104" width="120" height="44" rx="10" fill="#FFFFFF" stroke="#E2E8F0" stroke-width="1.8" filter="url(#sh)"/>
  <text x="280" y="136" text-anchor="middle" font-family="Arial, Helvetica, sans-serif" font-size="12" font-weight="600" fill="#0F172A">Firewall</text>
  <line x1="280" y1="148" x2="280" y2="158" stroke="#475569" stroke-width="2" marker-end="url(#m-slate)"/>
  <rect x="214" y="164" width="133" height="44" rx="10" fill="#FFFFFF" stroke="#E2E8F0" stroke-width="1.8" filter="url(#sh)"/>
  <text x="280" y="196" text-anchor="middle" font-family="Arial, Helvetica, sans-serif" font-size="12" font-weight="600" fill="#0F172A">Company Network</text>
  <line x1="280" y1="208" x2="280" y2="218" stroke="#475569" stroke-width="2" marker-end="url(#m-slate)"/>
  <rect x="216" y="224" width="128" height="88" rx="12" fill="#FFFFFF" stroke="#E2E8F0" stroke-width="2" filter="url(#sh)"/>
  <text x="280" y="252" text-anchor="middle" font-family="Arial, Helvetica, sans-serif" font-size="13" font-weight="700" fill="#2563EB">Trust</text>
  <text x="240" y="286" font-family="Arial, Helvetica, sans-serif" font-size="12" fill="#0F172A">• Modern</text>
  <text x="240" y="308" font-family="Arial, Helvetica, sans-serif" font-size="12" fill="#0F172A">• Identity</text>
  <rect x="220" y="324" width="120" height="44" rx="10" fill="#FFFFFF" stroke="#E2E8F0" stroke-width="1.8" filter="url(#sh)"/>
  <text x="280" y="356" text-anchor="middle" font-family="Arial, Helvetica, sans-serif" font-size="12" font-weight="600" fill="#0F172A">Identity</text>
  <line x1="280" y1="368" x2="280" y2="378" stroke="#475569" stroke-width="2" marker-end="url(#m-slate)"/>
  <rect x="217" y="384" width="126" height="44" rx="10" fill="#FFFFFF" stroke="#E2E8F0" stroke-width="1.8" filter="url(#sh)"/>
  <text x="280" y="416" text-anchor="middle" font-family="Arial, Helvetica, sans-serif" font-size="12" font-weight="600" fill="#0F172A">Authentication</text>
  <line x1="280" y1="428" x2="280" y2="438" stroke="#475569" stroke-width="2" marker-end="url(#m-slate)"/>
  <rect x="220" y="444" width="120" height="44" rx="10" fill="#FFFFFF" stroke="#E2E8F0" stroke-width="1.8" filter="url(#sh)"/>
  <text x="280" y="476" text-anchor="middle" font-family="Arial, Helvetica, sans-serif" font-size="12" font-weight="600" fill="#0F172A">Authorization</text>
  <line x1="280" y1="488" x2="280" y2="498" stroke="#475569" stroke-width="2" marker-end="url(#m-slate)"/>
  <rect x="220" y="504" width="120" height="44" rx="10" fill="#FFFFFF" stroke="#E2E8F0" stroke-width="1.8" filter="url(#sh)"/>
  <text x="280" y="536" text-anchor="middle" font-family="Arial, Helvetica, sans-serif" font-size="12" font-weight="600" fill="#0F172A">Access</text>
</svg>
