<svg xmlns="http://www.w3.org/2000/svg" viewBox="0 0 660 478" role="img" aria-label="Whiteboard Diagram">
  <defs>
    <filter id="sh" x="-12%" y="-12%" width="124%" height="124%">
      <feDropShadow dx="0" dy="2" stdDeviation="2" flood-color="#0F172A" flood-opacity="0.1"/>
    </filter>
    <marker id="m-slate" viewBox="0 0 10 10" refX="9" refY="5" markerWidth="6" markerHeight="6" orient="auto">
      <path d="M1 2 L9 5 L1 8" fill="none" stroke="#475569" stroke-width="1.8" stroke-linecap="round"/>
    </marker>
  </defs>
  <rect width="660" height="478" fill="#F8FAFC"/>
  <text x="280" y="42" text-anchor="middle" font-family="Arial, Helvetica, sans-serif" font-size="15" font-weight="700" fill="#0F172A">Diagram</text>
  <rect x="200" y="60" width="161" height="44" rx="10" fill="#FFFFFF" stroke="#E2E8F0" stroke-width="1.8" filter="url(#sh)"/>
  <text x="280" y="92" text-anchor="middle" font-family="Arial, Helvetica, sans-serif" font-size="12" font-weight="600" fill="#0F172A">Modern Organization</text>
  <line x1="280" y1="104" x2="280" y2="116" stroke="#475569" stroke-width="2" marker-end="url(#m-slate)"/>
  <line x1="-22" y1="130" x2="582" y2="130" stroke="#475569" stroke-width="2"/>
  <line x1="32" y1="130" x2="32" y2="144" stroke="#475569" stroke-width="2"/>
  <rect x="-22" y="144" width="108" height="44" rx="10" fill="#FFFFFF" stroke="#E2E8F0" stroke-width="1.8" filter="url(#sh)"/>
  <text x="32" y="176" text-anchor="middle" font-family="Arial, Helvetica, sans-serif" font-size="12" font-weight="600" fill="#0F172A">Employees</text>
  <line x1="156" y1="130" x2="156" y2="144" stroke="#475569" stroke-width="2"/>
  <rect x="102" y="144" width="108" height="44" rx="10" fill="#FFFFFF" stroke="#E2E8F0" stroke-width="1.8" filter="url(#sh)"/>
  <text x="156" y="176" text-anchor="middle" font-family="Arial, Helvetica, sans-serif" font-size="12" font-weight="600" fill="#0F172A">Cloud</text>
  <line x1="280" y1="130" x2="280" y2="144" stroke="#475569" stroke-width="2"/>
  <rect x="226" y="144" width="108" height="44" rx="10" fill="#FFFFFF" stroke="#E2E8F0" stroke-width="1.8" filter="url(#sh)"/>
  <text x="280" y="176" text-anchor="middle" font-family="Arial, Helvetica, sans-serif" font-size="12" font-weight="600" fill="#0F172A">APIs</text>
  <line x1="404" y1="130" x2="404" y2="144" stroke="#475569" stroke-width="2"/>
  <rect x="350" y="144" width="108" height="44" rx="10" fill="#FFFFFF" stroke="#E2E8F0" stroke-width="1.8" filter="url(#sh)"/>
  <text x="404" y="176" text-anchor="middle" font-family="Arial, Helvetica, sans-serif" font-size="12" font-weight="600" fill="#0F172A">SaaS</text>
  <line x1="528" y1="130" x2="528" y2="144" stroke="#475569" stroke-width="2"/>
  <rect x="474" y="144" width="108" height="44" rx="10" fill="#FFFFFF" stroke="#E2E8F0" stroke-width="1.8" filter="url(#sh)"/>
  <text x="528" y="176" text-anchor="middle" font-family="Arial, Helvetica, sans-serif" font-size="12" font-weight="600" fill="#0F172A">Mobile</text>
  <rect x="220" y="212" width="120" height="44" rx="10" fill="#FFFFFF" stroke="#E2E8F0" stroke-width="1.8" filter="url(#sh)"/>
  <text x="280" y="244" text-anchor="middle" font-family="Arial, Helvetica, sans-serif" font-size="12" font-weight="600" fill="#0F172A">↑ ↑ ↑</text>
  <rect x="200" y="256" width="161" height="60" rx="10" fill="#FFFFFF" stroke="#E2E8F0" stroke-width="1.8" filter="url(#sh)"/>
  <text x="280" y="288" text-anchor="middle" font-family="Arial, Helvetica, sans-serif" font-size="12" font-weight="600" fill="#0F172A">Attackers Attackers</text>
  <text x="280" y="304" text-anchor="middle" font-family="Arial, Helvetica, sans-serif" font-size="12" font-weight="600" fill="#0F172A">Attackers</text>
  <rect x="180" y="328" width="200" height="110" rx="12" fill="#FFFFFF" stroke="#E2E8F0" stroke-width="2" filter="url(#sh)"/>
  <text x="280" y="356" text-anchor="middle" font-family="Arial, Helvetica, sans-serif" font-size="13" font-weight="700" fill="#2563EB">Ransomware</text>
  <text x="204" y="390" font-family="Arial, Helvetica, sans-serif" font-size="12" fill="#0F172A">• Credential Theft</text>
  <text x="204" y="412" font-family="Arial, Helvetica, sans-serif" font-size="12" fill="#0F172A">• Supply Chain Attacks</text>
  <text x="204" y="434" font-family="Arial, Helvetica, sans-serif" font-size="12" fill="#0F172A">• Misconfigurations</text>
</svg>
